G04 #@! TF.FileFunction,Copper,L1,Top,Signal*
%FSLAX46Y46*%
G04 Gerber Fmt 4.6, Leading zero omitted, Abs format (unit mm)*
G04 Created by KiCad (PCBNEW 4.0.7) date 01/05/18 16:25:35*
%MOMM*%
%LPD*%
G01*
G04 APERTURE LIST*
%ADD10C,0.100000*%
%ADD11C,0.508000*%
%ADD12R,1.000000X1.250000*%
%ADD13R,2.500000X1.000000*%
%ADD14R,1.250000X1.000000*%
%ADD15R,0.800000X0.750000*%
%ADD16R,1.700000X1.700000*%
%ADD17O,1.700000X1.700000*%
%ADD18R,0.700000X1.300000*%
%ADD19R,1.300000X0.700000*%
%ADD20R,1.981200X0.558800*%
%ADD21R,2.705100X8.001000*%
%ADD22R,2.235200X2.235200*%
%ADD23C,2.000000*%
%ADD24C,3.000000*%
%ADD25R,1.700000X2.500000*%
%ADD26R,1.340000X1.800000*%
%ADD27C,0.381000*%
%ADD28C,0.609600*%
%ADD29C,0.254000*%
G04 APERTURE END LIST*
D10*
D11*
X72900000Y-86100000D03*
X72900000Y-81000000D03*
X95758000Y-77216000D03*
X94742000Y-78486000D03*
X96774000Y-78486000D03*
X96774000Y-75946000D03*
X94742000Y-75946000D03*
X94742000Y-67056000D03*
X93726000Y-67056000D03*
X96774000Y-73406000D03*
X95758000Y-73406000D03*
X94742000Y-73406000D03*
X94742000Y-72136000D03*
X94742000Y-70866000D03*
X94742000Y-69596000D03*
X93726000Y-73406000D03*
X93726000Y-72136000D03*
X93726000Y-70866000D03*
X93726000Y-69596000D03*
X94742000Y-68326000D03*
X93726000Y-68326000D03*
X113538000Y-91186000D03*
X110998000Y-91186000D03*
X108458000Y-91186000D03*
X105918000Y-91186000D03*
X103378000Y-91186000D03*
X100838000Y-91186000D03*
X98298000Y-91186000D03*
X95758000Y-91186000D03*
X93218000Y-91186000D03*
X90678000Y-91186000D03*
X88138000Y-91186000D03*
X85598000Y-91186000D03*
X83058000Y-91186000D03*
X80518000Y-91186000D03*
X77978000Y-91186000D03*
X75438000Y-91186000D03*
X72898000Y-91186000D03*
X70358000Y-91186000D03*
X67818000Y-91186000D03*
X65278000Y-91186000D03*
X113538000Y-88646000D03*
X110998000Y-88646000D03*
X108458000Y-88646000D03*
X105918000Y-88646000D03*
X103378000Y-88646000D03*
X100838000Y-88646000D03*
X98298000Y-88646000D03*
X95758000Y-88646000D03*
X93218000Y-88646000D03*
X90678000Y-88646000D03*
X88138000Y-88646000D03*
X85598000Y-88646000D03*
X83058000Y-88646000D03*
X80518000Y-88646000D03*
X77978000Y-88646000D03*
X75438000Y-88646000D03*
X72898000Y-88646000D03*
X70358000Y-88646000D03*
X65278000Y-88646000D03*
X113538000Y-86106000D03*
X110998000Y-86106000D03*
X108458000Y-86106000D03*
X105918000Y-86106000D03*
X103378000Y-86106000D03*
X100838000Y-86106000D03*
X98298000Y-86106000D03*
X95758000Y-86106000D03*
X93218000Y-86106000D03*
X85598000Y-86106000D03*
X83058000Y-86106000D03*
X80518000Y-86106000D03*
X77978000Y-86106000D03*
X75438000Y-86106000D03*
X65278000Y-86106000D03*
X113538000Y-83566000D03*
X110998000Y-83566000D03*
X108458000Y-83566000D03*
X105918000Y-83566000D03*
X103378000Y-83566000D03*
X100838000Y-83566000D03*
X98298000Y-83566000D03*
X95758000Y-83566000D03*
X93218000Y-83566000D03*
X88138000Y-83566000D03*
X85598000Y-83566000D03*
X83058000Y-83566000D03*
X80518000Y-83566000D03*
X77978000Y-83566000D03*
X75438000Y-83566000D03*
X72898000Y-83566000D03*
X70358000Y-83566000D03*
X67818000Y-83566000D03*
X65278000Y-83566000D03*
X113538000Y-81026000D03*
X110998000Y-81026000D03*
X108458000Y-81026000D03*
X105918000Y-81026000D03*
X103378000Y-81026000D03*
X98298000Y-81026000D03*
X95758000Y-81026000D03*
X93218000Y-81026000D03*
X88138000Y-81026000D03*
X85598000Y-81026000D03*
X83058000Y-81026000D03*
X80518000Y-81026000D03*
X70358000Y-81026000D03*
X67818000Y-81026000D03*
X65278000Y-81026000D03*
X88138000Y-67310000D03*
X77978000Y-67310000D03*
X75438000Y-67310000D03*
X70358000Y-67310000D03*
X65278000Y-67310000D03*
X88138000Y-64770000D03*
X85598000Y-64770000D03*
X83058000Y-64770000D03*
X80518000Y-64770000D03*
X77978000Y-64770000D03*
X75438000Y-64770000D03*
X72898000Y-64770000D03*
X70358000Y-64770000D03*
X65278000Y-64770000D03*
X93218000Y-62230000D03*
X90678000Y-62230000D03*
X88138000Y-62230000D03*
X85598000Y-62230000D03*
X83058000Y-62230000D03*
X80518000Y-62230000D03*
X77978000Y-62230000D03*
X75438000Y-62230000D03*
X72898000Y-62230000D03*
X70358000Y-62230000D03*
X67818000Y-62230000D03*
D12*
X106950000Y-67200000D03*
X108950000Y-67200000D03*
D13*
X80772000Y-70080000D03*
X80772000Y-67080000D03*
X84328000Y-70080000D03*
X84328000Y-67080000D03*
D14*
X84074000Y-60722000D03*
X84074000Y-62722000D03*
X100076000Y-72120000D03*
X100076000Y-70120000D03*
X102616000Y-72120000D03*
X102616000Y-70120000D03*
D15*
X92214000Y-75387200D03*
X93714000Y-75387200D03*
D16*
X68072000Y-66040000D03*
D17*
X68072000Y-63500000D03*
D16*
X83566000Y-48260000D03*
D17*
X86106000Y-48260000D03*
D18*
X88458000Y-76962000D03*
X90358000Y-76962000D03*
X91950000Y-77500000D03*
X93850000Y-77500000D03*
X106360000Y-78740000D03*
X104460000Y-78740000D03*
X100396000Y-74422000D03*
X102296000Y-74422000D03*
D19*
X99822000Y-78806000D03*
X99822000Y-80706000D03*
D16*
X66040000Y-71628000D03*
D17*
X66040000Y-74168000D03*
D16*
X77216000Y-48260000D03*
D17*
X79756000Y-48260000D03*
D16*
X70866000Y-48260000D03*
D17*
X73406000Y-48260000D03*
D16*
X66040000Y-79248000D03*
D17*
X66040000Y-76708000D03*
D11*
X65278000Y-62230000D03*
D20*
X91770200Y-67945000D03*
X91770200Y-69215000D03*
X91770200Y-70485000D03*
X91770200Y-71755000D03*
X96697800Y-71755000D03*
X96697800Y-70485000D03*
X96697800Y-69215000D03*
X96697800Y-67945000D03*
D21*
X100654300Y-57200000D03*
X95345700Y-57200000D03*
D22*
X68072000Y-89408000D03*
D23*
X68880000Y-73690000D03*
D24*
X90170000Y-85600000D03*
X90170000Y-50800000D03*
D23*
X68880000Y-85600000D03*
D24*
X90170000Y-80200000D03*
X90170000Y-56200000D03*
D25*
X74100000Y-78200000D03*
X78100000Y-78200000D03*
X74100000Y-74800000D03*
X78100000Y-74800000D03*
D26*
X99430000Y-65100000D03*
X96570000Y-65100000D03*
D27*
X77100000Y-81050000D03*
X111100000Y-66200000D03*
X89916000Y-67818000D03*
X72500000Y-78400000D03*
X76700000Y-71700000D03*
D28*
X100076000Y-70120000D02*
X102600000Y-70120000D01*
X102600000Y-70120000D02*
X102616000Y-70136000D01*
X96697800Y-69215000D02*
X99171000Y-69215000D01*
X99171000Y-69215000D02*
X100076000Y-70120000D01*
X78100000Y-78200000D02*
X78100000Y-80050000D01*
X78100000Y-80050000D02*
X77100000Y-81050000D01*
X68880000Y-85600000D02*
X68582000Y-85600000D01*
X111100000Y-66900000D02*
X110800000Y-67200000D01*
X110800000Y-67200000D02*
X108950000Y-67200000D01*
X111100000Y-66200000D02*
X111100000Y-66900000D01*
X91770200Y-67945000D02*
X90043000Y-67945000D01*
X90043000Y-67945000D02*
X89916000Y-67818000D01*
X66040000Y-74168000D02*
X66040000Y-76962000D01*
X106360000Y-78740000D02*
X112776000Y-78740000D01*
X114808000Y-47244000D02*
X113030000Y-45466000D01*
X112776000Y-78740000D02*
X114808000Y-76708000D01*
X114808000Y-76708000D02*
X114808000Y-47244000D01*
X113030000Y-45466000D02*
X78550400Y-45466000D01*
X78550400Y-45466000D02*
X77216000Y-46800400D01*
X77216000Y-46800400D02*
X77216000Y-48260000D01*
X96697800Y-70485000D02*
X98441000Y-70485000D01*
X98441000Y-70485000D02*
X100076000Y-72120000D01*
X100076000Y-72120000D02*
X100076000Y-74102000D01*
X100076000Y-74102000D02*
X100396000Y-74422000D01*
X102616000Y-72120000D02*
X102616000Y-74102000D01*
X102616000Y-74102000D02*
X102296000Y-74422000D01*
X91770200Y-71755000D02*
X91770200Y-74943400D01*
X91770200Y-74943400D02*
X92214000Y-75387200D01*
X72500000Y-78400000D02*
X72500000Y-76400000D01*
X72500000Y-76400000D02*
X74100000Y-74800000D01*
X72500000Y-78400000D02*
X73900000Y-78400000D01*
X73900000Y-78400000D02*
X74100000Y-78200000D01*
X74100000Y-74800000D02*
X74100000Y-78200000D01*
X76700000Y-71700000D02*
X76700000Y-73400000D01*
X76700000Y-73400000D02*
X78100000Y-74800000D01*
X90358000Y-76962000D02*
X91412000Y-76962000D01*
X91412000Y-76962000D02*
X91950000Y-77500000D01*
X91770200Y-70485000D02*
X90764358Y-70485000D01*
X90764358Y-70485000D02*
X90220799Y-71028559D01*
X90220799Y-71028559D02*
X90220799Y-75565199D01*
X90220799Y-75565199D02*
X90358000Y-75702400D01*
X90358000Y-75702400D02*
X90358000Y-76962000D01*
X90358000Y-76962000D02*
X90358000Y-77185600D01*
X90358000Y-76662000D02*
X90358000Y-76962000D01*
X99822000Y-78806000D02*
X104394000Y-78806000D01*
X104394000Y-78806000D02*
X104460000Y-78740000D01*
X98806000Y-73152000D02*
X98806000Y-76830400D01*
X98806000Y-76830400D02*
X99822000Y-77846400D01*
X99822000Y-77846400D02*
X99822000Y-78806000D01*
X96697800Y-71755000D02*
X97409000Y-71755000D01*
X97409000Y-71755000D02*
X98806000Y-73152000D01*
D29*
G36*
X97673000Y-46626931D02*
X97673000Y-61273000D01*
X64926745Y-61273000D01*
X64917293Y-56572513D01*
X88288674Y-56572513D01*
X88574436Y-57264109D01*
X89103108Y-57793704D01*
X89794204Y-58080673D01*
X90542513Y-58081326D01*
X91234109Y-57795564D01*
X91763704Y-57266892D01*
X92050673Y-56575796D01*
X92051326Y-55827487D01*
X91765564Y-55135891D01*
X91236892Y-54606296D01*
X90545796Y-54319327D01*
X89797487Y-54318674D01*
X89105891Y-54604436D01*
X88576296Y-55133108D01*
X88289327Y-55824204D01*
X88288674Y-56572513D01*
X64917293Y-56572513D01*
X64906434Y-51172513D01*
X88288674Y-51172513D01*
X88574436Y-51864109D01*
X89103108Y-52393704D01*
X89794204Y-52680673D01*
X90542513Y-52681326D01*
X91234109Y-52395564D01*
X91763704Y-51866892D01*
X92050673Y-51175796D01*
X92051326Y-50427487D01*
X91765564Y-49735891D01*
X91236892Y-49206296D01*
X90545796Y-48919327D01*
X89797487Y-48918674D01*
X89105891Y-49204436D01*
X88576296Y-49733108D01*
X88289327Y-50424204D01*
X88288674Y-51172513D01*
X64906434Y-51172513D01*
X64900528Y-48235883D01*
X72175000Y-48235883D01*
X72175000Y-48284117D01*
X72268704Y-48755200D01*
X72535552Y-49154565D01*
X72934917Y-49421413D01*
X73406000Y-49515117D01*
X73877083Y-49421413D01*
X74276448Y-49154565D01*
X74543296Y-48755200D01*
X74637000Y-48284117D01*
X74637000Y-48235883D01*
X78525000Y-48235883D01*
X78525000Y-48284117D01*
X78618704Y-48755200D01*
X78885552Y-49154565D01*
X79284917Y-49421413D01*
X79756000Y-49515117D01*
X80227083Y-49421413D01*
X80626448Y-49154565D01*
X80893296Y-48755200D01*
X80987000Y-48284117D01*
X80987000Y-48235883D01*
X80893296Y-47764800D01*
X80656226Y-47410000D01*
X82327536Y-47410000D01*
X82327536Y-49110000D01*
X82354103Y-49251190D01*
X82437546Y-49380865D01*
X82564866Y-49467859D01*
X82716000Y-49498464D01*
X84416000Y-49498464D01*
X84557190Y-49471897D01*
X84686865Y-49388454D01*
X84773859Y-49261134D01*
X84804464Y-49110000D01*
X84804464Y-48235883D01*
X84875000Y-48235883D01*
X84875000Y-48284117D01*
X84968704Y-48755200D01*
X85235552Y-49154565D01*
X85634917Y-49421413D01*
X86106000Y-49515117D01*
X86577083Y-49421413D01*
X86976448Y-49154565D01*
X87243296Y-48755200D01*
X87337000Y-48284117D01*
X87337000Y-48235883D01*
X87243296Y-47764800D01*
X86976448Y-47365435D01*
X86577083Y-47098587D01*
X86106000Y-47004883D01*
X85634917Y-47098587D01*
X85235552Y-47365435D01*
X84968704Y-47764800D01*
X84875000Y-48235883D01*
X84804464Y-48235883D01*
X84804464Y-47410000D01*
X84777897Y-47268810D01*
X84694454Y-47139135D01*
X84567134Y-47052141D01*
X84416000Y-47021536D01*
X82716000Y-47021536D01*
X82574810Y-47048103D01*
X82445135Y-47131546D01*
X82358141Y-47258866D01*
X82327536Y-47410000D01*
X80656226Y-47410000D01*
X80626448Y-47365435D01*
X80227083Y-47098587D01*
X79756000Y-47004883D01*
X79284917Y-47098587D01*
X78885552Y-47365435D01*
X78618704Y-47764800D01*
X78525000Y-48235883D01*
X74637000Y-48235883D01*
X74543296Y-47764800D01*
X74276448Y-47365435D01*
X73877083Y-47098587D01*
X73406000Y-47004883D01*
X72934917Y-47098587D01*
X72535552Y-47365435D01*
X72268704Y-47764800D01*
X72175000Y-48235883D01*
X64900528Y-48235883D01*
X64897256Y-46609069D01*
X97673000Y-46626931D01*
X97673000Y-46626931D01*
G37*
X97673000Y-46626931D02*
X97673000Y-61273000D01*
X64926745Y-61273000D01*
X64917293Y-56572513D01*
X88288674Y-56572513D01*
X88574436Y-57264109D01*
X89103108Y-57793704D01*
X89794204Y-58080673D01*
X90542513Y-58081326D01*
X91234109Y-57795564D01*
X91763704Y-57266892D01*
X92050673Y-56575796D01*
X92051326Y-55827487D01*
X91765564Y-55135891D01*
X91236892Y-54606296D01*
X90545796Y-54319327D01*
X89797487Y-54318674D01*
X89105891Y-54604436D01*
X88576296Y-55133108D01*
X88289327Y-55824204D01*
X88288674Y-56572513D01*
X64917293Y-56572513D01*
X64906434Y-51172513D01*
X88288674Y-51172513D01*
X88574436Y-51864109D01*
X89103108Y-52393704D01*
X89794204Y-52680673D01*
X90542513Y-52681326D01*
X91234109Y-52395564D01*
X91763704Y-51866892D01*
X92050673Y-51175796D01*
X92051326Y-50427487D01*
X91765564Y-49735891D01*
X91236892Y-49206296D01*
X90545796Y-48919327D01*
X89797487Y-48918674D01*
X89105891Y-49204436D01*
X88576296Y-49733108D01*
X88289327Y-50424204D01*
X88288674Y-51172513D01*
X64906434Y-51172513D01*
X64900528Y-48235883D01*
X72175000Y-48235883D01*
X72175000Y-48284117D01*
X72268704Y-48755200D01*
X72535552Y-49154565D01*
X72934917Y-49421413D01*
X73406000Y-49515117D01*
X73877083Y-49421413D01*
X74276448Y-49154565D01*
X74543296Y-48755200D01*
X74637000Y-48284117D01*
X74637000Y-48235883D01*
X78525000Y-48235883D01*
X78525000Y-48284117D01*
X78618704Y-48755200D01*
X78885552Y-49154565D01*
X79284917Y-49421413D01*
X79756000Y-49515117D01*
X80227083Y-49421413D01*
X80626448Y-49154565D01*
X80893296Y-48755200D01*
X80987000Y-48284117D01*
X80987000Y-48235883D01*
X80893296Y-47764800D01*
X80656226Y-47410000D01*
X82327536Y-47410000D01*
X82327536Y-49110000D01*
X82354103Y-49251190D01*
X82437546Y-49380865D01*
X82564866Y-49467859D01*
X82716000Y-49498464D01*
X84416000Y-49498464D01*
X84557190Y-49471897D01*
X84686865Y-49388454D01*
X84773859Y-49261134D01*
X84804464Y-49110000D01*
X84804464Y-48235883D01*
X84875000Y-48235883D01*
X84875000Y-48284117D01*
X84968704Y-48755200D01*
X85235552Y-49154565D01*
X85634917Y-49421413D01*
X86106000Y-49515117D01*
X86577083Y-49421413D01*
X86976448Y-49154565D01*
X87243296Y-48755200D01*
X87337000Y-48284117D01*
X87337000Y-48235883D01*
X87243296Y-47764800D01*
X86976448Y-47365435D01*
X86577083Y-47098587D01*
X86106000Y-47004883D01*
X85634917Y-47098587D01*
X85235552Y-47365435D01*
X84968704Y-47764800D01*
X84875000Y-48235883D01*
X84804464Y-48235883D01*
X84804464Y-47410000D01*
X84777897Y-47268810D01*
X84694454Y-47139135D01*
X84567134Y-47052141D01*
X84416000Y-47021536D01*
X82716000Y-47021536D01*
X82574810Y-47048103D01*
X82445135Y-47131546D01*
X82358141Y-47258866D01*
X82327536Y-47410000D01*
X80656226Y-47410000D01*
X80626448Y-47365435D01*
X80227083Y-47098587D01*
X79756000Y-47004883D01*
X79284917Y-47098587D01*
X78885552Y-47365435D01*
X78618704Y-47764800D01*
X78525000Y-48235883D01*
X74637000Y-48235883D01*
X74543296Y-47764800D01*
X74276448Y-47365435D01*
X73877083Y-47098587D01*
X73406000Y-47004883D01*
X72934917Y-47098587D01*
X72535552Y-47365435D01*
X72268704Y-47764800D01*
X72175000Y-48235883D01*
X64900528Y-48235883D01*
X64897256Y-46609069D01*
X97673000Y-46626931D01*
G36*
X107773000Y-68273000D02*
X95727000Y-68273000D01*
X95727000Y-67427000D01*
X98200000Y-67427000D01*
X98249410Y-67416994D01*
X98291035Y-67388553D01*
X98318315Y-67346159D01*
X98327000Y-67300000D01*
X98327000Y-49627000D01*
X107773000Y-49627000D01*
X107773000Y-68273000D01*
X107773000Y-68273000D01*
G37*
X107773000Y-68273000D02*
X95727000Y-68273000D01*
X95727000Y-67427000D01*
X98200000Y-67427000D01*
X98249410Y-67416994D01*
X98291035Y-67388553D01*
X98318315Y-67346159D01*
X98327000Y-67300000D01*
X98327000Y-49627000D01*
X107773000Y-49627000D01*
X107773000Y-68273000D01*
G36*
X97673000Y-66573000D02*
X95200000Y-66573000D01*
X95150590Y-66583006D01*
X95108965Y-66611447D01*
X95081685Y-66653841D01*
X95073000Y-66700000D01*
X95073000Y-68700000D01*
X95083006Y-68749410D01*
X95111447Y-68791035D01*
X95153841Y-68818315D01*
X95200000Y-68827000D01*
X97673000Y-68827000D01*
X97673000Y-69672778D01*
X95504221Y-69669000D01*
X95454794Y-69678920D01*
X95413120Y-69707288D01*
X95385766Y-69749635D01*
X95377000Y-69796000D01*
X95377000Y-70013986D01*
X95349341Y-70054466D01*
X95318736Y-70205600D01*
X95318736Y-70764400D01*
X95345303Y-70905590D01*
X95377000Y-70954849D01*
X95377000Y-71283986D01*
X95349341Y-71324466D01*
X95318736Y-71475600D01*
X95318736Y-72034400D01*
X95345303Y-72175590D01*
X95377000Y-72224849D01*
X95377000Y-72898000D01*
X95387006Y-72947410D01*
X95415447Y-72989035D01*
X95457841Y-73016315D01*
X95504000Y-73025000D01*
X97155000Y-73025000D01*
X97155000Y-80010000D01*
X97165006Y-80059410D01*
X97193447Y-80101035D01*
X97235841Y-80128315D01*
X97282000Y-80137000D01*
X114681000Y-80137000D01*
X114681000Y-91567000D01*
X64897000Y-91567000D01*
X64897000Y-88290400D01*
X66565936Y-88290400D01*
X66565936Y-90525600D01*
X66592503Y-90666790D01*
X66675946Y-90796465D01*
X66803266Y-90883459D01*
X66954400Y-90914064D01*
X69189600Y-90914064D01*
X69330790Y-90887497D01*
X69460465Y-90804054D01*
X69547459Y-90676734D01*
X69578064Y-90525600D01*
X69578064Y-88290400D01*
X69551497Y-88149210D01*
X69468054Y-88019535D01*
X69340734Y-87932541D01*
X69189600Y-87901936D01*
X66954400Y-87901936D01*
X66813210Y-87928503D01*
X66683535Y-88011946D01*
X66596541Y-88139266D01*
X66565936Y-88290400D01*
X64897000Y-88290400D01*
X64897000Y-85873493D01*
X67498761Y-85873493D01*
X67708563Y-86381251D01*
X68096705Y-86770072D01*
X68604097Y-86980759D01*
X69153493Y-86981239D01*
X69661251Y-86771437D01*
X70050072Y-86383295D01*
X70220643Y-85972513D01*
X88288674Y-85972513D01*
X88574436Y-86664109D01*
X89103108Y-87193704D01*
X89794204Y-87480673D01*
X90542513Y-87481326D01*
X91234109Y-87195564D01*
X91763704Y-86666892D01*
X92050673Y-85975796D01*
X92051326Y-85227487D01*
X91765564Y-84535891D01*
X91236892Y-84006296D01*
X90545796Y-83719327D01*
X89797487Y-83718674D01*
X89105891Y-84004436D01*
X88576296Y-84533108D01*
X88289327Y-85224204D01*
X88288674Y-85972513D01*
X70220643Y-85972513D01*
X70260759Y-85875903D01*
X70261239Y-85326507D01*
X70051437Y-84818749D01*
X69663295Y-84429928D01*
X69155903Y-84219241D01*
X68606507Y-84218761D01*
X68098749Y-84428563D01*
X67709928Y-84816705D01*
X67499241Y-85324097D01*
X67498761Y-85873493D01*
X64897000Y-85873493D01*
X64897000Y-80137000D01*
X77043132Y-80137000D01*
X76615066Y-80565066D01*
X76466403Y-80787555D01*
X76414200Y-81050000D01*
X76466403Y-81312445D01*
X76615066Y-81534934D01*
X76837555Y-81683597D01*
X77100000Y-81735800D01*
X77362445Y-81683597D01*
X77584934Y-81534934D01*
X78584934Y-80534934D01*
X78733597Y-80312444D01*
X78768495Y-80137000D01*
X88289054Y-80137000D01*
X88288674Y-80572513D01*
X88574436Y-81264109D01*
X89103108Y-81793704D01*
X89794204Y-82080673D01*
X90542513Y-82081326D01*
X91234109Y-81795564D01*
X91763704Y-81266892D01*
X92050673Y-80575796D01*
X92051056Y-80137000D01*
X93218000Y-80137000D01*
X93267410Y-80126994D01*
X93309035Y-80098553D01*
X93336315Y-80056159D01*
X93345000Y-80010000D01*
X93345000Y-67056000D01*
X93334994Y-67006590D01*
X93306553Y-66964965D01*
X93264159Y-66937685D01*
X93218000Y-66929000D01*
X89154000Y-66929000D01*
X89104590Y-66939006D01*
X89062965Y-66967447D01*
X89035685Y-67009841D01*
X89027000Y-67056000D01*
X89027000Y-68453000D01*
X64897000Y-68453000D01*
X64897000Y-65190000D01*
X66833536Y-65190000D01*
X66833536Y-66890000D01*
X66860103Y-67031190D01*
X66943546Y-67160865D01*
X67070866Y-67247859D01*
X67222000Y-67278464D01*
X68922000Y-67278464D01*
X69063190Y-67251897D01*
X69192865Y-67168454D01*
X69279859Y-67041134D01*
X69310464Y-66890000D01*
X69310464Y-65190000D01*
X69283897Y-65048810D01*
X69200454Y-64919135D01*
X69073134Y-64832141D01*
X68922000Y-64801536D01*
X67222000Y-64801536D01*
X67080810Y-64828103D01*
X66951135Y-64911546D01*
X66864141Y-65038866D01*
X66833536Y-65190000D01*
X64897000Y-65190000D01*
X64897000Y-61848915D01*
X97673000Y-61827085D01*
X97673000Y-66573000D01*
X97673000Y-66573000D01*
G37*
X97673000Y-66573000D02*
X95200000Y-66573000D01*
X95150590Y-66583006D01*
X95108965Y-66611447D01*
X95081685Y-66653841D01*
X95073000Y-66700000D01*
X95073000Y-68700000D01*
X95083006Y-68749410D01*
X95111447Y-68791035D01*
X95153841Y-68818315D01*
X95200000Y-68827000D01*
X97673000Y-68827000D01*
X97673000Y-69672778D01*
X95504221Y-69669000D01*
X95454794Y-69678920D01*
X95413120Y-69707288D01*
X95385766Y-69749635D01*
X95377000Y-69796000D01*
X95377000Y-70013986D01*
X95349341Y-70054466D01*
X95318736Y-70205600D01*
X95318736Y-70764400D01*
X95345303Y-70905590D01*
X95377000Y-70954849D01*
X95377000Y-71283986D01*
X95349341Y-71324466D01*
X95318736Y-71475600D01*
X95318736Y-72034400D01*
X95345303Y-72175590D01*
X95377000Y-72224849D01*
X95377000Y-72898000D01*
X95387006Y-72947410D01*
X95415447Y-72989035D01*
X95457841Y-73016315D01*
X95504000Y-73025000D01*
X97155000Y-73025000D01*
X97155000Y-80010000D01*
X97165006Y-80059410D01*
X97193447Y-80101035D01*
X97235841Y-80128315D01*
X97282000Y-80137000D01*
X114681000Y-80137000D01*
X114681000Y-91567000D01*
X64897000Y-91567000D01*
X64897000Y-88290400D01*
X66565936Y-88290400D01*
X66565936Y-90525600D01*
X66592503Y-90666790D01*
X66675946Y-90796465D01*
X66803266Y-90883459D01*
X66954400Y-90914064D01*
X69189600Y-90914064D01*
X69330790Y-90887497D01*
X69460465Y-90804054D01*
X69547459Y-90676734D01*
X69578064Y-90525600D01*
X69578064Y-88290400D01*
X69551497Y-88149210D01*
X69468054Y-88019535D01*
X69340734Y-87932541D01*
X69189600Y-87901936D01*
X66954400Y-87901936D01*
X66813210Y-87928503D01*
X66683535Y-88011946D01*
X66596541Y-88139266D01*
X66565936Y-88290400D01*
X64897000Y-88290400D01*
X64897000Y-85873493D01*
X67498761Y-85873493D01*
X67708563Y-86381251D01*
X68096705Y-86770072D01*
X68604097Y-86980759D01*
X69153493Y-86981239D01*
X69661251Y-86771437D01*
X70050072Y-86383295D01*
X70220643Y-85972513D01*
X88288674Y-85972513D01*
X88574436Y-86664109D01*
X89103108Y-87193704D01*
X89794204Y-87480673D01*
X90542513Y-87481326D01*
X91234109Y-87195564D01*
X91763704Y-86666892D01*
X92050673Y-85975796D01*
X92051326Y-85227487D01*
X91765564Y-84535891D01*
X91236892Y-84006296D01*
X90545796Y-83719327D01*
X89797487Y-83718674D01*
X89105891Y-84004436D01*
X88576296Y-84533108D01*
X88289327Y-85224204D01*
X88288674Y-85972513D01*
X70220643Y-85972513D01*
X70260759Y-85875903D01*
X70261239Y-85326507D01*
X70051437Y-84818749D01*
X69663295Y-84429928D01*
X69155903Y-84219241D01*
X68606507Y-84218761D01*
X68098749Y-84428563D01*
X67709928Y-84816705D01*
X67499241Y-85324097D01*
X67498761Y-85873493D01*
X64897000Y-85873493D01*
X64897000Y-80137000D01*
X77043132Y-80137000D01*
X76615066Y-80565066D01*
X76466403Y-80787555D01*
X76414200Y-81050000D01*
X76466403Y-81312445D01*
X76615066Y-81534934D01*
X76837555Y-81683597D01*
X77100000Y-81735800D01*
X77362445Y-81683597D01*
X77584934Y-81534934D01*
X78584934Y-80534934D01*
X78733597Y-80312444D01*
X78768495Y-80137000D01*
X88289054Y-80137000D01*
X88288674Y-80572513D01*
X88574436Y-81264109D01*
X89103108Y-81793704D01*
X89794204Y-82080673D01*
X90542513Y-82081326D01*
X91234109Y-81795564D01*
X91763704Y-81266892D01*
X92050673Y-80575796D01*
X92051056Y-80137000D01*
X93218000Y-80137000D01*
X93267410Y-80126994D01*
X93309035Y-80098553D01*
X93336315Y-80056159D01*
X93345000Y-80010000D01*
X93345000Y-67056000D01*
X93334994Y-67006590D01*
X93306553Y-66964965D01*
X93264159Y-66937685D01*
X93218000Y-66929000D01*
X89154000Y-66929000D01*
X89104590Y-66939006D01*
X89062965Y-66967447D01*
X89035685Y-67009841D01*
X89027000Y-67056000D01*
X89027000Y-68453000D01*
X64897000Y-68453000D01*
X64897000Y-65190000D01*
X66833536Y-65190000D01*
X66833536Y-66890000D01*
X66860103Y-67031190D01*
X66943546Y-67160865D01*
X67070866Y-67247859D01*
X67222000Y-67278464D01*
X68922000Y-67278464D01*
X69063190Y-67251897D01*
X69192865Y-67168454D01*
X69279859Y-67041134D01*
X69310464Y-66890000D01*
X69310464Y-65190000D01*
X69283897Y-65048810D01*
X69200454Y-64919135D01*
X69073134Y-64832141D01*
X68922000Y-64801536D01*
X67222000Y-64801536D01*
X67080810Y-64828103D01*
X66951135Y-64911546D01*
X66864141Y-65038866D01*
X66833536Y-65190000D01*
X64897000Y-65190000D01*
X64897000Y-61848915D01*
X97673000Y-61827085D01*
X97673000Y-66573000D01*
G36*
X92837000Y-69469000D02*
X90678000Y-69469000D01*
X90628590Y-69479006D01*
X90588197Y-69506197D01*
X89572197Y-70522197D01*
X89544334Y-70564211D01*
X89535000Y-70612000D01*
X89535000Y-71028554D01*
X89534999Y-71028559D01*
X89534999Y-75565199D01*
X89535000Y-75565204D01*
X89535000Y-78427132D01*
X89105891Y-78604436D01*
X88576296Y-79133108D01*
X88370383Y-79629000D01*
X79288819Y-79629000D01*
X79307859Y-79601134D01*
X79338464Y-79450000D01*
X79338464Y-76950000D01*
X79311897Y-76808810D01*
X79228454Y-76679135D01*
X79101134Y-76592141D01*
X78950000Y-76561536D01*
X77250000Y-76561536D01*
X77108810Y-76588103D01*
X76979135Y-76671546D01*
X76892141Y-76798866D01*
X76861536Y-76950000D01*
X76861536Y-79450000D01*
X76888103Y-79591190D01*
X76912433Y-79629000D01*
X75288819Y-79629000D01*
X75307859Y-79601134D01*
X75338464Y-79450000D01*
X75338464Y-76950000D01*
X75311897Y-76808810D01*
X75228454Y-76679135D01*
X75101134Y-76592141D01*
X74950000Y-76561536D01*
X74785800Y-76561536D01*
X74785800Y-76438464D01*
X74950000Y-76438464D01*
X75091190Y-76411897D01*
X75220865Y-76328454D01*
X75307859Y-76201134D01*
X75338464Y-76050000D01*
X75338464Y-73550000D01*
X75311897Y-73408810D01*
X75228454Y-73279135D01*
X75101134Y-73192141D01*
X74950000Y-73161536D01*
X73250000Y-73161536D01*
X73108810Y-73188103D01*
X72979135Y-73271546D01*
X72892141Y-73398866D01*
X72861536Y-73550000D01*
X72861536Y-75068596D01*
X72015066Y-75915066D01*
X71866403Y-76137555D01*
X71843838Y-76250999D01*
X71814200Y-76400000D01*
X71814200Y-78400000D01*
X71866403Y-78662444D01*
X72015066Y-78884934D01*
X72237556Y-79033597D01*
X72500000Y-79085800D01*
X72861536Y-79085800D01*
X72861536Y-79450000D01*
X72888103Y-79591190D01*
X72912433Y-79629000D01*
X67278464Y-79629000D01*
X67278464Y-78398000D01*
X67251897Y-78256810D01*
X67168454Y-78127135D01*
X67041134Y-78040141D01*
X66890000Y-78009536D01*
X65190000Y-78009536D01*
X65048810Y-78036103D01*
X64919135Y-78119546D01*
X64897000Y-78151942D01*
X64897000Y-73963493D01*
X67498761Y-73963493D01*
X67708563Y-74471251D01*
X68096705Y-74860072D01*
X68604097Y-75070759D01*
X69153493Y-75071239D01*
X69661251Y-74861437D01*
X70050072Y-74473295D01*
X70260759Y-73965903D01*
X70261239Y-73416507D01*
X70051437Y-72908749D01*
X69663295Y-72519928D01*
X69155903Y-72309241D01*
X68606507Y-72308761D01*
X68098749Y-72518563D01*
X67709928Y-72906705D01*
X67499241Y-73414097D01*
X67498761Y-73963493D01*
X64897000Y-73963493D01*
X64897000Y-72726260D01*
X64911546Y-72748865D01*
X65038866Y-72835859D01*
X65190000Y-72866464D01*
X66890000Y-72866464D01*
X67031190Y-72839897D01*
X67160865Y-72756454D01*
X67247859Y-72629134D01*
X67278464Y-72478000D01*
X67278464Y-71700000D01*
X76014200Y-71700000D01*
X76014200Y-73400000D01*
X76066403Y-73662445D01*
X76215066Y-73884934D01*
X76861536Y-74531404D01*
X76861536Y-76050000D01*
X76888103Y-76191190D01*
X76971546Y-76320865D01*
X77098866Y-76407859D01*
X77250000Y-76438464D01*
X78950000Y-76438464D01*
X79091190Y-76411897D01*
X79220865Y-76328454D01*
X79307859Y-76201134D01*
X79338464Y-76050000D01*
X79338464Y-73550000D01*
X79311897Y-73408810D01*
X79228454Y-73279135D01*
X79101134Y-73192141D01*
X78950000Y-73161536D01*
X77431404Y-73161536D01*
X77385800Y-73115932D01*
X77385800Y-71700000D01*
X77333597Y-71437556D01*
X77184934Y-71215066D01*
X76962444Y-71066403D01*
X76700000Y-71014200D01*
X76437556Y-71066403D01*
X76215066Y-71215066D01*
X76066403Y-71437556D01*
X76014200Y-71700000D01*
X67278464Y-71700000D01*
X67278464Y-70778000D01*
X67251897Y-70636810D01*
X67168454Y-70507135D01*
X67041134Y-70420141D01*
X66890000Y-70389536D01*
X65190000Y-70389536D01*
X65048810Y-70416103D01*
X64919135Y-70499546D01*
X64897000Y-70531942D01*
X64897000Y-68961000D01*
X92837000Y-68961000D01*
X92837000Y-69469000D01*
X92837000Y-69469000D01*
G37*
X92837000Y-69469000D02*
X90678000Y-69469000D01*
X90628590Y-69479006D01*
X90588197Y-69506197D01*
X89572197Y-70522197D01*
X89544334Y-70564211D01*
X89535000Y-70612000D01*
X89535000Y-71028554D01*
X89534999Y-71028559D01*
X89534999Y-75565199D01*
X89535000Y-75565204D01*
X89535000Y-78427132D01*
X89105891Y-78604436D01*
X88576296Y-79133108D01*
X88370383Y-79629000D01*
X79288819Y-79629000D01*
X79307859Y-79601134D01*
X79338464Y-79450000D01*
X79338464Y-76950000D01*
X79311897Y-76808810D01*
X79228454Y-76679135D01*
X79101134Y-76592141D01*
X78950000Y-76561536D01*
X77250000Y-76561536D01*
X77108810Y-76588103D01*
X76979135Y-76671546D01*
X76892141Y-76798866D01*
X76861536Y-76950000D01*
X76861536Y-79450000D01*
X76888103Y-79591190D01*
X76912433Y-79629000D01*
X75288819Y-79629000D01*
X75307859Y-79601134D01*
X75338464Y-79450000D01*
X75338464Y-76950000D01*
X75311897Y-76808810D01*
X75228454Y-76679135D01*
X75101134Y-76592141D01*
X74950000Y-76561536D01*
X74785800Y-76561536D01*
X74785800Y-76438464D01*
X74950000Y-76438464D01*
X75091190Y-76411897D01*
X75220865Y-76328454D01*
X75307859Y-76201134D01*
X75338464Y-76050000D01*
X75338464Y-73550000D01*
X75311897Y-73408810D01*
X75228454Y-73279135D01*
X75101134Y-73192141D01*
X74950000Y-73161536D01*
X73250000Y-73161536D01*
X73108810Y-73188103D01*
X72979135Y-73271546D01*
X72892141Y-73398866D01*
X72861536Y-73550000D01*
X72861536Y-75068596D01*
X72015066Y-75915066D01*
X71866403Y-76137555D01*
X71843838Y-76250999D01*
X71814200Y-76400000D01*
X71814200Y-78400000D01*
X71866403Y-78662444D01*
X72015066Y-78884934D01*
X72237556Y-79033597D01*
X72500000Y-79085800D01*
X72861536Y-79085800D01*
X72861536Y-79450000D01*
X72888103Y-79591190D01*
X72912433Y-79629000D01*
X67278464Y-79629000D01*
X67278464Y-78398000D01*
X67251897Y-78256810D01*
X67168454Y-78127135D01*
X67041134Y-78040141D01*
X66890000Y-78009536D01*
X65190000Y-78009536D01*
X65048810Y-78036103D01*
X64919135Y-78119546D01*
X64897000Y-78151942D01*
X64897000Y-73963493D01*
X67498761Y-73963493D01*
X67708563Y-74471251D01*
X68096705Y-74860072D01*
X68604097Y-75070759D01*
X69153493Y-75071239D01*
X69661251Y-74861437D01*
X70050072Y-74473295D01*
X70260759Y-73965903D01*
X70261239Y-73416507D01*
X70051437Y-72908749D01*
X69663295Y-72519928D01*
X69155903Y-72309241D01*
X68606507Y-72308761D01*
X68098749Y-72518563D01*
X67709928Y-72906705D01*
X67499241Y-73414097D01*
X67498761Y-73963493D01*
X64897000Y-73963493D01*
X64897000Y-72726260D01*
X64911546Y-72748865D01*
X65038866Y-72835859D01*
X65190000Y-72866464D01*
X66890000Y-72866464D01*
X67031190Y-72839897D01*
X67160865Y-72756454D01*
X67247859Y-72629134D01*
X67278464Y-72478000D01*
X67278464Y-71700000D01*
X76014200Y-71700000D01*
X76014200Y-73400000D01*
X76066403Y-73662445D01*
X76215066Y-73884934D01*
X76861536Y-74531404D01*
X76861536Y-76050000D01*
X76888103Y-76191190D01*
X76971546Y-76320865D01*
X77098866Y-76407859D01*
X77250000Y-76438464D01*
X78950000Y-76438464D01*
X79091190Y-76411897D01*
X79220865Y-76328454D01*
X79307859Y-76201134D01*
X79338464Y-76050000D01*
X79338464Y-73550000D01*
X79311897Y-73408810D01*
X79228454Y-73279135D01*
X79101134Y-73192141D01*
X78950000Y-73161536D01*
X77431404Y-73161536D01*
X77385800Y-73115932D01*
X77385800Y-71700000D01*
X77333597Y-71437556D01*
X77184934Y-71215066D01*
X76962444Y-71066403D01*
X76700000Y-71014200D01*
X76437556Y-71066403D01*
X76215066Y-71215066D01*
X76066403Y-71437556D01*
X76014200Y-71700000D01*
X67278464Y-71700000D01*
X67278464Y-70778000D01*
X67251897Y-70636810D01*
X67168454Y-70507135D01*
X67041134Y-70420141D01*
X66890000Y-70389536D01*
X65190000Y-70389536D01*
X65048810Y-70416103D01*
X64919135Y-70499546D01*
X64897000Y-70531942D01*
X64897000Y-68961000D01*
X92837000Y-68961000D01*
X92837000Y-69469000D01*
M02*
