M48
;DRILL file {KiCad 4.0.7} date 01/05/18 16:25:37
;FORMAT={2:4/ absolute / inch / suppress leading zeros}
FMAT,2
INCH,TZ
T1C0.010
T2C0.039
T3C0.040
T4C0.046
T5C0.098
T6C0.108
%
G90
G05
M72
T1
X25700Y-24500
X25700Y-25500
X25700Y-26500
X25700Y-31900
X25700Y-32900
X25700Y-33900
X25700Y-34900
X25700Y-35900
X26700Y-24500
X26700Y-31900
X26700Y-32900
X26700Y-35900
X27700Y-24500
X27700Y-25500
X27700Y-26500
X27700Y-31900
X27700Y-32900
X27700Y-34900
X27700Y-35900
X28543Y-30866
X28700Y-24500
X28700Y-25500
X28700Y-32900
X28700Y-34900
X28700Y-35900
X28701Y-31890
X28701Y-33898
X29700Y-24500
X29700Y-25500
X29700Y-26500
X29700Y-32900
X29700Y-33900
X29700Y-34900
X29700Y-35900
X30197Y-28228
X30354Y-31909
X30700Y-24500
X30700Y-25500
X30700Y-26500
X30700Y-32900
X30700Y-33900
X30700Y-34900
X30700Y-35900
X31700Y-24500
X31700Y-25500
X31700Y-31900
X31700Y-32900
X31700Y-33900
X31700Y-34900
X31700Y-35900
X32700Y-24500
X32700Y-25500
X32700Y-31900
X32700Y-32900
X32700Y-33900
X32700Y-34900
X32700Y-35900
X33700Y-24500
X33700Y-25500
X33700Y-31900
X33700Y-32900
X33700Y-33900
X33700Y-34900
X33700Y-35900
X34700Y-24500
X34700Y-25500
X34700Y-26500
X34700Y-31900
X34700Y-32900
X34700Y-34900
X34700Y-35900
X35400Y-26700
X35700Y-24500
X35700Y-34900
X35700Y-35900
X36700Y-24500
X36700Y-31900
X36700Y-32900
X36700Y-33900
X36700Y-34900
X36700Y-35900
X36900Y-26400
X36900Y-26900
X36900Y-27400
X36900Y-27900
X36900Y-28400
X36900Y-28900
X37300Y-26400
X37300Y-26900
X37300Y-27400
X37300Y-27900
X37300Y-28400
X37300Y-28900
X37300Y-29900
X37300Y-30900
X37700Y-28900
X37700Y-30400
X37700Y-31900
X37700Y-32900
X37700Y-33900
X37700Y-34900
X37700Y-35900
X38100Y-28900
X38100Y-29900
X38100Y-30900
X38700Y-31900
X38700Y-32900
X38700Y-33900
X38700Y-34900
X38700Y-35900
X39700Y-32900
X39700Y-33900
X39700Y-34900
X39700Y-35900
X40700Y-31900
X40700Y-32900
X40700Y-33900
X40700Y-34900
X40700Y-35900
X41700Y-31900
X41700Y-32900
X41700Y-33900
X41700Y-34900
X41700Y-35900
X42700Y-31900
X42700Y-32900
X42700Y-33900
X42700Y-34900
X42700Y-35900
X43700Y-31900
X43700Y-32900
X43700Y-33900
X43700Y-34900
X43700Y-35900
X43740Y-26063
X44700Y-31900
X44700Y-32900
X44700Y-33900
X44700Y-34900
X44700Y-35900
T2
X26000Y-28200
X26000Y-29200
X26000Y-30200
X26000Y-31200
X26800Y-25000
X26800Y-26000
X27900Y-19000
X28900Y-19000
X30400Y-19000
X31400Y-19000
X32900Y-19000
X33900Y-19000
T3
X26800Y-35200
T4
X27118Y-29012
X27118Y-33701
T5
X35500Y-20000
X35500Y-33701
T6
X35500Y-22126
X35500Y-31575
T0
M30
