G04 #@! TF.FileFunction,Paste,Top*
%FSLAX46Y46*%
G04 Gerber Fmt 4.6, Leading zero omitted, Abs format (unit mm)*
G04 Created by KiCad (PCBNEW 4.0.7) date 2018 January 03, Wednesday 22:06:31*
%MOMM*%
%LPD*%
G01*
G04 APERTURE LIST*
%ADD10C,0.100000*%
%ADD11R,1.000000X1.250000*%
%ADD12R,2.500000X1.000000*%
%ADD13R,1.250000X1.000000*%
%ADD14R,0.800000X0.750000*%
%ADD15R,0.700000X1.300000*%
%ADD16R,1.300000X0.700000*%
%ADD17R,1.100000X1.100000*%
%ADD18R,1.981200X0.558800*%
%ADD19R,2.705100X8.001000*%
%ADD20R,2.180400X1.630000*%
%ADD21R,1.630000X2.180400*%
G04 APERTURE END LIST*
D10*
D11*
X106950000Y-67818000D03*
X108950000Y-67818000D03*
D12*
X80772000Y-70080000D03*
X80772000Y-67080000D03*
X84328000Y-70080000D03*
X84328000Y-67080000D03*
D13*
X84074000Y-60722000D03*
X84074000Y-62722000D03*
X100076000Y-72120000D03*
X100076000Y-70120000D03*
X102616000Y-72120000D03*
X102616000Y-70120000D03*
D14*
X92214000Y-75387200D03*
X93714000Y-75387200D03*
D15*
X88458000Y-76962000D03*
X90358000Y-76962000D03*
X92014000Y-78841600D03*
X93914000Y-78841600D03*
X106360000Y-78740000D03*
X104460000Y-78740000D03*
X100396000Y-74422000D03*
X102296000Y-74422000D03*
D16*
X99822000Y-78806000D03*
X99822000Y-80706000D03*
D17*
X96142000Y-65024000D03*
X93342000Y-65024000D03*
D18*
X91770200Y-67945000D03*
X91770200Y-69215000D03*
X91770200Y-70485000D03*
X91770200Y-71755000D03*
X96697800Y-71755000D03*
X96697800Y-70485000D03*
X96697800Y-69215000D03*
X96697800Y-67945000D03*
D19*
X97904300Y-57404000D03*
X92595700Y-57404000D03*
D20*
X74009600Y-74930000D03*
X77724000Y-74930000D03*
D21*
X74422000Y-78232000D03*
X74422000Y-81946400D03*
M02*
