G04 #@! TF.FileFunction,Copper,L1,Top,Signal*
%FSLAX46Y46*%
G04 Gerber Fmt 4.6, Leading zero omitted, Abs format (unit mm)*
G04 Created by KiCad (PCBNEW 4.0.7) date 2018 January 03, Wednesday 22:06:31*
%MOMM*%
%LPD*%
G01*
G04 APERTURE LIST*
%ADD10C,0.100000*%
%ADD11C,0.508000*%
%ADD12R,1.000000X1.250000*%
%ADD13R,2.500000X1.000000*%
%ADD14R,1.250000X1.000000*%
%ADD15R,0.800000X0.750000*%
%ADD16R,1.700000X1.700000*%
%ADD17O,1.700000X1.700000*%
%ADD18R,0.700000X1.300000*%
%ADD19R,1.300000X0.700000*%
%ADD20R,1.100000X1.100000*%
%ADD21C,2.000000*%
%ADD22C,4.000000*%
%ADD23R,1.981200X0.558800*%
%ADD24R,2.705100X8.001000*%
%ADD25R,2.180400X1.630000*%
%ADD26R,1.630000X2.180400*%
%ADD27R,2.235200X2.235200*%
%ADD28C,0.381000*%
%ADD29C,0.609600*%
%ADD30C,0.254000*%
G04 APERTURE END LIST*
D10*
D11*
X95758000Y-77216000D03*
X94742000Y-78486000D03*
X96774000Y-78486000D03*
X96774000Y-75946000D03*
X94742000Y-75946000D03*
X94742000Y-67056000D03*
X93726000Y-67056000D03*
X96774000Y-73406000D03*
X95758000Y-73406000D03*
X94742000Y-73406000D03*
X94742000Y-72136000D03*
X94742000Y-70866000D03*
X94742000Y-69596000D03*
X93726000Y-73406000D03*
X93726000Y-72136000D03*
X93726000Y-70866000D03*
X93726000Y-69596000D03*
X94742000Y-68326000D03*
X93726000Y-68326000D03*
X113538000Y-91186000D03*
X110998000Y-91186000D03*
X108458000Y-91186000D03*
X105918000Y-91186000D03*
X103378000Y-91186000D03*
X100838000Y-91186000D03*
X98298000Y-91186000D03*
X95758000Y-91186000D03*
X93218000Y-91186000D03*
X90678000Y-91186000D03*
X88138000Y-91186000D03*
X85598000Y-91186000D03*
X83058000Y-91186000D03*
X80518000Y-91186000D03*
X77978000Y-91186000D03*
X75438000Y-91186000D03*
X72898000Y-91186000D03*
X70358000Y-91186000D03*
X67818000Y-91186000D03*
X65278000Y-91186000D03*
X113538000Y-88646000D03*
X110998000Y-88646000D03*
X108458000Y-88646000D03*
X105918000Y-88646000D03*
X103378000Y-88646000D03*
X100838000Y-88646000D03*
X98298000Y-88646000D03*
X95758000Y-88646000D03*
X93218000Y-88646000D03*
X90678000Y-88646000D03*
X88138000Y-88646000D03*
X85598000Y-88646000D03*
X83058000Y-88646000D03*
X80518000Y-88646000D03*
X77978000Y-88646000D03*
X75438000Y-88646000D03*
X72898000Y-88646000D03*
X70358000Y-88646000D03*
X65278000Y-88646000D03*
X113538000Y-86106000D03*
X110998000Y-86106000D03*
X108458000Y-86106000D03*
X105918000Y-86106000D03*
X103378000Y-86106000D03*
X100838000Y-86106000D03*
X98298000Y-86106000D03*
X95758000Y-86106000D03*
X93218000Y-86106000D03*
X85598000Y-86106000D03*
X83058000Y-86106000D03*
X80518000Y-86106000D03*
X77978000Y-86106000D03*
X75438000Y-86106000D03*
X65278000Y-86106000D03*
X113538000Y-83566000D03*
X110998000Y-83566000D03*
X108458000Y-83566000D03*
X105918000Y-83566000D03*
X103378000Y-83566000D03*
X100838000Y-83566000D03*
X98298000Y-83566000D03*
X95758000Y-83566000D03*
X93218000Y-83566000D03*
X88138000Y-83566000D03*
X85598000Y-83566000D03*
X83058000Y-83566000D03*
X80518000Y-83566000D03*
X77978000Y-83566000D03*
X75438000Y-83566000D03*
X72898000Y-83566000D03*
X70358000Y-83566000D03*
X67818000Y-83566000D03*
X65278000Y-83566000D03*
X113538000Y-81026000D03*
X110998000Y-81026000D03*
X108458000Y-81026000D03*
X105918000Y-81026000D03*
X103378000Y-81026000D03*
X98298000Y-81026000D03*
X95758000Y-81026000D03*
X93218000Y-81026000D03*
X90678000Y-81026000D03*
X88138000Y-81026000D03*
X85598000Y-81026000D03*
X83058000Y-81026000D03*
X80518000Y-81026000D03*
X77978000Y-81026000D03*
X72898000Y-81026000D03*
X70358000Y-81026000D03*
X67818000Y-81026000D03*
X65278000Y-81026000D03*
X88138000Y-67310000D03*
X77978000Y-67310000D03*
X75438000Y-67310000D03*
X70358000Y-67310000D03*
X65278000Y-67310000D03*
X88138000Y-64770000D03*
X85598000Y-64770000D03*
X83058000Y-64770000D03*
X80518000Y-64770000D03*
X77978000Y-64770000D03*
X75438000Y-64770000D03*
X72898000Y-64770000D03*
X70358000Y-64770000D03*
X65278000Y-64770000D03*
X93218000Y-62230000D03*
X90678000Y-62230000D03*
X88138000Y-62230000D03*
X85598000Y-62230000D03*
X83058000Y-62230000D03*
X80518000Y-62230000D03*
X77978000Y-62230000D03*
X75438000Y-62230000D03*
X72898000Y-62230000D03*
X70358000Y-62230000D03*
X67818000Y-62230000D03*
D12*
X106950000Y-67818000D03*
X108950000Y-67818000D03*
D13*
X80772000Y-70080000D03*
X80772000Y-67080000D03*
X84328000Y-70080000D03*
X84328000Y-67080000D03*
D14*
X84074000Y-60722000D03*
X84074000Y-62722000D03*
X100076000Y-72120000D03*
X100076000Y-70120000D03*
X102616000Y-72120000D03*
X102616000Y-70120000D03*
D15*
X92214000Y-75387200D03*
X93714000Y-75387200D03*
D16*
X68072000Y-66040000D03*
D17*
X68072000Y-63500000D03*
D16*
X83566000Y-48260000D03*
D17*
X86106000Y-48260000D03*
D18*
X88458000Y-76962000D03*
X90358000Y-76962000D03*
X92014000Y-78841600D03*
X93914000Y-78841600D03*
X106360000Y-78740000D03*
X104460000Y-78740000D03*
X100396000Y-74422000D03*
X102296000Y-74422000D03*
D19*
X99822000Y-78806000D03*
X99822000Y-80706000D03*
D20*
X96142000Y-65024000D03*
X93342000Y-65024000D03*
D16*
X66040000Y-71628000D03*
D17*
X66040000Y-74168000D03*
D16*
X77216000Y-48260000D03*
D17*
X79756000Y-48260000D03*
D16*
X70866000Y-48260000D03*
D17*
X73406000Y-48260000D03*
D16*
X66040000Y-79248000D03*
D17*
X66040000Y-76708000D03*
D21*
X68880000Y-73690000D03*
D22*
X90170000Y-85600000D03*
X90170000Y-50800000D03*
D21*
X68880000Y-85600000D03*
D11*
X65278000Y-62230000D03*
D23*
X91770200Y-67945000D03*
X91770200Y-69215000D03*
X91770200Y-70485000D03*
X91770200Y-71755000D03*
X96697800Y-71755000D03*
X96697800Y-70485000D03*
X96697800Y-69215000D03*
X96697800Y-67945000D03*
D24*
X97904300Y-57404000D03*
X92595700Y-57404000D03*
D25*
X74009600Y-74930000D03*
X77724000Y-74930000D03*
D26*
X74422000Y-78232000D03*
X74422000Y-81946400D03*
D27*
X68072000Y-89408000D03*
D28*
X74422000Y-84328000D03*
X110998000Y-67818000D03*
X89916000Y-67818000D03*
X73914000Y-72390000D03*
X76962000Y-72390000D03*
D29*
X100076000Y-70120000D02*
X102600000Y-70120000D01*
X102600000Y-70120000D02*
X102616000Y-70136000D01*
X96697800Y-69215000D02*
X99171000Y-69215000D01*
X99171000Y-69215000D02*
X100076000Y-70120000D01*
X74422000Y-84328000D02*
X74422000Y-81946400D01*
X68880000Y-85600000D02*
X68582000Y-85600000D01*
X74422000Y-82221600D02*
X74422000Y-81946400D01*
X108950000Y-67818000D02*
X110998000Y-67818000D01*
X91770200Y-67945000D02*
X90043000Y-67945000D01*
X90043000Y-67945000D02*
X89916000Y-67818000D01*
X66040000Y-74168000D02*
X66040000Y-76962000D01*
X106360000Y-78740000D02*
X112776000Y-78740000D01*
X114808000Y-47244000D02*
X113030000Y-45466000D01*
X112776000Y-78740000D02*
X114808000Y-76708000D01*
X114808000Y-76708000D02*
X114808000Y-47244000D01*
X113030000Y-45466000D02*
X78550400Y-45466000D01*
X78550400Y-45466000D02*
X77216000Y-46800400D01*
X77216000Y-46800400D02*
X77216000Y-48260000D01*
X96697800Y-70485000D02*
X98441000Y-70485000D01*
X98441000Y-70485000D02*
X100076000Y-72120000D01*
X100076000Y-72120000D02*
X100076000Y-74102000D01*
X100076000Y-74102000D02*
X100396000Y-74422000D01*
X102616000Y-72120000D02*
X102616000Y-74102000D01*
X102616000Y-74102000D02*
X102296000Y-74422000D01*
X91770200Y-71755000D02*
X91770200Y-74943400D01*
X91770200Y-74943400D02*
X92214000Y-75387200D01*
X73914000Y-72390000D02*
X73914000Y-74834400D01*
X73914000Y-74834400D02*
X74009600Y-74930000D01*
X74422000Y-78232000D02*
X74422000Y-75342400D01*
X74422000Y-75342400D02*
X74009600Y-74930000D01*
X76962000Y-72390000D02*
X76962000Y-74168000D01*
X76962000Y-74168000D02*
X77724000Y-74930000D01*
X91770200Y-70485000D02*
X90764358Y-70485000D01*
X90764358Y-70485000D02*
X90220799Y-71028559D01*
X90220799Y-71028559D02*
X90220799Y-75565199D01*
X90220799Y-75565199D02*
X90358000Y-75702400D01*
X90358000Y-75702400D02*
X90358000Y-76962000D01*
X90358000Y-76962000D02*
X90358000Y-77185600D01*
X90358000Y-77185600D02*
X92014000Y-78841600D01*
X90358000Y-76662000D02*
X90358000Y-76962000D01*
X99822000Y-78806000D02*
X104394000Y-78806000D01*
X104394000Y-78806000D02*
X104460000Y-78740000D01*
X98806000Y-73152000D02*
X98806000Y-76830400D01*
X98806000Y-76830400D02*
X99822000Y-77846400D01*
X99822000Y-77846400D02*
X99822000Y-78806000D01*
X96697800Y-71755000D02*
X97409000Y-71755000D01*
X97409000Y-71755000D02*
X98806000Y-73152000D01*
D30*
G36*
X95123000Y-61341000D02*
X64897000Y-61341000D01*
X64897000Y-51271532D01*
X87788587Y-51271532D01*
X88150309Y-52146966D01*
X88819511Y-52817337D01*
X89694312Y-53180586D01*
X90641532Y-53181413D01*
X91516966Y-52819691D01*
X92187337Y-52150489D01*
X92550586Y-51275688D01*
X92551413Y-50328468D01*
X92189691Y-49453034D01*
X91520489Y-48782663D01*
X90645688Y-48419414D01*
X89698468Y-48418587D01*
X88823034Y-48780309D01*
X88152663Y-49449511D01*
X87789414Y-50324312D01*
X87788587Y-51271532D01*
X64897000Y-51271532D01*
X64897000Y-48235883D01*
X72175000Y-48235883D01*
X72175000Y-48284117D01*
X72268704Y-48755200D01*
X72535552Y-49154565D01*
X72934917Y-49421413D01*
X73406000Y-49515117D01*
X73877083Y-49421413D01*
X74276448Y-49154565D01*
X74543296Y-48755200D01*
X74637000Y-48284117D01*
X74637000Y-48235883D01*
X78525000Y-48235883D01*
X78525000Y-48284117D01*
X78618704Y-48755200D01*
X78885552Y-49154565D01*
X79284917Y-49421413D01*
X79756000Y-49515117D01*
X80227083Y-49421413D01*
X80626448Y-49154565D01*
X80893296Y-48755200D01*
X80987000Y-48284117D01*
X80987000Y-48235883D01*
X80893296Y-47764800D01*
X80656226Y-47410000D01*
X82327536Y-47410000D01*
X82327536Y-49110000D01*
X82354103Y-49251190D01*
X82437546Y-49380865D01*
X82564866Y-49467859D01*
X82716000Y-49498464D01*
X84416000Y-49498464D01*
X84557190Y-49471897D01*
X84686865Y-49388454D01*
X84773859Y-49261134D01*
X84804464Y-49110000D01*
X84804464Y-48235883D01*
X84875000Y-48235883D01*
X84875000Y-48284117D01*
X84968704Y-48755200D01*
X85235552Y-49154565D01*
X85634917Y-49421413D01*
X86106000Y-49515117D01*
X86577083Y-49421413D01*
X86976448Y-49154565D01*
X87243296Y-48755200D01*
X87337000Y-48284117D01*
X87337000Y-48235883D01*
X87243296Y-47764800D01*
X86976448Y-47365435D01*
X86577083Y-47098587D01*
X86106000Y-47004883D01*
X85634917Y-47098587D01*
X85235552Y-47365435D01*
X84968704Y-47764800D01*
X84875000Y-48235883D01*
X84804464Y-48235883D01*
X84804464Y-47410000D01*
X84777897Y-47268810D01*
X84694454Y-47139135D01*
X84567134Y-47052141D01*
X84416000Y-47021536D01*
X82716000Y-47021536D01*
X82574810Y-47048103D01*
X82445135Y-47131546D01*
X82358141Y-47258866D01*
X82327536Y-47410000D01*
X80656226Y-47410000D01*
X80626448Y-47365435D01*
X80227083Y-47098587D01*
X79756000Y-47004883D01*
X79284917Y-47098587D01*
X78885552Y-47365435D01*
X78618704Y-47764800D01*
X78525000Y-48235883D01*
X74637000Y-48235883D01*
X74543296Y-47764800D01*
X74276448Y-47365435D01*
X73877083Y-47098587D01*
X73406000Y-47004883D01*
X72934917Y-47098587D01*
X72535552Y-47365435D01*
X72268704Y-47764800D01*
X72175000Y-48235883D01*
X64897000Y-48235883D01*
X64897000Y-46609000D01*
X95123000Y-46609000D01*
X95123000Y-61341000D01*
X95123000Y-61341000D01*
G37*
X95123000Y-61341000D02*
X64897000Y-61341000D01*
X64897000Y-51271532D01*
X87788587Y-51271532D01*
X88150309Y-52146966D01*
X88819511Y-52817337D01*
X89694312Y-53180586D01*
X90641532Y-53181413D01*
X91516966Y-52819691D01*
X92187337Y-52150489D01*
X92550586Y-51275688D01*
X92551413Y-50328468D01*
X92189691Y-49453034D01*
X91520489Y-48782663D01*
X90645688Y-48419414D01*
X89698468Y-48418587D01*
X88823034Y-48780309D01*
X88152663Y-49449511D01*
X87789414Y-50324312D01*
X87788587Y-51271532D01*
X64897000Y-51271532D01*
X64897000Y-48235883D01*
X72175000Y-48235883D01*
X72175000Y-48284117D01*
X72268704Y-48755200D01*
X72535552Y-49154565D01*
X72934917Y-49421413D01*
X73406000Y-49515117D01*
X73877083Y-49421413D01*
X74276448Y-49154565D01*
X74543296Y-48755200D01*
X74637000Y-48284117D01*
X74637000Y-48235883D01*
X78525000Y-48235883D01*
X78525000Y-48284117D01*
X78618704Y-48755200D01*
X78885552Y-49154565D01*
X79284917Y-49421413D01*
X79756000Y-49515117D01*
X80227083Y-49421413D01*
X80626448Y-49154565D01*
X80893296Y-48755200D01*
X80987000Y-48284117D01*
X80987000Y-48235883D01*
X80893296Y-47764800D01*
X80656226Y-47410000D01*
X82327536Y-47410000D01*
X82327536Y-49110000D01*
X82354103Y-49251190D01*
X82437546Y-49380865D01*
X82564866Y-49467859D01*
X82716000Y-49498464D01*
X84416000Y-49498464D01*
X84557190Y-49471897D01*
X84686865Y-49388454D01*
X84773859Y-49261134D01*
X84804464Y-49110000D01*
X84804464Y-48235883D01*
X84875000Y-48235883D01*
X84875000Y-48284117D01*
X84968704Y-48755200D01*
X85235552Y-49154565D01*
X85634917Y-49421413D01*
X86106000Y-49515117D01*
X86577083Y-49421413D01*
X86976448Y-49154565D01*
X87243296Y-48755200D01*
X87337000Y-48284117D01*
X87337000Y-48235883D01*
X87243296Y-47764800D01*
X86976448Y-47365435D01*
X86577083Y-47098587D01*
X86106000Y-47004883D01*
X85634917Y-47098587D01*
X85235552Y-47365435D01*
X84968704Y-47764800D01*
X84875000Y-48235883D01*
X84804464Y-48235883D01*
X84804464Y-47410000D01*
X84777897Y-47268810D01*
X84694454Y-47139135D01*
X84567134Y-47052141D01*
X84416000Y-47021536D01*
X82716000Y-47021536D01*
X82574810Y-47048103D01*
X82445135Y-47131546D01*
X82358141Y-47258866D01*
X82327536Y-47410000D01*
X80656226Y-47410000D01*
X80626448Y-47365435D01*
X80227083Y-47098587D01*
X79756000Y-47004883D01*
X79284917Y-47098587D01*
X78885552Y-47365435D01*
X78618704Y-47764800D01*
X78525000Y-48235883D01*
X74637000Y-48235883D01*
X74543296Y-47764800D01*
X74276448Y-47365435D01*
X73877083Y-47098587D01*
X73406000Y-47004883D01*
X72934917Y-47098587D01*
X72535552Y-47365435D01*
X72268704Y-47764800D01*
X72175000Y-48235883D01*
X64897000Y-48235883D01*
X64897000Y-46609000D01*
X95123000Y-46609000D01*
X95123000Y-61341000D01*
G36*
X107823000Y-68453000D02*
X95631000Y-68453000D01*
X95631000Y-49657000D01*
X107823000Y-49657000D01*
X107823000Y-68453000D01*
X107823000Y-68453000D01*
G37*
X107823000Y-68453000D02*
X95631000Y-68453000D01*
X95631000Y-49657000D01*
X107823000Y-49657000D01*
X107823000Y-68453000D01*
G36*
X95123000Y-68834000D02*
X95133006Y-68883410D01*
X95161447Y-68925035D01*
X95203841Y-68952315D01*
X95250000Y-68961000D01*
X97663000Y-68961000D01*
X97663000Y-69469000D01*
X95504000Y-69469000D01*
X95454590Y-69479006D01*
X95412965Y-69507447D01*
X95385685Y-69549841D01*
X95377000Y-69596000D01*
X95377000Y-70013986D01*
X95349341Y-70054466D01*
X95318736Y-70205600D01*
X95318736Y-70764400D01*
X95345303Y-70905590D01*
X95377000Y-70954849D01*
X95377000Y-71283986D01*
X95349341Y-71324466D01*
X95318736Y-71475600D01*
X95318736Y-72034400D01*
X95345303Y-72175590D01*
X95377000Y-72224849D01*
X95377000Y-72898000D01*
X95387006Y-72947410D01*
X95415447Y-72989035D01*
X95457841Y-73016315D01*
X95504000Y-73025000D01*
X97155000Y-73025000D01*
X97155000Y-80010000D01*
X97165006Y-80059410D01*
X97193447Y-80101035D01*
X97235841Y-80128315D01*
X97282000Y-80137000D01*
X114681000Y-80137000D01*
X114681000Y-91567000D01*
X64897000Y-91567000D01*
X64897000Y-88290400D01*
X66565936Y-88290400D01*
X66565936Y-90525600D01*
X66592503Y-90666790D01*
X66675946Y-90796465D01*
X66803266Y-90883459D01*
X66954400Y-90914064D01*
X69189600Y-90914064D01*
X69330790Y-90887497D01*
X69460465Y-90804054D01*
X69547459Y-90676734D01*
X69578064Y-90525600D01*
X69578064Y-88290400D01*
X69551497Y-88149210D01*
X69468054Y-88019535D01*
X69340734Y-87932541D01*
X69189600Y-87901936D01*
X66954400Y-87901936D01*
X66813210Y-87928503D01*
X66683535Y-88011946D01*
X66596541Y-88139266D01*
X66565936Y-88290400D01*
X64897000Y-88290400D01*
X64897000Y-85873493D01*
X67498761Y-85873493D01*
X67708563Y-86381251D01*
X68096705Y-86770072D01*
X68604097Y-86980759D01*
X69153493Y-86981239D01*
X69661251Y-86771437D01*
X70050072Y-86383295D01*
X70179526Y-86071532D01*
X87788587Y-86071532D01*
X88150309Y-86946966D01*
X88819511Y-87617337D01*
X89694312Y-87980586D01*
X90641532Y-87981413D01*
X91516966Y-87619691D01*
X92187337Y-86950489D01*
X92550586Y-86075688D01*
X92551413Y-85128468D01*
X92189691Y-84253034D01*
X91520489Y-83582663D01*
X90645688Y-83219414D01*
X89698468Y-83218587D01*
X88823034Y-83580309D01*
X88152663Y-84249511D01*
X87789414Y-85124312D01*
X87788587Y-86071532D01*
X70179526Y-86071532D01*
X70260759Y-85875903D01*
X70261239Y-85326507D01*
X70051437Y-84818749D01*
X69663295Y-84429928D01*
X69155903Y-84219241D01*
X68606507Y-84218761D01*
X68098749Y-84428563D01*
X67709928Y-84816705D01*
X67499241Y-85324097D01*
X67498761Y-85873493D01*
X64897000Y-85873493D01*
X64897000Y-80856200D01*
X73218536Y-80856200D01*
X73218536Y-83036600D01*
X73245103Y-83177790D01*
X73328546Y-83307465D01*
X73455866Y-83394459D01*
X73607000Y-83425064D01*
X73736200Y-83425064D01*
X73736200Y-84328000D01*
X73788403Y-84590444D01*
X73937066Y-84812934D01*
X74159556Y-84961597D01*
X74422000Y-85013800D01*
X74684444Y-84961597D01*
X74906934Y-84812934D01*
X75055597Y-84590444D01*
X75107800Y-84328000D01*
X75107800Y-83425064D01*
X75237000Y-83425064D01*
X75378190Y-83398497D01*
X75507865Y-83315054D01*
X75594859Y-83187734D01*
X75625464Y-83036600D01*
X75625464Y-80856200D01*
X75598897Y-80715010D01*
X75515454Y-80585335D01*
X75388134Y-80498341D01*
X75237000Y-80467736D01*
X73607000Y-80467736D01*
X73465810Y-80494303D01*
X73336135Y-80577746D01*
X73249141Y-80705066D01*
X73218536Y-80856200D01*
X64897000Y-80856200D01*
X64897000Y-80137000D01*
X93218000Y-80137000D01*
X93267410Y-80126994D01*
X93309035Y-80098553D01*
X93336315Y-80056159D01*
X93345000Y-80010000D01*
X93345000Y-67056000D01*
X93334994Y-67006590D01*
X93306553Y-66964965D01*
X93264159Y-66937685D01*
X93218000Y-66929000D01*
X89154000Y-66929000D01*
X89104590Y-66939006D01*
X89062965Y-66967447D01*
X89035685Y-67009841D01*
X89027000Y-67056000D01*
X89027000Y-68453000D01*
X64897000Y-68453000D01*
X64897000Y-65190000D01*
X66833536Y-65190000D01*
X66833536Y-66890000D01*
X66860103Y-67031190D01*
X66943546Y-67160865D01*
X67070866Y-67247859D01*
X67222000Y-67278464D01*
X68922000Y-67278464D01*
X69063190Y-67251897D01*
X69192865Y-67168454D01*
X69279859Y-67041134D01*
X69310464Y-66890000D01*
X69310464Y-65190000D01*
X69283897Y-65048810D01*
X69200454Y-64919135D01*
X69073134Y-64832141D01*
X68922000Y-64801536D01*
X67222000Y-64801536D01*
X67080810Y-64828103D01*
X66951135Y-64911546D01*
X66864141Y-65038866D01*
X66833536Y-65190000D01*
X64897000Y-65190000D01*
X64897000Y-61849000D01*
X95123000Y-61849000D01*
X95123000Y-68834000D01*
X95123000Y-68834000D01*
G37*
X95123000Y-68834000D02*
X95133006Y-68883410D01*
X95161447Y-68925035D01*
X95203841Y-68952315D01*
X95250000Y-68961000D01*
X97663000Y-68961000D01*
X97663000Y-69469000D01*
X95504000Y-69469000D01*
X95454590Y-69479006D01*
X95412965Y-69507447D01*
X95385685Y-69549841D01*
X95377000Y-69596000D01*
X95377000Y-70013986D01*
X95349341Y-70054466D01*
X95318736Y-70205600D01*
X95318736Y-70764400D01*
X95345303Y-70905590D01*
X95377000Y-70954849D01*
X95377000Y-71283986D01*
X95349341Y-71324466D01*
X95318736Y-71475600D01*
X95318736Y-72034400D01*
X95345303Y-72175590D01*
X95377000Y-72224849D01*
X95377000Y-72898000D01*
X95387006Y-72947410D01*
X95415447Y-72989035D01*
X95457841Y-73016315D01*
X95504000Y-73025000D01*
X97155000Y-73025000D01*
X97155000Y-80010000D01*
X97165006Y-80059410D01*
X97193447Y-80101035D01*
X97235841Y-80128315D01*
X97282000Y-80137000D01*
X114681000Y-80137000D01*
X114681000Y-91567000D01*
X64897000Y-91567000D01*
X64897000Y-88290400D01*
X66565936Y-88290400D01*
X66565936Y-90525600D01*
X66592503Y-90666790D01*
X66675946Y-90796465D01*
X66803266Y-90883459D01*
X66954400Y-90914064D01*
X69189600Y-90914064D01*
X69330790Y-90887497D01*
X69460465Y-90804054D01*
X69547459Y-90676734D01*
X69578064Y-90525600D01*
X69578064Y-88290400D01*
X69551497Y-88149210D01*
X69468054Y-88019535D01*
X69340734Y-87932541D01*
X69189600Y-87901936D01*
X66954400Y-87901936D01*
X66813210Y-87928503D01*
X66683535Y-88011946D01*
X66596541Y-88139266D01*
X66565936Y-88290400D01*
X64897000Y-88290400D01*
X64897000Y-85873493D01*
X67498761Y-85873493D01*
X67708563Y-86381251D01*
X68096705Y-86770072D01*
X68604097Y-86980759D01*
X69153493Y-86981239D01*
X69661251Y-86771437D01*
X70050072Y-86383295D01*
X70179526Y-86071532D01*
X87788587Y-86071532D01*
X88150309Y-86946966D01*
X88819511Y-87617337D01*
X89694312Y-87980586D01*
X90641532Y-87981413D01*
X91516966Y-87619691D01*
X92187337Y-86950489D01*
X92550586Y-86075688D01*
X92551413Y-85128468D01*
X92189691Y-84253034D01*
X91520489Y-83582663D01*
X90645688Y-83219414D01*
X89698468Y-83218587D01*
X88823034Y-83580309D01*
X88152663Y-84249511D01*
X87789414Y-85124312D01*
X87788587Y-86071532D01*
X70179526Y-86071532D01*
X70260759Y-85875903D01*
X70261239Y-85326507D01*
X70051437Y-84818749D01*
X69663295Y-84429928D01*
X69155903Y-84219241D01*
X68606507Y-84218761D01*
X68098749Y-84428563D01*
X67709928Y-84816705D01*
X67499241Y-85324097D01*
X67498761Y-85873493D01*
X64897000Y-85873493D01*
X64897000Y-80856200D01*
X73218536Y-80856200D01*
X73218536Y-83036600D01*
X73245103Y-83177790D01*
X73328546Y-83307465D01*
X73455866Y-83394459D01*
X73607000Y-83425064D01*
X73736200Y-83425064D01*
X73736200Y-84328000D01*
X73788403Y-84590444D01*
X73937066Y-84812934D01*
X74159556Y-84961597D01*
X74422000Y-85013800D01*
X74684444Y-84961597D01*
X74906934Y-84812934D01*
X75055597Y-84590444D01*
X75107800Y-84328000D01*
X75107800Y-83425064D01*
X75237000Y-83425064D01*
X75378190Y-83398497D01*
X75507865Y-83315054D01*
X75594859Y-83187734D01*
X75625464Y-83036600D01*
X75625464Y-80856200D01*
X75598897Y-80715010D01*
X75515454Y-80585335D01*
X75388134Y-80498341D01*
X75237000Y-80467736D01*
X73607000Y-80467736D01*
X73465810Y-80494303D01*
X73336135Y-80577746D01*
X73249141Y-80705066D01*
X73218536Y-80856200D01*
X64897000Y-80856200D01*
X64897000Y-80137000D01*
X93218000Y-80137000D01*
X93267410Y-80126994D01*
X93309035Y-80098553D01*
X93336315Y-80056159D01*
X93345000Y-80010000D01*
X93345000Y-67056000D01*
X93334994Y-67006590D01*
X93306553Y-66964965D01*
X93264159Y-66937685D01*
X93218000Y-66929000D01*
X89154000Y-66929000D01*
X89104590Y-66939006D01*
X89062965Y-66967447D01*
X89035685Y-67009841D01*
X89027000Y-67056000D01*
X89027000Y-68453000D01*
X64897000Y-68453000D01*
X64897000Y-65190000D01*
X66833536Y-65190000D01*
X66833536Y-66890000D01*
X66860103Y-67031190D01*
X66943546Y-67160865D01*
X67070866Y-67247859D01*
X67222000Y-67278464D01*
X68922000Y-67278464D01*
X69063190Y-67251897D01*
X69192865Y-67168454D01*
X69279859Y-67041134D01*
X69310464Y-66890000D01*
X69310464Y-65190000D01*
X69283897Y-65048810D01*
X69200454Y-64919135D01*
X69073134Y-64832141D01*
X68922000Y-64801536D01*
X67222000Y-64801536D01*
X67080810Y-64828103D01*
X66951135Y-64911546D01*
X66864141Y-65038866D01*
X66833536Y-65190000D01*
X64897000Y-65190000D01*
X64897000Y-61849000D01*
X95123000Y-61849000D01*
X95123000Y-68834000D01*
G36*
X92837000Y-69469000D02*
X90678000Y-69469000D01*
X90628590Y-69479006D01*
X90588197Y-69506197D01*
X89572197Y-70522197D01*
X89544334Y-70564211D01*
X89535000Y-70612000D01*
X89535000Y-71028554D01*
X89534999Y-71028559D01*
X89534999Y-75565199D01*
X89535000Y-75565204D01*
X89535000Y-79629000D01*
X75463814Y-79629000D01*
X75507865Y-79600654D01*
X75594859Y-79473334D01*
X75625464Y-79322200D01*
X75625464Y-77141800D01*
X75598897Y-77000610D01*
X75515454Y-76870935D01*
X75388134Y-76783941D01*
X75237000Y-76753336D01*
X75107800Y-76753336D01*
X75107800Y-76131959D01*
X75240990Y-76106897D01*
X75370665Y-76023454D01*
X75457659Y-75896134D01*
X75488264Y-75745000D01*
X75488264Y-74115000D01*
X76245336Y-74115000D01*
X76245336Y-75745000D01*
X76271903Y-75886190D01*
X76355346Y-76015865D01*
X76482666Y-76102859D01*
X76633800Y-76133464D01*
X78814200Y-76133464D01*
X78955390Y-76106897D01*
X79085065Y-76023454D01*
X79172059Y-75896134D01*
X79202664Y-75745000D01*
X79202664Y-74115000D01*
X79176097Y-73973810D01*
X79092654Y-73844135D01*
X78965334Y-73757141D01*
X78814200Y-73726536D01*
X77647800Y-73726536D01*
X77647800Y-72390000D01*
X77595597Y-72127556D01*
X77446934Y-71905066D01*
X77224444Y-71756403D01*
X76962000Y-71704200D01*
X76699556Y-71756403D01*
X76477066Y-71905066D01*
X76328403Y-72127556D01*
X76276200Y-72390000D01*
X76276200Y-73963487D01*
X76275941Y-73963866D01*
X76245336Y-74115000D01*
X75488264Y-74115000D01*
X75461697Y-73973810D01*
X75378254Y-73844135D01*
X75250934Y-73757141D01*
X75099800Y-73726536D01*
X74599800Y-73726536D01*
X74599800Y-72390000D01*
X74547597Y-72127556D01*
X74398934Y-71905066D01*
X74176444Y-71756403D01*
X73914000Y-71704200D01*
X73651556Y-71756403D01*
X73429066Y-71905066D01*
X73280403Y-72127556D01*
X73228200Y-72390000D01*
X73228200Y-73726536D01*
X72919400Y-73726536D01*
X72778210Y-73753103D01*
X72648535Y-73836546D01*
X72561541Y-73963866D01*
X72530936Y-74115000D01*
X72530936Y-75745000D01*
X72557503Y-75886190D01*
X72640946Y-76015865D01*
X72768266Y-76102859D01*
X72919400Y-76133464D01*
X73736200Y-76133464D01*
X73736200Y-76753336D01*
X73607000Y-76753336D01*
X73465810Y-76779903D01*
X73336135Y-76863346D01*
X73249141Y-76990666D01*
X73218536Y-77141800D01*
X73218536Y-79322200D01*
X73245103Y-79463390D01*
X73328546Y-79593065D01*
X73381139Y-79629000D01*
X67278464Y-79629000D01*
X67278464Y-78398000D01*
X67251897Y-78256810D01*
X67168454Y-78127135D01*
X67041134Y-78040141D01*
X66890000Y-78009536D01*
X65190000Y-78009536D01*
X65048810Y-78036103D01*
X64919135Y-78119546D01*
X64897000Y-78151942D01*
X64897000Y-73963493D01*
X67498761Y-73963493D01*
X67708563Y-74471251D01*
X68096705Y-74860072D01*
X68604097Y-75070759D01*
X69153493Y-75071239D01*
X69661251Y-74861437D01*
X70050072Y-74473295D01*
X70260759Y-73965903D01*
X70261239Y-73416507D01*
X70051437Y-72908749D01*
X69663295Y-72519928D01*
X69155903Y-72309241D01*
X68606507Y-72308761D01*
X68098749Y-72518563D01*
X67709928Y-72906705D01*
X67499241Y-73414097D01*
X67498761Y-73963493D01*
X64897000Y-73963493D01*
X64897000Y-72726260D01*
X64911546Y-72748865D01*
X65038866Y-72835859D01*
X65190000Y-72866464D01*
X66890000Y-72866464D01*
X67031190Y-72839897D01*
X67160865Y-72756454D01*
X67247859Y-72629134D01*
X67278464Y-72478000D01*
X67278464Y-70778000D01*
X67251897Y-70636810D01*
X67168454Y-70507135D01*
X67041134Y-70420141D01*
X66890000Y-70389536D01*
X65190000Y-70389536D01*
X65048810Y-70416103D01*
X64919135Y-70499546D01*
X64897000Y-70531942D01*
X64897000Y-68961000D01*
X92837000Y-68961000D01*
X92837000Y-69469000D01*
X92837000Y-69469000D01*
G37*
X92837000Y-69469000D02*
X90678000Y-69469000D01*
X90628590Y-69479006D01*
X90588197Y-69506197D01*
X89572197Y-70522197D01*
X89544334Y-70564211D01*
X89535000Y-70612000D01*
X89535000Y-71028554D01*
X89534999Y-71028559D01*
X89534999Y-75565199D01*
X89535000Y-75565204D01*
X89535000Y-79629000D01*
X75463814Y-79629000D01*
X75507865Y-79600654D01*
X75594859Y-79473334D01*
X75625464Y-79322200D01*
X75625464Y-77141800D01*
X75598897Y-77000610D01*
X75515454Y-76870935D01*
X75388134Y-76783941D01*
X75237000Y-76753336D01*
X75107800Y-76753336D01*
X75107800Y-76131959D01*
X75240990Y-76106897D01*
X75370665Y-76023454D01*
X75457659Y-75896134D01*
X75488264Y-75745000D01*
X75488264Y-74115000D01*
X76245336Y-74115000D01*
X76245336Y-75745000D01*
X76271903Y-75886190D01*
X76355346Y-76015865D01*
X76482666Y-76102859D01*
X76633800Y-76133464D01*
X78814200Y-76133464D01*
X78955390Y-76106897D01*
X79085065Y-76023454D01*
X79172059Y-75896134D01*
X79202664Y-75745000D01*
X79202664Y-74115000D01*
X79176097Y-73973810D01*
X79092654Y-73844135D01*
X78965334Y-73757141D01*
X78814200Y-73726536D01*
X77647800Y-73726536D01*
X77647800Y-72390000D01*
X77595597Y-72127556D01*
X77446934Y-71905066D01*
X77224444Y-71756403D01*
X76962000Y-71704200D01*
X76699556Y-71756403D01*
X76477066Y-71905066D01*
X76328403Y-72127556D01*
X76276200Y-72390000D01*
X76276200Y-73963487D01*
X76275941Y-73963866D01*
X76245336Y-74115000D01*
X75488264Y-74115000D01*
X75461697Y-73973810D01*
X75378254Y-73844135D01*
X75250934Y-73757141D01*
X75099800Y-73726536D01*
X74599800Y-73726536D01*
X74599800Y-72390000D01*
X74547597Y-72127556D01*
X74398934Y-71905066D01*
X74176444Y-71756403D01*
X73914000Y-71704200D01*
X73651556Y-71756403D01*
X73429066Y-71905066D01*
X73280403Y-72127556D01*
X73228200Y-72390000D01*
X73228200Y-73726536D01*
X72919400Y-73726536D01*
X72778210Y-73753103D01*
X72648535Y-73836546D01*
X72561541Y-73963866D01*
X72530936Y-74115000D01*
X72530936Y-75745000D01*
X72557503Y-75886190D01*
X72640946Y-76015865D01*
X72768266Y-76102859D01*
X72919400Y-76133464D01*
X73736200Y-76133464D01*
X73736200Y-76753336D01*
X73607000Y-76753336D01*
X73465810Y-76779903D01*
X73336135Y-76863346D01*
X73249141Y-76990666D01*
X73218536Y-77141800D01*
X73218536Y-79322200D01*
X73245103Y-79463390D01*
X73328546Y-79593065D01*
X73381139Y-79629000D01*
X67278464Y-79629000D01*
X67278464Y-78398000D01*
X67251897Y-78256810D01*
X67168454Y-78127135D01*
X67041134Y-78040141D01*
X66890000Y-78009536D01*
X65190000Y-78009536D01*
X65048810Y-78036103D01*
X64919135Y-78119546D01*
X64897000Y-78151942D01*
X64897000Y-73963493D01*
X67498761Y-73963493D01*
X67708563Y-74471251D01*
X68096705Y-74860072D01*
X68604097Y-75070759D01*
X69153493Y-75071239D01*
X69661251Y-74861437D01*
X70050072Y-74473295D01*
X70260759Y-73965903D01*
X70261239Y-73416507D01*
X70051437Y-72908749D01*
X69663295Y-72519928D01*
X69155903Y-72309241D01*
X68606507Y-72308761D01*
X68098749Y-72518563D01*
X67709928Y-72906705D01*
X67499241Y-73414097D01*
X67498761Y-73963493D01*
X64897000Y-73963493D01*
X64897000Y-72726260D01*
X64911546Y-72748865D01*
X65038866Y-72835859D01*
X65190000Y-72866464D01*
X66890000Y-72866464D01*
X67031190Y-72839897D01*
X67160865Y-72756454D01*
X67247859Y-72629134D01*
X67278464Y-72478000D01*
X67278464Y-70778000D01*
X67251897Y-70636810D01*
X67168454Y-70507135D01*
X67041134Y-70420141D01*
X66890000Y-70389536D01*
X65190000Y-70389536D01*
X65048810Y-70416103D01*
X64919135Y-70499546D01*
X64897000Y-70531942D01*
X64897000Y-68961000D01*
X92837000Y-68961000D01*
X92837000Y-69469000D01*
M02*
