G04 #@! TF.FileFunction,Legend,Top*
%FSLAX46Y46*%
G04 Gerber Fmt 4.6, Leading zero omitted, Abs format (unit mm)*
G04 Created by KiCad (PCBNEW 4.0.7) date 2018 January 03, Wednesday 22:06:31*
%MOMM*%
%LPD*%
G01*
G04 APERTURE LIST*
%ADD10C,0.100000*%
%ADD11C,0.127000*%
%ADD12C,0.150000*%
%ADD13C,0.120000*%
%ADD14C,0.152400*%
%ADD15C,0.010000*%
G04 APERTURE END LIST*
D10*
D11*
X104648000Y-90514714D02*
X104648000Y-90115571D01*
X104611714Y-90043000D01*
X104539143Y-90006714D01*
X104394000Y-90006714D01*
X104321429Y-90043000D01*
X104648000Y-90478429D02*
X104575429Y-90514714D01*
X104394000Y-90514714D01*
X104321429Y-90478429D01*
X104285143Y-90405857D01*
X104285143Y-90333286D01*
X104321429Y-90260714D01*
X104394000Y-90224429D01*
X104575429Y-90224429D01*
X104648000Y-90188143D01*
X105010858Y-90006714D02*
X105010858Y-90514714D01*
X105010858Y-90079286D02*
X105047143Y-90043000D01*
X105119715Y-90006714D01*
X105228572Y-90006714D01*
X105301143Y-90043000D01*
X105337429Y-90115571D01*
X105337429Y-90514714D01*
X106026858Y-90514714D02*
X106026858Y-89752714D01*
X106026858Y-90478429D02*
X105954287Y-90514714D01*
X105809144Y-90514714D01*
X105736572Y-90478429D01*
X105700287Y-90442143D01*
X105664001Y-90369571D01*
X105664001Y-90151857D01*
X105700287Y-90079286D01*
X105736572Y-90043000D01*
X105809144Y-90006714D01*
X105954287Y-90006714D01*
X106026858Y-90043000D01*
X106861429Y-89752714D02*
X107296858Y-89752714D01*
X107079144Y-90514714D02*
X107079144Y-89752714D01*
X107550858Y-90514714D02*
X107550858Y-89752714D01*
X108421714Y-89752714D02*
X108603143Y-90514714D01*
X108748286Y-89970429D01*
X108893428Y-90514714D01*
X109074857Y-89752714D01*
X109655428Y-90478429D02*
X109582857Y-90514714D01*
X109437714Y-90514714D01*
X109365143Y-90478429D01*
X109328857Y-90405857D01*
X109328857Y-90115571D01*
X109365143Y-90043000D01*
X109437714Y-90006714D01*
X109582857Y-90006714D01*
X109655428Y-90043000D01*
X109691714Y-90115571D01*
X109691714Y-90188143D01*
X109328857Y-90260714D01*
X110018286Y-90514714D02*
X110018286Y-89752714D01*
X110018286Y-90043000D02*
X110090857Y-90006714D01*
X110236000Y-90006714D01*
X110308571Y-90043000D01*
X110344857Y-90079286D01*
X110381143Y-90151857D01*
X110381143Y-90369571D01*
X110344857Y-90442143D01*
X110308571Y-90478429D01*
X110236000Y-90514714D01*
X110090857Y-90514714D01*
X110018286Y-90478429D01*
X110998000Y-90478429D02*
X110925429Y-90514714D01*
X110780286Y-90514714D01*
X110707715Y-90478429D01*
X110671429Y-90405857D01*
X110671429Y-90115571D01*
X110707715Y-90043000D01*
X110780286Y-90006714D01*
X110925429Y-90006714D01*
X110998000Y-90043000D01*
X111034286Y-90115571D01*
X111034286Y-90188143D01*
X110671429Y-90260714D01*
X111360858Y-90006714D02*
X111360858Y-90514714D01*
X111360858Y-90079286D02*
X111397143Y-90043000D01*
X111469715Y-90006714D01*
X111578572Y-90006714D01*
X111651143Y-90043000D01*
X111687429Y-90115571D01*
X111687429Y-90514714D01*
X112376858Y-90478429D02*
X112304287Y-90514714D01*
X112159144Y-90514714D01*
X112086572Y-90478429D01*
X112050287Y-90442143D01*
X112014001Y-90369571D01*
X112014001Y-90151857D01*
X112050287Y-90079286D01*
X112086572Y-90043000D01*
X112159144Y-90006714D01*
X112304287Y-90006714D01*
X112376858Y-90043000D01*
X112703430Y-90514714D02*
X112703430Y-89752714D01*
X113030001Y-90514714D02*
X113030001Y-90115571D01*
X112993715Y-90043000D01*
X112921144Y-90006714D01*
X112812287Y-90006714D01*
X112739715Y-90043000D01*
X112703430Y-90079286D01*
X114009716Y-89934143D02*
X113937144Y-89897857D01*
X113792001Y-89897857D01*
X113719430Y-89934143D01*
X113646859Y-90006714D01*
X113610573Y-90079286D01*
X113610573Y-90224429D01*
X113646859Y-90297000D01*
X113719430Y-90369571D01*
X113792001Y-90405857D01*
X113937144Y-90405857D01*
X114009716Y-90369571D01*
X113864573Y-89643857D02*
X113683144Y-89680143D01*
X113501716Y-89789000D01*
X113392859Y-89970429D01*
X113356573Y-90151857D01*
X113392859Y-90333286D01*
X113501716Y-90514714D01*
X113683144Y-90623571D01*
X113864573Y-90659857D01*
X114046001Y-90623571D01*
X114227430Y-90514714D01*
X114336287Y-90333286D01*
X114372573Y-90151857D01*
X114336287Y-89970429D01*
X114227430Y-89789000D01*
X114046001Y-89680143D01*
X113864573Y-89643857D01*
X86686571Y-50691143D02*
X85525428Y-50691143D01*
X80336571Y-50691143D02*
X79175428Y-50691143D01*
X73986571Y-50691143D02*
X72825428Y-50691143D01*
X70974857Y-64080571D02*
X70974857Y-62919428D01*
X100112286Y-46572714D02*
X99749429Y-46572714D01*
X99749429Y-45810714D01*
X100656571Y-46536429D02*
X100584000Y-46572714D01*
X100438857Y-46572714D01*
X100366286Y-46536429D01*
X100330000Y-46463857D01*
X100330000Y-46173571D01*
X100366286Y-46101000D01*
X100438857Y-46064714D01*
X100584000Y-46064714D01*
X100656571Y-46101000D01*
X100692857Y-46173571D01*
X100692857Y-46246143D01*
X100330000Y-46318714D01*
X101346000Y-46572714D02*
X101346000Y-46173571D01*
X101309714Y-46101000D01*
X101237143Y-46064714D01*
X101092000Y-46064714D01*
X101019429Y-46101000D01*
X101346000Y-46536429D02*
X101273429Y-46572714D01*
X101092000Y-46572714D01*
X101019429Y-46536429D01*
X100983143Y-46463857D01*
X100983143Y-46391286D01*
X101019429Y-46318714D01*
X101092000Y-46282429D01*
X101273429Y-46282429D01*
X101346000Y-46246143D01*
X101636286Y-46064714D02*
X101781429Y-46572714D01*
X101926572Y-46209857D01*
X102071715Y-46572714D01*
X102216858Y-46064714D01*
X102616001Y-46572714D02*
X102543429Y-46536429D01*
X102507144Y-46500143D01*
X102470858Y-46427571D01*
X102470858Y-46209857D01*
X102507144Y-46137286D01*
X102543429Y-46101000D01*
X102616001Y-46064714D01*
X102724858Y-46064714D01*
X102797429Y-46101000D01*
X102833715Y-46137286D01*
X102870001Y-46209857D01*
X102870001Y-46427571D01*
X102833715Y-46500143D01*
X102797429Y-46536429D01*
X102724858Y-46572714D01*
X102616001Y-46572714D01*
X103305430Y-46572714D02*
X103232858Y-46536429D01*
X103196573Y-46500143D01*
X103160287Y-46427571D01*
X103160287Y-46209857D01*
X103196573Y-46137286D01*
X103232858Y-46101000D01*
X103305430Y-46064714D01*
X103414287Y-46064714D01*
X103486858Y-46101000D01*
X103523144Y-46137286D01*
X103559430Y-46209857D01*
X103559430Y-46427571D01*
X103523144Y-46500143D01*
X103486858Y-46536429D01*
X103414287Y-46572714D01*
X103305430Y-46572714D01*
X104212573Y-46572714D02*
X104212573Y-45810714D01*
X104212573Y-46536429D02*
X104140002Y-46572714D01*
X103994859Y-46572714D01*
X103922287Y-46536429D01*
X103886002Y-46500143D01*
X103849716Y-46427571D01*
X103849716Y-46209857D01*
X103886002Y-46137286D01*
X103922287Y-46101000D01*
X103994859Y-46064714D01*
X104140002Y-46064714D01*
X104212573Y-46101000D01*
X100003429Y-47443571D02*
X99749429Y-47443571D01*
X99749429Y-47842714D02*
X99749429Y-47080714D01*
X100112286Y-47080714D01*
X100402572Y-47842714D02*
X100402572Y-47334714D01*
X100402572Y-47080714D02*
X100366286Y-47117000D01*
X100402572Y-47153286D01*
X100438857Y-47117000D01*
X100402572Y-47080714D01*
X100402572Y-47153286D01*
X101055714Y-47806429D02*
X100983143Y-47842714D01*
X100838000Y-47842714D01*
X100765429Y-47806429D01*
X100729143Y-47733857D01*
X100729143Y-47443571D01*
X100765429Y-47371000D01*
X100838000Y-47334714D01*
X100983143Y-47334714D01*
X101055714Y-47371000D01*
X101092000Y-47443571D01*
X101092000Y-47516143D01*
X100729143Y-47588714D01*
X101527429Y-47842714D02*
X101454857Y-47806429D01*
X101418572Y-47733857D01*
X101418572Y-47080714D01*
X102144286Y-47842714D02*
X102144286Y-47080714D01*
X102144286Y-47806429D02*
X102071715Y-47842714D01*
X101926572Y-47842714D01*
X101854000Y-47806429D01*
X101817715Y-47770143D01*
X101781429Y-47697571D01*
X101781429Y-47479857D01*
X101817715Y-47407286D01*
X101854000Y-47371000D01*
X101926572Y-47334714D01*
X102071715Y-47334714D01*
X102144286Y-47371000D01*
X103087715Y-47842714D02*
X103087715Y-47080714D01*
X103269143Y-47080714D01*
X103378000Y-47117000D01*
X103450572Y-47189571D01*
X103486857Y-47262143D01*
X103523143Y-47407286D01*
X103523143Y-47516143D01*
X103486857Y-47661286D01*
X103450572Y-47733857D01*
X103378000Y-47806429D01*
X103269143Y-47842714D01*
X103087715Y-47842714D01*
X104140000Y-47806429D02*
X104067429Y-47842714D01*
X103922286Y-47842714D01*
X103849715Y-47806429D01*
X103813429Y-47733857D01*
X103813429Y-47443571D01*
X103849715Y-47371000D01*
X103922286Y-47334714D01*
X104067429Y-47334714D01*
X104140000Y-47371000D01*
X104176286Y-47443571D01*
X104176286Y-47516143D01*
X103813429Y-47588714D01*
X104430286Y-47334714D02*
X104611715Y-47842714D01*
X104793143Y-47334714D01*
X105083429Y-47842714D02*
X105083429Y-47334714D01*
X105083429Y-47080714D02*
X105047143Y-47117000D01*
X105083429Y-47153286D01*
X105119714Y-47117000D01*
X105083429Y-47080714D01*
X105083429Y-47153286D01*
X105772857Y-47806429D02*
X105700286Y-47842714D01*
X105555143Y-47842714D01*
X105482571Y-47806429D01*
X105446286Y-47770143D01*
X105410000Y-47697571D01*
X105410000Y-47479857D01*
X105446286Y-47407286D01*
X105482571Y-47371000D01*
X105555143Y-47334714D01*
X105700286Y-47334714D01*
X105772857Y-47371000D01*
X106389714Y-47806429D02*
X106317143Y-47842714D01*
X106172000Y-47842714D01*
X106099429Y-47806429D01*
X106063143Y-47733857D01*
X106063143Y-47443571D01*
X106099429Y-47371000D01*
X106172000Y-47334714D01*
X106317143Y-47334714D01*
X106389714Y-47371000D01*
X106426000Y-47443571D01*
X106426000Y-47516143D01*
X106063143Y-47588714D01*
X107333143Y-47842714D02*
X107333143Y-47080714D01*
X107623428Y-47080714D01*
X107696000Y-47117000D01*
X107732285Y-47153286D01*
X107768571Y-47225857D01*
X107768571Y-47334714D01*
X107732285Y-47407286D01*
X107696000Y-47443571D01*
X107623428Y-47479857D01*
X107333143Y-47479857D01*
X108204000Y-47842714D02*
X108131428Y-47806429D01*
X108095143Y-47770143D01*
X108058857Y-47697571D01*
X108058857Y-47479857D01*
X108095143Y-47407286D01*
X108131428Y-47371000D01*
X108204000Y-47334714D01*
X108312857Y-47334714D01*
X108385428Y-47371000D01*
X108421714Y-47407286D01*
X108458000Y-47479857D01*
X108458000Y-47697571D01*
X108421714Y-47770143D01*
X108385428Y-47806429D01*
X108312857Y-47842714D01*
X108204000Y-47842714D01*
X108712000Y-47334714D02*
X108857143Y-47842714D01*
X109002286Y-47479857D01*
X109147429Y-47842714D01*
X109292572Y-47334714D01*
X109873143Y-47806429D02*
X109800572Y-47842714D01*
X109655429Y-47842714D01*
X109582858Y-47806429D01*
X109546572Y-47733857D01*
X109546572Y-47443571D01*
X109582858Y-47371000D01*
X109655429Y-47334714D01*
X109800572Y-47334714D01*
X109873143Y-47371000D01*
X109909429Y-47443571D01*
X109909429Y-47516143D01*
X109546572Y-47588714D01*
X110236001Y-47842714D02*
X110236001Y-47334714D01*
X110236001Y-47479857D02*
X110272286Y-47407286D01*
X110308572Y-47371000D01*
X110381143Y-47334714D01*
X110453715Y-47334714D01*
X111651143Y-47080714D02*
X111288286Y-47080714D01*
X111252000Y-47443571D01*
X111288286Y-47407286D01*
X111360857Y-47371000D01*
X111542286Y-47371000D01*
X111614857Y-47407286D01*
X111651143Y-47443571D01*
X111687428Y-47516143D01*
X111687428Y-47697571D01*
X111651143Y-47770143D01*
X111614857Y-47806429D01*
X111542286Y-47842714D01*
X111360857Y-47842714D01*
X111288286Y-47806429D01*
X111252000Y-47770143D01*
X111905142Y-47080714D02*
X112159142Y-47842714D01*
X112413142Y-47080714D01*
X99713143Y-48423286D02*
X99749429Y-48387000D01*
X99822000Y-48350714D01*
X100003429Y-48350714D01*
X100076000Y-48387000D01*
X100112286Y-48423286D01*
X100148571Y-48495857D01*
X100148571Y-48568429D01*
X100112286Y-48677286D01*
X99676857Y-49112714D01*
X100148571Y-49112714D01*
X100838000Y-49112714D02*
X100475143Y-49112714D01*
X100475143Y-48350714D01*
X100910571Y-49185286D02*
X101491142Y-49185286D01*
X102071713Y-49112714D02*
X101636285Y-49112714D01*
X101853999Y-49112714D02*
X101853999Y-48350714D01*
X101781428Y-48459571D01*
X101708856Y-48532143D01*
X101636285Y-48568429D01*
X72010512Y-66179096D02*
X72010512Y-66300048D01*
X72040750Y-66360524D01*
X72070988Y-66390762D01*
X72161702Y-66451239D01*
X72282655Y-66481477D01*
X72524560Y-66481477D01*
X72585036Y-66451239D01*
X72615274Y-66421000D01*
X72645512Y-66360524D01*
X72645512Y-66239572D01*
X72615274Y-66179096D01*
X72585036Y-66148858D01*
X72524560Y-66118619D01*
X72373369Y-66118619D01*
X72312893Y-66148858D01*
X72282655Y-66179096D01*
X72252417Y-66239572D01*
X72252417Y-66360524D01*
X72282655Y-66421000D01*
X72312893Y-66451239D01*
X72373369Y-66481477D01*
X72010512Y-65937191D02*
X72645512Y-65725524D01*
X72010512Y-65513857D01*
X72403607Y-65302191D02*
X72403607Y-64818381D01*
X72645512Y-64183381D02*
X72645512Y-64546239D01*
X72645512Y-64364810D02*
X72010512Y-64364810D01*
X72101226Y-64425286D01*
X72161702Y-64485762D01*
X72191940Y-64546239D01*
X72282655Y-63820524D02*
X72252417Y-63881000D01*
X72222179Y-63911239D01*
X72161702Y-63941477D01*
X72131464Y-63941477D01*
X72070988Y-63911239D01*
X72040750Y-63881000D01*
X72010512Y-63820524D01*
X72010512Y-63699572D01*
X72040750Y-63639096D01*
X72070988Y-63608858D01*
X72131464Y-63578619D01*
X72161702Y-63578619D01*
X72222179Y-63608858D01*
X72252417Y-63639096D01*
X72282655Y-63699572D01*
X72282655Y-63820524D01*
X72312893Y-63881000D01*
X72343131Y-63911239D01*
X72403607Y-63941477D01*
X72524560Y-63941477D01*
X72585036Y-63911239D01*
X72615274Y-63881000D01*
X72645512Y-63820524D01*
X72645512Y-63699572D01*
X72615274Y-63639096D01*
X72585036Y-63608858D01*
X72524560Y-63578619D01*
X72403607Y-63578619D01*
X72343131Y-63608858D01*
X72312893Y-63639096D01*
X72282655Y-63699572D01*
X72010512Y-63397191D02*
X72645512Y-63185524D01*
X72010512Y-62973857D01*
X73725012Y-65559215D02*
X73090012Y-65559215D01*
X73301679Y-65256834D02*
X73725012Y-65256834D01*
X73362155Y-65256834D02*
X73331917Y-65226595D01*
X73301679Y-65166119D01*
X73301679Y-65075405D01*
X73331917Y-65014929D01*
X73392393Y-64984691D01*
X73725012Y-64984691D01*
X73301679Y-64682310D02*
X73936679Y-64682310D01*
X73331917Y-64682310D02*
X73301679Y-64621833D01*
X73301679Y-64500881D01*
X73331917Y-64440405D01*
X73362155Y-64410167D01*
X73422631Y-64379929D01*
X73604060Y-64379929D01*
X73664536Y-64410167D01*
X73694774Y-64440405D01*
X73725012Y-64500881D01*
X73725012Y-64621833D01*
X73694774Y-64682310D01*
X73301679Y-63835643D02*
X73725012Y-63835643D01*
X73301679Y-64107786D02*
X73634298Y-64107786D01*
X73694774Y-64077547D01*
X73725012Y-64017071D01*
X73725012Y-63926357D01*
X73694774Y-63865881D01*
X73664536Y-63835643D01*
X73301679Y-63623976D02*
X73301679Y-63382071D01*
X73090012Y-63533262D02*
X73634298Y-63533262D01*
X73694774Y-63503023D01*
X73725012Y-63442547D01*
X73725012Y-63382071D01*
X70974857Y-66620571D02*
X70974857Y-65459428D01*
X71555429Y-66039999D02*
X70394286Y-66039999D01*
X67745429Y-71736857D02*
X68906572Y-71736857D01*
X68326001Y-72317429D02*
X68326001Y-71156286D01*
X67745429Y-76816857D02*
X68906572Y-76816857D01*
X68326001Y-77397429D02*
X68326001Y-76236286D01*
X70867512Y-75153763D02*
X70232512Y-75153763D01*
X70444179Y-74851382D02*
X70867512Y-74851382D01*
X70504655Y-74851382D02*
X70474417Y-74821143D01*
X70444179Y-74760667D01*
X70444179Y-74669953D01*
X70474417Y-74609477D01*
X70534893Y-74579239D01*
X70867512Y-74579239D01*
X70807036Y-73430190D02*
X70837274Y-73460428D01*
X70867512Y-73551143D01*
X70867512Y-73611619D01*
X70837274Y-73702333D01*
X70776798Y-73762809D01*
X70716321Y-73793048D01*
X70595369Y-73823286D01*
X70504655Y-73823286D01*
X70383702Y-73793048D01*
X70323226Y-73762809D01*
X70262750Y-73702333D01*
X70232512Y-73611619D01*
X70232512Y-73551143D01*
X70262750Y-73460428D01*
X70292988Y-73430190D01*
X70444179Y-72885905D02*
X70867512Y-72885905D01*
X70444179Y-73158048D02*
X70776798Y-73158048D01*
X70837274Y-73127809D01*
X70867512Y-73067333D01*
X70867512Y-72976619D01*
X70837274Y-72916143D01*
X70807036Y-72885905D01*
X70867512Y-72583524D02*
X70444179Y-72583524D01*
X70565131Y-72583524D02*
X70504655Y-72553285D01*
X70474417Y-72523047D01*
X70444179Y-72462571D01*
X70444179Y-72402095D01*
X70867512Y-72190429D02*
X70444179Y-72190429D01*
X70565131Y-72190429D02*
X70504655Y-72160190D01*
X70474417Y-72129952D01*
X70444179Y-72069476D01*
X70444179Y-72009000D01*
X70837274Y-71555429D02*
X70867512Y-71615905D01*
X70867512Y-71736857D01*
X70837274Y-71797334D01*
X70776798Y-71827572D01*
X70534893Y-71827572D01*
X70474417Y-71797334D01*
X70444179Y-71736857D01*
X70444179Y-71615905D01*
X70474417Y-71555429D01*
X70534893Y-71525191D01*
X70595369Y-71525191D01*
X70655845Y-71827572D01*
X70444179Y-71253048D02*
X70867512Y-71253048D01*
X70504655Y-71253048D02*
X70474417Y-71222809D01*
X70444179Y-71162333D01*
X70444179Y-71071619D01*
X70474417Y-71011143D01*
X70534893Y-70980905D01*
X70867512Y-70980905D01*
X70444179Y-70769238D02*
X70444179Y-70527333D01*
X70232512Y-70678524D02*
X70776798Y-70678524D01*
X70837274Y-70648285D01*
X70867512Y-70587809D01*
X70867512Y-70527333D01*
X71312012Y-75002572D02*
X71312012Y-74639715D01*
X71947012Y-74821143D02*
X71312012Y-74821143D01*
X71916774Y-74186143D02*
X71947012Y-74246619D01*
X71947012Y-74367571D01*
X71916774Y-74428048D01*
X71856298Y-74458286D01*
X71614393Y-74458286D01*
X71553917Y-74428048D01*
X71523679Y-74367571D01*
X71523679Y-74246619D01*
X71553917Y-74186143D01*
X71614393Y-74155905D01*
X71674869Y-74155905D01*
X71735345Y-74458286D01*
X71916774Y-73914000D02*
X71947012Y-73853523D01*
X71947012Y-73732571D01*
X71916774Y-73672095D01*
X71856298Y-73641857D01*
X71826060Y-73641857D01*
X71765583Y-73672095D01*
X71735345Y-73732571D01*
X71735345Y-73823285D01*
X71705107Y-73883762D01*
X71644631Y-73914000D01*
X71614393Y-73914000D01*
X71553917Y-73883762D01*
X71523679Y-73823285D01*
X71523679Y-73732571D01*
X71553917Y-73672095D01*
X71523679Y-73460428D02*
X71523679Y-73218523D01*
X71312012Y-73369714D02*
X71856298Y-73369714D01*
X71916774Y-73339475D01*
X71947012Y-73278999D01*
X71947012Y-73218523D01*
X71947012Y-72523047D02*
X71312012Y-72523047D01*
X71312012Y-72281142D01*
X71342250Y-72220666D01*
X71372488Y-72190427D01*
X71432964Y-72160189D01*
X71523679Y-72160189D01*
X71584155Y-72190427D01*
X71614393Y-72220666D01*
X71644631Y-72281142D01*
X71644631Y-72523047D01*
X71947012Y-71797332D02*
X71916774Y-71857808D01*
X71886536Y-71888047D01*
X71826060Y-71918285D01*
X71644631Y-71918285D01*
X71584155Y-71888047D01*
X71553917Y-71857808D01*
X71523679Y-71797332D01*
X71523679Y-71706618D01*
X71553917Y-71646142D01*
X71584155Y-71615904D01*
X71644631Y-71585666D01*
X71826060Y-71585666D01*
X71886536Y-71615904D01*
X71916774Y-71646142D01*
X71947012Y-71706618D01*
X71947012Y-71797332D01*
X71947012Y-71313523D02*
X71523679Y-71313523D01*
X71312012Y-71313523D02*
X71342250Y-71343761D01*
X71372488Y-71313523D01*
X71342250Y-71283284D01*
X71312012Y-71313523D01*
X71372488Y-71313523D01*
X71523679Y-71011142D02*
X71947012Y-71011142D01*
X71584155Y-71011142D02*
X71553917Y-70980903D01*
X71523679Y-70920427D01*
X71523679Y-70829713D01*
X71553917Y-70769237D01*
X71614393Y-70738999D01*
X71947012Y-70738999D01*
X71523679Y-70527332D02*
X71523679Y-70285427D01*
X71312012Y-70436618D02*
X71856298Y-70436618D01*
X71916774Y-70406379D01*
X71947012Y-70345903D01*
X71947012Y-70285427D01*
X69597512Y-80756882D02*
X68962512Y-80756882D01*
X69174179Y-80454501D02*
X69597512Y-80454501D01*
X69234655Y-80454501D02*
X69204417Y-80424262D01*
X69174179Y-80363786D01*
X69174179Y-80273072D01*
X69204417Y-80212596D01*
X69264893Y-80182358D01*
X69597512Y-80182358D01*
X68962512Y-79486881D02*
X69597512Y-79275214D01*
X68962512Y-79063547D01*
X69597512Y-78761166D02*
X69567274Y-78821642D01*
X69537036Y-78851881D01*
X69476560Y-78882119D01*
X69295131Y-78882119D01*
X69234655Y-78851881D01*
X69204417Y-78821642D01*
X69174179Y-78761166D01*
X69174179Y-78670452D01*
X69204417Y-78609976D01*
X69234655Y-78579738D01*
X69295131Y-78549500D01*
X69476560Y-78549500D01*
X69537036Y-78579738D01*
X69567274Y-78609976D01*
X69597512Y-78670452D01*
X69597512Y-78761166D01*
X69597512Y-78186642D02*
X69567274Y-78247118D01*
X69506798Y-78277357D01*
X68962512Y-78277357D01*
X69174179Y-78035452D02*
X69174179Y-77793547D01*
X68962512Y-77944738D02*
X69506798Y-77944738D01*
X69567274Y-77914499D01*
X69597512Y-77854023D01*
X69597512Y-77793547D01*
X69597512Y-77309738D02*
X69264893Y-77309738D01*
X69204417Y-77339976D01*
X69174179Y-77400452D01*
X69174179Y-77521404D01*
X69204417Y-77581881D01*
X69567274Y-77309738D02*
X69597512Y-77370214D01*
X69597512Y-77521404D01*
X69567274Y-77581881D01*
X69506798Y-77612119D01*
X69446321Y-77612119D01*
X69385845Y-77581881D01*
X69355607Y-77521404D01*
X69355607Y-77370214D01*
X69325369Y-77309738D01*
X69174179Y-76735214D02*
X69688226Y-76735214D01*
X69748702Y-76765452D01*
X69778940Y-76795690D01*
X69809179Y-76856166D01*
X69809179Y-76946880D01*
X69778940Y-77007357D01*
X69567274Y-76735214D02*
X69597512Y-76795690D01*
X69597512Y-76916642D01*
X69567274Y-76977118D01*
X69537036Y-77007357D01*
X69476560Y-77037595D01*
X69295131Y-77037595D01*
X69234655Y-77007357D01*
X69204417Y-76977118D01*
X69174179Y-76916642D01*
X69174179Y-76795690D01*
X69204417Y-76735214D01*
X69567274Y-76190928D02*
X69597512Y-76251404D01*
X69597512Y-76372356D01*
X69567274Y-76432833D01*
X69506798Y-76463071D01*
X69264893Y-76463071D01*
X69204417Y-76432833D01*
X69174179Y-76372356D01*
X69174179Y-76251404D01*
X69204417Y-76190928D01*
X69264893Y-76160690D01*
X69325369Y-76160690D01*
X69385845Y-76463071D01*
X70042012Y-80590572D02*
X70042012Y-80227715D01*
X70677012Y-80409143D02*
X70042012Y-80409143D01*
X70646774Y-79774143D02*
X70677012Y-79834619D01*
X70677012Y-79955571D01*
X70646774Y-80016048D01*
X70586298Y-80046286D01*
X70344393Y-80046286D01*
X70283917Y-80016048D01*
X70253679Y-79955571D01*
X70253679Y-79834619D01*
X70283917Y-79774143D01*
X70344393Y-79743905D01*
X70404869Y-79743905D01*
X70465345Y-80046286D01*
X70646774Y-79502000D02*
X70677012Y-79441523D01*
X70677012Y-79320571D01*
X70646774Y-79260095D01*
X70586298Y-79229857D01*
X70556060Y-79229857D01*
X70495583Y-79260095D01*
X70465345Y-79320571D01*
X70465345Y-79411285D01*
X70435107Y-79471762D01*
X70374631Y-79502000D01*
X70344393Y-79502000D01*
X70283917Y-79471762D01*
X70253679Y-79411285D01*
X70253679Y-79320571D01*
X70283917Y-79260095D01*
X70253679Y-79048428D02*
X70253679Y-78806523D01*
X70042012Y-78957714D02*
X70586298Y-78957714D01*
X70646774Y-78927475D01*
X70677012Y-78866999D01*
X70677012Y-78806523D01*
X70677012Y-78111047D02*
X70042012Y-78111047D01*
X70042012Y-77869142D01*
X70072250Y-77808666D01*
X70102488Y-77778427D01*
X70162964Y-77748189D01*
X70253679Y-77748189D01*
X70314155Y-77778427D01*
X70344393Y-77808666D01*
X70374631Y-77869142D01*
X70374631Y-78111047D01*
X70677012Y-77385332D02*
X70646774Y-77445808D01*
X70616536Y-77476047D01*
X70556060Y-77506285D01*
X70374631Y-77506285D01*
X70314155Y-77476047D01*
X70283917Y-77445808D01*
X70253679Y-77385332D01*
X70253679Y-77294618D01*
X70283917Y-77234142D01*
X70314155Y-77203904D01*
X70374631Y-77173666D01*
X70556060Y-77173666D01*
X70616536Y-77203904D01*
X70646774Y-77234142D01*
X70677012Y-77294618D01*
X70677012Y-77385332D01*
X70677012Y-76901523D02*
X70253679Y-76901523D01*
X70042012Y-76901523D02*
X70072250Y-76931761D01*
X70102488Y-76901523D01*
X70072250Y-76871284D01*
X70042012Y-76901523D01*
X70102488Y-76901523D01*
X70253679Y-76599142D02*
X70677012Y-76599142D01*
X70314155Y-76599142D02*
X70283917Y-76568903D01*
X70253679Y-76508427D01*
X70253679Y-76417713D01*
X70283917Y-76357237D01*
X70344393Y-76326999D01*
X70677012Y-76326999D01*
X70253679Y-76115332D02*
X70253679Y-75873427D01*
X70042012Y-76024618D02*
X70586298Y-76024618D01*
X70646774Y-75994379D01*
X70677012Y-75933903D01*
X70677012Y-75873427D01*
X70720857Y-89076893D02*
X70811571Y-89107131D01*
X70841810Y-89137369D01*
X70872048Y-89197845D01*
X70872048Y-89288560D01*
X70841810Y-89349036D01*
X70811571Y-89379274D01*
X70751095Y-89409512D01*
X70509190Y-89409512D01*
X70509190Y-88774512D01*
X70720857Y-88774512D01*
X70781333Y-88804750D01*
X70811571Y-88834988D01*
X70841810Y-88895464D01*
X70841810Y-88955940D01*
X70811571Y-89016417D01*
X70781333Y-89046655D01*
X70720857Y-89076893D01*
X70509190Y-89076893D01*
X71416333Y-89409512D02*
X71416333Y-89076893D01*
X71386095Y-89016417D01*
X71325619Y-88986179D01*
X71204667Y-88986179D01*
X71144190Y-89016417D01*
X71416333Y-89379274D02*
X71355857Y-89409512D01*
X71204667Y-89409512D01*
X71144190Y-89379274D01*
X71113952Y-89318798D01*
X71113952Y-89258321D01*
X71144190Y-89197845D01*
X71204667Y-89167607D01*
X71355857Y-89167607D01*
X71416333Y-89137369D01*
X71628000Y-88986179D02*
X71869905Y-88986179D01*
X71718714Y-88774512D02*
X71718714Y-89318798D01*
X71748953Y-89379274D01*
X71809429Y-89409512D01*
X71869905Y-89409512D01*
X71990857Y-88986179D02*
X72232762Y-88986179D01*
X72081571Y-88774512D02*
X72081571Y-89318798D01*
X72111810Y-89379274D01*
X72172286Y-89409512D01*
X72232762Y-89409512D01*
X72686333Y-89379274D02*
X72625857Y-89409512D01*
X72504905Y-89409512D01*
X72444428Y-89379274D01*
X72414190Y-89318798D01*
X72414190Y-89076893D01*
X72444428Y-89016417D01*
X72504905Y-88986179D01*
X72625857Y-88986179D01*
X72686333Y-89016417D01*
X72716571Y-89076893D01*
X72716571Y-89137369D01*
X72414190Y-89197845D01*
X72988714Y-89409512D02*
X72988714Y-88986179D01*
X72988714Y-89107131D02*
X73018953Y-89046655D01*
X73049191Y-89016417D01*
X73109667Y-88986179D01*
X73170143Y-88986179D01*
X73321333Y-88986179D02*
X73472524Y-89409512D01*
X73623714Y-88986179D02*
X73472524Y-89409512D01*
X73412048Y-89560702D01*
X73381809Y-89590940D01*
X73321333Y-89621179D01*
X70509190Y-90489012D02*
X70509190Y-89854012D01*
X70720857Y-90307583D01*
X70932524Y-89854012D01*
X70932524Y-90489012D01*
X71476809Y-90458774D02*
X71416333Y-90489012D01*
X71295381Y-90489012D01*
X71234904Y-90458774D01*
X71204666Y-90398298D01*
X71204666Y-90156393D01*
X71234904Y-90095917D01*
X71295381Y-90065679D01*
X71416333Y-90065679D01*
X71476809Y-90095917D01*
X71507047Y-90156393D01*
X71507047Y-90216869D01*
X71204666Y-90277345D01*
X72051333Y-90489012D02*
X72051333Y-90156393D01*
X72021095Y-90095917D01*
X71960619Y-90065679D01*
X71839667Y-90065679D01*
X71779190Y-90095917D01*
X72051333Y-90458774D02*
X71990857Y-90489012D01*
X71839667Y-90489012D01*
X71779190Y-90458774D01*
X71748952Y-90398298D01*
X71748952Y-90337821D01*
X71779190Y-90277345D01*
X71839667Y-90247107D01*
X71990857Y-90247107D01*
X72051333Y-90216869D01*
X72323476Y-90458774D02*
X72383953Y-90489012D01*
X72504905Y-90489012D01*
X72565381Y-90458774D01*
X72595619Y-90398298D01*
X72595619Y-90368060D01*
X72565381Y-90307583D01*
X72504905Y-90277345D01*
X72414191Y-90277345D01*
X72353714Y-90247107D01*
X72323476Y-90186631D01*
X72323476Y-90156393D01*
X72353714Y-90095917D01*
X72414191Y-90065679D01*
X72504905Y-90065679D01*
X72565381Y-90095917D01*
X73139905Y-90065679D02*
X73139905Y-90489012D01*
X72867762Y-90065679D02*
X72867762Y-90398298D01*
X72898001Y-90458774D01*
X72958477Y-90489012D01*
X73049191Y-90489012D01*
X73109667Y-90458774D01*
X73139905Y-90428536D01*
X73442286Y-90489012D02*
X73442286Y-90065679D01*
X73442286Y-90186631D02*
X73472525Y-90126155D01*
X73502763Y-90095917D01*
X73563239Y-90065679D01*
X73623715Y-90065679D01*
X74077286Y-90458774D02*
X74016810Y-90489012D01*
X73895858Y-90489012D01*
X73835381Y-90458774D01*
X73805143Y-90398298D01*
X73805143Y-90156393D01*
X73835381Y-90095917D01*
X73895858Y-90065679D01*
X74016810Y-90065679D01*
X74077286Y-90095917D01*
X74107524Y-90156393D01*
X74107524Y-90216869D01*
X73805143Y-90277345D01*
X74379667Y-90489012D02*
X74379667Y-90065679D01*
X74379667Y-90126155D02*
X74409906Y-90095917D01*
X74470382Y-90065679D01*
X74561096Y-90065679D01*
X74621572Y-90095917D01*
X74651810Y-90156393D01*
X74651810Y-90489012D01*
X74651810Y-90156393D02*
X74682048Y-90095917D01*
X74742525Y-90065679D01*
X74833239Y-90065679D01*
X74893715Y-90095917D01*
X74923953Y-90156393D01*
X74923953Y-90489012D01*
X75468239Y-90458774D02*
X75407763Y-90489012D01*
X75286811Y-90489012D01*
X75226334Y-90458774D01*
X75196096Y-90398298D01*
X75196096Y-90156393D01*
X75226334Y-90095917D01*
X75286811Y-90065679D01*
X75407763Y-90065679D01*
X75468239Y-90095917D01*
X75498477Y-90156393D01*
X75498477Y-90216869D01*
X75196096Y-90277345D01*
X75770620Y-90065679D02*
X75770620Y-90489012D01*
X75770620Y-90126155D02*
X75800859Y-90095917D01*
X75861335Y-90065679D01*
X75952049Y-90065679D01*
X76012525Y-90095917D01*
X76042763Y-90156393D01*
X76042763Y-90489012D01*
X76254430Y-90065679D02*
X76496335Y-90065679D01*
X76345144Y-89854012D02*
X76345144Y-90398298D01*
X76375383Y-90458774D01*
X76435859Y-90489012D01*
X76496335Y-90489012D01*
X82985429Y-50908857D02*
X84146572Y-50908857D01*
X83566001Y-51489429D02*
X83566001Y-50328286D01*
X82915880Y-52230262D02*
X82613499Y-52230262D01*
X82583261Y-52532643D01*
X82613499Y-52502405D01*
X82673976Y-52472167D01*
X82825166Y-52472167D01*
X82885642Y-52502405D01*
X82915880Y-52532643D01*
X82946119Y-52593119D01*
X82946119Y-52744310D01*
X82915880Y-52804786D01*
X82885642Y-52835024D01*
X82825166Y-52865262D01*
X82673976Y-52865262D01*
X82613499Y-52835024D01*
X82583261Y-52804786D01*
X83127547Y-52230262D02*
X83339214Y-52865262D01*
X83550881Y-52230262D01*
X84367310Y-52230262D02*
X84488262Y-52230262D01*
X84548738Y-52260500D01*
X84609215Y-52320976D01*
X84639453Y-52441929D01*
X84639453Y-52653595D01*
X84609215Y-52774548D01*
X84548738Y-52835024D01*
X84488262Y-52865262D01*
X84367310Y-52865262D01*
X84306834Y-52835024D01*
X84246357Y-52774548D01*
X84216119Y-52653595D01*
X84216119Y-52441929D01*
X84246357Y-52320976D01*
X84306834Y-52260500D01*
X84367310Y-52230262D01*
X85183738Y-52441929D02*
X85183738Y-52865262D01*
X84911595Y-52441929D02*
X84911595Y-52774548D01*
X84941834Y-52835024D01*
X85002310Y-52865262D01*
X85093024Y-52865262D01*
X85153500Y-52835024D01*
X85183738Y-52804786D01*
X85395405Y-52441929D02*
X85637310Y-52441929D01*
X85486119Y-52230262D02*
X85486119Y-52774548D01*
X85516358Y-52835024D01*
X85576834Y-52865262D01*
X85637310Y-52865262D01*
X85848976Y-52441929D02*
X85848976Y-53076929D01*
X85848976Y-52472167D02*
X85909453Y-52441929D01*
X86030405Y-52441929D01*
X86090881Y-52472167D01*
X86121119Y-52502405D01*
X86151357Y-52562881D01*
X86151357Y-52744310D01*
X86121119Y-52804786D01*
X86090881Y-52835024D01*
X86030405Y-52865262D01*
X85909453Y-52865262D01*
X85848976Y-52835024D01*
X86695643Y-52441929D02*
X86695643Y-52865262D01*
X86423500Y-52441929D02*
X86423500Y-52774548D01*
X86453739Y-52835024D01*
X86514215Y-52865262D01*
X86604929Y-52865262D01*
X86665405Y-52835024D01*
X86695643Y-52804786D01*
X86907310Y-52441929D02*
X87149215Y-52441929D01*
X86998024Y-52230262D02*
X86998024Y-52774548D01*
X87028263Y-52835024D01*
X87088739Y-52865262D01*
X87149215Y-52865262D01*
X76635429Y-50908857D02*
X77796572Y-50908857D01*
X77216001Y-51489429D02*
X77216001Y-50328286D01*
X70285429Y-50908857D02*
X71446572Y-50908857D01*
X70866001Y-51489429D02*
X70866001Y-50328286D01*
X69115214Y-51944512D02*
X69236166Y-51944512D01*
X69296642Y-51974750D01*
X69357119Y-52035226D01*
X69387357Y-52156179D01*
X69387357Y-52367845D01*
X69357119Y-52488798D01*
X69296642Y-52549274D01*
X69236166Y-52579512D01*
X69115214Y-52579512D01*
X69054738Y-52549274D01*
X68994261Y-52488798D01*
X68964023Y-52367845D01*
X68964023Y-52156179D01*
X68994261Y-52035226D01*
X69054738Y-51974750D01*
X69115214Y-51944512D01*
X69931642Y-52156179D02*
X69931642Y-52579512D01*
X69659499Y-52156179D02*
X69659499Y-52488798D01*
X69689738Y-52549274D01*
X69750214Y-52579512D01*
X69840928Y-52579512D01*
X69901404Y-52549274D01*
X69931642Y-52519036D01*
X70143309Y-52156179D02*
X70385214Y-52156179D01*
X70234023Y-51944512D02*
X70234023Y-52488798D01*
X70264262Y-52549274D01*
X70324738Y-52579512D01*
X70385214Y-52579512D01*
X70989976Y-51944512D02*
X71201643Y-52579512D01*
X71413310Y-51944512D01*
X71715691Y-52579512D02*
X71655215Y-52549274D01*
X71624976Y-52519036D01*
X71594738Y-52458560D01*
X71594738Y-52277131D01*
X71624976Y-52216655D01*
X71655215Y-52186417D01*
X71715691Y-52156179D01*
X71806405Y-52156179D01*
X71866881Y-52186417D01*
X71897119Y-52216655D01*
X71927357Y-52277131D01*
X71927357Y-52458560D01*
X71897119Y-52519036D01*
X71866881Y-52549274D01*
X71806405Y-52579512D01*
X71715691Y-52579512D01*
X72290215Y-52579512D02*
X72229739Y-52549274D01*
X72199500Y-52488798D01*
X72199500Y-51944512D01*
X72441405Y-52156179D02*
X72683310Y-52156179D01*
X72532119Y-51944512D02*
X72532119Y-52488798D01*
X72562358Y-52549274D01*
X72622834Y-52579512D01*
X72683310Y-52579512D01*
X73167119Y-52579512D02*
X73167119Y-52246893D01*
X73136881Y-52186417D01*
X73076405Y-52156179D01*
X72955453Y-52156179D01*
X72894976Y-52186417D01*
X73167119Y-52549274D02*
X73106643Y-52579512D01*
X72955453Y-52579512D01*
X72894976Y-52549274D01*
X72864738Y-52488798D01*
X72864738Y-52428321D01*
X72894976Y-52367845D01*
X72955453Y-52337607D01*
X73106643Y-52337607D01*
X73167119Y-52307369D01*
X73741643Y-52156179D02*
X73741643Y-52670226D01*
X73711405Y-52730702D01*
X73681167Y-52760940D01*
X73620691Y-52791179D01*
X73529977Y-52791179D01*
X73469500Y-52760940D01*
X73741643Y-52549274D02*
X73681167Y-52579512D01*
X73560215Y-52579512D01*
X73499739Y-52549274D01*
X73469500Y-52519036D01*
X73439262Y-52458560D01*
X73439262Y-52277131D01*
X73469500Y-52216655D01*
X73499739Y-52186417D01*
X73560215Y-52156179D01*
X73681167Y-52156179D01*
X73741643Y-52186417D01*
X74285929Y-52549274D02*
X74225453Y-52579512D01*
X74104501Y-52579512D01*
X74044024Y-52549274D01*
X74013786Y-52488798D01*
X74013786Y-52246893D01*
X74044024Y-52186417D01*
X74104501Y-52156179D01*
X74225453Y-52156179D01*
X74285929Y-52186417D01*
X74316167Y-52246893D01*
X74316167Y-52307369D01*
X74013786Y-52367845D01*
X69523428Y-53024012D02*
X69886285Y-53024012D01*
X69704857Y-53659012D02*
X69704857Y-53024012D01*
X70339857Y-53628774D02*
X70279381Y-53659012D01*
X70158429Y-53659012D01*
X70097952Y-53628774D01*
X70067714Y-53568298D01*
X70067714Y-53326393D01*
X70097952Y-53265917D01*
X70158429Y-53235679D01*
X70279381Y-53235679D01*
X70339857Y-53265917D01*
X70370095Y-53326393D01*
X70370095Y-53386869D01*
X70067714Y-53447345D01*
X70612000Y-53628774D02*
X70672477Y-53659012D01*
X70793429Y-53659012D01*
X70853905Y-53628774D01*
X70884143Y-53568298D01*
X70884143Y-53538060D01*
X70853905Y-53477583D01*
X70793429Y-53447345D01*
X70702715Y-53447345D01*
X70642238Y-53417107D01*
X70612000Y-53356631D01*
X70612000Y-53326393D01*
X70642238Y-53265917D01*
X70702715Y-53235679D01*
X70793429Y-53235679D01*
X70853905Y-53265917D01*
X71065572Y-53235679D02*
X71307477Y-53235679D01*
X71156286Y-53024012D02*
X71156286Y-53568298D01*
X71186525Y-53628774D01*
X71247001Y-53659012D01*
X71307477Y-53659012D01*
X72002953Y-53659012D02*
X72002953Y-53024012D01*
X72244858Y-53024012D01*
X72305334Y-53054250D01*
X72335573Y-53084488D01*
X72365811Y-53144964D01*
X72365811Y-53235679D01*
X72335573Y-53296155D01*
X72305334Y-53326393D01*
X72244858Y-53356631D01*
X72002953Y-53356631D01*
X72728668Y-53659012D02*
X72668192Y-53628774D01*
X72637953Y-53598536D01*
X72607715Y-53538060D01*
X72607715Y-53356631D01*
X72637953Y-53296155D01*
X72668192Y-53265917D01*
X72728668Y-53235679D01*
X72819382Y-53235679D01*
X72879858Y-53265917D01*
X72910096Y-53296155D01*
X72940334Y-53356631D01*
X72940334Y-53538060D01*
X72910096Y-53598536D01*
X72879858Y-53628774D01*
X72819382Y-53659012D01*
X72728668Y-53659012D01*
X73212477Y-53659012D02*
X73212477Y-53235679D01*
X73212477Y-53024012D02*
X73182239Y-53054250D01*
X73212477Y-53084488D01*
X73242716Y-53054250D01*
X73212477Y-53024012D01*
X73212477Y-53084488D01*
X73514858Y-53235679D02*
X73514858Y-53659012D01*
X73514858Y-53296155D02*
X73545097Y-53265917D01*
X73605573Y-53235679D01*
X73696287Y-53235679D01*
X73756763Y-53265917D01*
X73787001Y-53326393D01*
X73787001Y-53659012D01*
X73998668Y-53235679D02*
X74240573Y-53235679D01*
X74089382Y-53024012D02*
X74089382Y-53568298D01*
X74119621Y-53628774D01*
X74180097Y-53659012D01*
X74240573Y-53659012D01*
X75480333Y-51944512D02*
X75601285Y-51944512D01*
X75661761Y-51974750D01*
X75722238Y-52035226D01*
X75752476Y-52156179D01*
X75752476Y-52367845D01*
X75722238Y-52488798D01*
X75661761Y-52549274D01*
X75601285Y-52579512D01*
X75480333Y-52579512D01*
X75419857Y-52549274D01*
X75359380Y-52488798D01*
X75329142Y-52367845D01*
X75329142Y-52156179D01*
X75359380Y-52035226D01*
X75419857Y-51974750D01*
X75480333Y-51944512D01*
X76296761Y-52156179D02*
X76296761Y-52579512D01*
X76024618Y-52156179D02*
X76024618Y-52488798D01*
X76054857Y-52549274D01*
X76115333Y-52579512D01*
X76206047Y-52579512D01*
X76266523Y-52549274D01*
X76296761Y-52519036D01*
X76508428Y-52156179D02*
X76750333Y-52156179D01*
X76599142Y-51944512D02*
X76599142Y-52488798D01*
X76629381Y-52549274D01*
X76689857Y-52579512D01*
X76750333Y-52579512D01*
X77808667Y-52519036D02*
X77778429Y-52549274D01*
X77687714Y-52579512D01*
X77627238Y-52579512D01*
X77536524Y-52549274D01*
X77476048Y-52488798D01*
X77445809Y-52428321D01*
X77415571Y-52307369D01*
X77415571Y-52216655D01*
X77445809Y-52095702D01*
X77476048Y-52035226D01*
X77536524Y-51974750D01*
X77627238Y-51944512D01*
X77687714Y-51944512D01*
X77778429Y-51974750D01*
X77808667Y-52004988D01*
X78352952Y-52156179D02*
X78352952Y-52579512D01*
X78080809Y-52156179D02*
X78080809Y-52488798D01*
X78111048Y-52549274D01*
X78171524Y-52579512D01*
X78262238Y-52579512D01*
X78322714Y-52549274D01*
X78352952Y-52519036D01*
X78655333Y-52579512D02*
X78655333Y-52156179D01*
X78655333Y-52277131D02*
X78685572Y-52216655D01*
X78715810Y-52186417D01*
X78776286Y-52156179D01*
X78836762Y-52156179D01*
X79048428Y-52579512D02*
X79048428Y-52156179D01*
X79048428Y-52277131D02*
X79078667Y-52216655D01*
X79108905Y-52186417D01*
X79169381Y-52156179D01*
X79229857Y-52156179D01*
X79683428Y-52549274D02*
X79622952Y-52579512D01*
X79502000Y-52579512D01*
X79441523Y-52549274D01*
X79411285Y-52488798D01*
X79411285Y-52246893D01*
X79441523Y-52186417D01*
X79502000Y-52156179D01*
X79622952Y-52156179D01*
X79683428Y-52186417D01*
X79713666Y-52246893D01*
X79713666Y-52307369D01*
X79411285Y-52367845D01*
X79985809Y-52156179D02*
X79985809Y-52579512D01*
X79985809Y-52216655D02*
X80016048Y-52186417D01*
X80076524Y-52156179D01*
X80167238Y-52156179D01*
X80227714Y-52186417D01*
X80257952Y-52246893D01*
X80257952Y-52579512D01*
X80469619Y-52156179D02*
X80711524Y-52156179D01*
X80560333Y-51944512D02*
X80560333Y-52488798D01*
X80590572Y-52549274D01*
X80651048Y-52579512D01*
X80711524Y-52579512D01*
X75873428Y-53024012D02*
X76236285Y-53024012D01*
X76054857Y-53659012D02*
X76054857Y-53024012D01*
X76689857Y-53628774D02*
X76629381Y-53659012D01*
X76508429Y-53659012D01*
X76447952Y-53628774D01*
X76417714Y-53568298D01*
X76417714Y-53326393D01*
X76447952Y-53265917D01*
X76508429Y-53235679D01*
X76629381Y-53235679D01*
X76689857Y-53265917D01*
X76720095Y-53326393D01*
X76720095Y-53386869D01*
X76417714Y-53447345D01*
X76962000Y-53628774D02*
X77022477Y-53659012D01*
X77143429Y-53659012D01*
X77203905Y-53628774D01*
X77234143Y-53568298D01*
X77234143Y-53538060D01*
X77203905Y-53477583D01*
X77143429Y-53447345D01*
X77052715Y-53447345D01*
X76992238Y-53417107D01*
X76962000Y-53356631D01*
X76962000Y-53326393D01*
X76992238Y-53265917D01*
X77052715Y-53235679D01*
X77143429Y-53235679D01*
X77203905Y-53265917D01*
X77415572Y-53235679D02*
X77657477Y-53235679D01*
X77506286Y-53024012D02*
X77506286Y-53568298D01*
X77536525Y-53628774D01*
X77597001Y-53659012D01*
X77657477Y-53659012D01*
X78352953Y-53659012D02*
X78352953Y-53024012D01*
X78594858Y-53024012D01*
X78655334Y-53054250D01*
X78685573Y-53084488D01*
X78715811Y-53144964D01*
X78715811Y-53235679D01*
X78685573Y-53296155D01*
X78655334Y-53326393D01*
X78594858Y-53356631D01*
X78352953Y-53356631D01*
X79078668Y-53659012D02*
X79018192Y-53628774D01*
X78987953Y-53598536D01*
X78957715Y-53538060D01*
X78957715Y-53356631D01*
X78987953Y-53296155D01*
X79018192Y-53265917D01*
X79078668Y-53235679D01*
X79169382Y-53235679D01*
X79229858Y-53265917D01*
X79260096Y-53296155D01*
X79290334Y-53356631D01*
X79290334Y-53538060D01*
X79260096Y-53598536D01*
X79229858Y-53628774D01*
X79169382Y-53659012D01*
X79078668Y-53659012D01*
X79562477Y-53659012D02*
X79562477Y-53235679D01*
X79562477Y-53024012D02*
X79532239Y-53054250D01*
X79562477Y-53084488D01*
X79592716Y-53054250D01*
X79562477Y-53024012D01*
X79562477Y-53084488D01*
X79864858Y-53235679D02*
X79864858Y-53659012D01*
X79864858Y-53296155D02*
X79895097Y-53265917D01*
X79955573Y-53235679D01*
X80046287Y-53235679D01*
X80106763Y-53265917D01*
X80137001Y-53326393D01*
X80137001Y-53659012D01*
X80348668Y-53235679D02*
X80590573Y-53235679D01*
X80439382Y-53024012D02*
X80439382Y-53568298D01*
X80469621Y-53628774D01*
X80530097Y-53659012D01*
X80590573Y-53659012D01*
D12*
X108450000Y-66968000D02*
X107450000Y-66968000D01*
X107450000Y-68668000D02*
X108450000Y-68668000D01*
X79297000Y-67580000D02*
X79297000Y-69580000D01*
X82247000Y-69580000D02*
X82247000Y-67580000D01*
X82853000Y-67580000D02*
X82853000Y-69580000D01*
X85803000Y-69580000D02*
X85803000Y-67580000D01*
X84924000Y-62222000D02*
X84924000Y-61222000D01*
X83224000Y-61222000D02*
X83224000Y-62222000D01*
X99226000Y-70620000D02*
X99226000Y-71620000D01*
X100926000Y-71620000D02*
X100926000Y-70620000D01*
X101766000Y-70620000D02*
X101766000Y-71620000D01*
X103466000Y-71620000D02*
X103466000Y-70620000D01*
X92614000Y-74787200D02*
X93314000Y-74787200D01*
X93314000Y-75987200D02*
X92614000Y-75987200D01*
D13*
X66632000Y-67370000D02*
X66632000Y-62170000D01*
X66632000Y-62170000D02*
X63972000Y-62170000D01*
X63972000Y-62170000D02*
X63972000Y-67370000D01*
X63972000Y-67370000D02*
X66632000Y-67370000D01*
X63972000Y-66420000D02*
X57972000Y-66420000D01*
X57972000Y-66420000D02*
X57972000Y-65660000D01*
X57972000Y-65660000D02*
X63972000Y-65660000D01*
X63972000Y-66360000D02*
X57972000Y-66360000D01*
X63972000Y-66240000D02*
X57972000Y-66240000D01*
X63972000Y-66120000D02*
X57972000Y-66120000D01*
X63972000Y-66000000D02*
X57972000Y-66000000D01*
X63972000Y-65880000D02*
X57972000Y-65880000D01*
X63972000Y-65760000D02*
X57972000Y-65760000D01*
X66962000Y-66420000D02*
X66632000Y-66420000D01*
X66962000Y-65660000D02*
X66632000Y-65660000D01*
X66632000Y-64770000D02*
X63972000Y-64770000D01*
X63972000Y-63880000D02*
X57972000Y-63880000D01*
X57972000Y-63880000D02*
X57972000Y-63120000D01*
X57972000Y-63120000D02*
X63972000Y-63120000D01*
X67029071Y-63880000D02*
X66632000Y-63880000D01*
X67029071Y-63120000D02*
X66632000Y-63120000D01*
X69342000Y-66040000D02*
X69342000Y-67310000D01*
X69342000Y-67310000D02*
X68072000Y-67310000D01*
X82236000Y-46820000D02*
X87436000Y-46820000D01*
X87436000Y-46820000D02*
X87436000Y-44160000D01*
X87436000Y-44160000D02*
X82236000Y-44160000D01*
X82236000Y-44160000D02*
X82236000Y-46820000D01*
X83186000Y-44160000D02*
X83186000Y-38160000D01*
X83186000Y-38160000D02*
X83946000Y-38160000D01*
X83946000Y-38160000D02*
X83946000Y-44160000D01*
X83246000Y-44160000D02*
X83246000Y-38160000D01*
X83366000Y-44160000D02*
X83366000Y-38160000D01*
X83486000Y-44160000D02*
X83486000Y-38160000D01*
X83606000Y-44160000D02*
X83606000Y-38160000D01*
X83726000Y-44160000D02*
X83726000Y-38160000D01*
X83846000Y-44160000D02*
X83846000Y-38160000D01*
X83186000Y-47150000D02*
X83186000Y-46820000D01*
X83946000Y-47150000D02*
X83946000Y-46820000D01*
X84836000Y-46820000D02*
X84836000Y-44160000D01*
X85726000Y-44160000D02*
X85726000Y-38160000D01*
X85726000Y-38160000D02*
X86486000Y-38160000D01*
X86486000Y-38160000D02*
X86486000Y-44160000D01*
X85726000Y-47217071D02*
X85726000Y-46820000D01*
X86486000Y-47217071D02*
X86486000Y-46820000D01*
X83566000Y-49530000D02*
X82296000Y-49530000D01*
X82296000Y-49530000D02*
X82296000Y-48260000D01*
D12*
X90008000Y-77837000D02*
X88808000Y-77837000D01*
X88808000Y-76087000D02*
X90008000Y-76087000D01*
X93564000Y-79716600D02*
X92364000Y-79716600D01*
X92364000Y-77966600D02*
X93564000Y-77966600D01*
X104810000Y-77865000D02*
X106010000Y-77865000D01*
X106010000Y-79615000D02*
X104810000Y-79615000D01*
X101946000Y-75297000D02*
X100746000Y-75297000D01*
X100746000Y-73547000D02*
X101946000Y-73547000D01*
X98947000Y-80356000D02*
X98947000Y-79156000D01*
X100697000Y-79156000D02*
X100697000Y-80356000D01*
D13*
X96942000Y-66024000D02*
X96942000Y-64024000D01*
X96942000Y-64024000D02*
X93092000Y-64024000D01*
X96942000Y-66024000D02*
X93092000Y-66024000D01*
X64710000Y-75498000D02*
X67370000Y-75498000D01*
X64710000Y-72898000D02*
X64710000Y-75498000D01*
X67370000Y-72898000D02*
X67370000Y-75498000D01*
X64710000Y-72898000D02*
X67370000Y-72898000D01*
X64710000Y-71628000D02*
X64710000Y-70298000D01*
X64710000Y-70298000D02*
X66040000Y-70298000D01*
X81086000Y-49590000D02*
X81086000Y-46930000D01*
X78486000Y-49590000D02*
X81086000Y-49590000D01*
X78486000Y-46930000D02*
X81086000Y-46930000D01*
X78486000Y-49590000D02*
X78486000Y-46930000D01*
X77216000Y-49590000D02*
X75886000Y-49590000D01*
X75886000Y-49590000D02*
X75886000Y-48260000D01*
X74736000Y-49590000D02*
X74736000Y-46930000D01*
X72136000Y-49590000D02*
X74736000Y-49590000D01*
X72136000Y-46930000D02*
X74736000Y-46930000D01*
X72136000Y-49590000D02*
X72136000Y-46930000D01*
X70866000Y-49590000D02*
X69536000Y-49590000D01*
X69536000Y-49590000D02*
X69536000Y-48260000D01*
X67370000Y-75378000D02*
X64710000Y-75378000D01*
X67370000Y-77978000D02*
X67370000Y-75378000D01*
X64710000Y-77978000D02*
X64710000Y-75378000D01*
X67370000Y-77978000D02*
X64710000Y-77978000D01*
X67370000Y-79248000D02*
X67370000Y-80578000D01*
X67370000Y-80578000D02*
X66040000Y-80578000D01*
D14*
X92113100Y-72478900D02*
X96354900Y-72478900D01*
X96354900Y-67221100D02*
X92113100Y-67221100D01*
X96219981Y-53378100D02*
X94280019Y-53378100D01*
X94280019Y-61429900D02*
X96219981Y-61429900D01*
X76563799Y-74930000D02*
X75293799Y-74930000D01*
X75547799Y-74295000D02*
X75547799Y-75565000D01*
X75547799Y-74930000D02*
X76309799Y-74295000D01*
X75547799Y-74930000D02*
X76309799Y-74422000D01*
X75547799Y-74930000D02*
X76309799Y-74549000D01*
X75547799Y-74930000D02*
X76309799Y-74676000D01*
X75547799Y-74930000D02*
X76309799Y-74803000D01*
X75547799Y-74930000D02*
X76309799Y-75565000D01*
X75547799Y-74930000D02*
X76309799Y-75438000D01*
X75547799Y-74930000D02*
X76309799Y-75311000D01*
X75547799Y-74930000D02*
X76309799Y-75184000D01*
X75547799Y-74930000D02*
X76309799Y-75057000D01*
X76309799Y-74295000D02*
X76309799Y-75565000D01*
X72944799Y-76517000D02*
X78788801Y-76517000D01*
X78788801Y-76517000D02*
X78788801Y-76077740D01*
X78788801Y-73343000D02*
X72944799Y-73343000D01*
X72944799Y-73343000D02*
X72944799Y-73782260D01*
X72944799Y-76077740D02*
X72944799Y-76517000D01*
X78788801Y-73782260D02*
X78788801Y-73343000D01*
X74422000Y-80786199D02*
X74422000Y-79516199D01*
X75057000Y-79770199D02*
X73787000Y-79770199D01*
X74422000Y-79770199D02*
X75057000Y-80532199D01*
X74422000Y-79770199D02*
X74930000Y-80532199D01*
X74422000Y-79770199D02*
X74803000Y-80532199D01*
X74422000Y-79770199D02*
X74676000Y-80532199D01*
X74422000Y-79770199D02*
X74549000Y-80532199D01*
X74422000Y-79770199D02*
X73787000Y-80532199D01*
X74422000Y-79770199D02*
X73914000Y-80532199D01*
X74422000Y-79770199D02*
X74041000Y-80532199D01*
X74422000Y-79770199D02*
X74168000Y-80532199D01*
X74422000Y-79770199D02*
X74295000Y-80532199D01*
X75057000Y-80532199D02*
X73787000Y-80532199D01*
X72835000Y-77167199D02*
X72835000Y-83011201D01*
X72835000Y-83011201D02*
X73274260Y-83011201D01*
X76009000Y-83011201D02*
X76009000Y-77167199D01*
X76009000Y-77167199D02*
X75569740Y-77167199D01*
X73274260Y-77167199D02*
X72835000Y-77167199D01*
X75569740Y-83011201D02*
X76009000Y-83011201D01*
D12*
X69372000Y-90958000D02*
X69372000Y-89408000D01*
X68072000Y-90958000D02*
X69372000Y-90958000D01*
X63881000Y-89535000D02*
X58039000Y-89535000D01*
X58039000Y-89535000D02*
X58039000Y-89281000D01*
X58039000Y-89281000D02*
X63881000Y-89281000D01*
X63881000Y-89281000D02*
X63881000Y-89408000D01*
X63881000Y-89408000D02*
X58039000Y-89408000D01*
X66548000Y-89154000D02*
X66802000Y-89154000D01*
X66548000Y-89662000D02*
X66802000Y-89662000D01*
X66548000Y-90678000D02*
X64008000Y-90678000D01*
X66548000Y-90678000D02*
X66548000Y-88138000D01*
X66548000Y-88138000D02*
X64008000Y-88138000D01*
X64008000Y-89662000D02*
X57912000Y-89662000D01*
X57912000Y-89662000D02*
X57912000Y-89154000D01*
X57912000Y-89154000D02*
X64008000Y-89154000D01*
X64008000Y-88138000D02*
X64008000Y-90678000D01*
D15*
G36*
X101828629Y-88375066D02*
X101868111Y-88375467D01*
X101983800Y-88378259D01*
X102080689Y-88386550D01*
X102162081Y-88401232D01*
X102231277Y-88423193D01*
X102291580Y-88453322D01*
X102346292Y-88492510D01*
X102365833Y-88509532D01*
X102398250Y-88549363D01*
X102427480Y-88603413D01*
X102450009Y-88663323D01*
X102462321Y-88720739D01*
X102463600Y-88741956D01*
X102455583Y-88800769D01*
X102434101Y-88865013D01*
X102403001Y-88925821D01*
X102366134Y-88974330D01*
X102360146Y-88980182D01*
X102309421Y-89021321D01*
X102253875Y-89053435D01*
X102190304Y-89077365D01*
X102115506Y-89093953D01*
X102026278Y-89104041D01*
X101919418Y-89108469D01*
X101870472Y-89108845D01*
X101808238Y-89108545D01*
X101764472Y-89107292D01*
X101735069Y-89104554D01*
X101715921Y-89099801D01*
X101702923Y-89092501D01*
X101695955Y-89086267D01*
X101689374Y-89078694D01*
X101684212Y-89068924D01*
X101680297Y-89054340D01*
X101677457Y-89032326D01*
X101675520Y-89000264D01*
X101674316Y-88955536D01*
X101673672Y-88895526D01*
X101673417Y-88817617D01*
X101673378Y-88741956D01*
X101673130Y-88641041D01*
X101673183Y-88560427D01*
X101674143Y-88521822D01*
X101820133Y-88521822D01*
X101820133Y-88962089D01*
X101913266Y-88962004D01*
X101969307Y-88960396D01*
X102028001Y-88956256D01*
X102076972Y-88950464D01*
X102078462Y-88950226D01*
X102157608Y-88931090D01*
X102218998Y-88901287D01*
X102265695Y-88858878D01*
X102295365Y-88812961D01*
X102313647Y-88762026D01*
X102312229Y-88714200D01*
X102291012Y-88662933D01*
X102249511Y-88609899D01*
X102192002Y-88570600D01*
X102117250Y-88544331D01*
X102067292Y-88535035D01*
X102010584Y-88528507D01*
X101950481Y-88523782D01*
X101899361Y-88521817D01*
X101896333Y-88521808D01*
X101820133Y-88521822D01*
X101674143Y-88521822D01*
X101674740Y-88497851D01*
X101679002Y-88451055D01*
X101687170Y-88417778D01*
X101700444Y-88395759D01*
X101720026Y-88382739D01*
X101747117Y-88376457D01*
X101782918Y-88374653D01*
X101828629Y-88375066D01*
X101828629Y-88375066D01*
G37*
X101828629Y-88375066D02*
X101868111Y-88375467D01*
X101983800Y-88378259D01*
X102080689Y-88386550D01*
X102162081Y-88401232D01*
X102231277Y-88423193D01*
X102291580Y-88453322D01*
X102346292Y-88492510D01*
X102365833Y-88509532D01*
X102398250Y-88549363D01*
X102427480Y-88603413D01*
X102450009Y-88663323D01*
X102462321Y-88720739D01*
X102463600Y-88741956D01*
X102455583Y-88800769D01*
X102434101Y-88865013D01*
X102403001Y-88925821D01*
X102366134Y-88974330D01*
X102360146Y-88980182D01*
X102309421Y-89021321D01*
X102253875Y-89053435D01*
X102190304Y-89077365D01*
X102115506Y-89093953D01*
X102026278Y-89104041D01*
X101919418Y-89108469D01*
X101870472Y-89108845D01*
X101808238Y-89108545D01*
X101764472Y-89107292D01*
X101735069Y-89104554D01*
X101715921Y-89099801D01*
X101702923Y-89092501D01*
X101695955Y-89086267D01*
X101689374Y-89078694D01*
X101684212Y-89068924D01*
X101680297Y-89054340D01*
X101677457Y-89032326D01*
X101675520Y-89000264D01*
X101674316Y-88955536D01*
X101673672Y-88895526D01*
X101673417Y-88817617D01*
X101673378Y-88741956D01*
X101673130Y-88641041D01*
X101673183Y-88560427D01*
X101674143Y-88521822D01*
X101820133Y-88521822D01*
X101820133Y-88962089D01*
X101913266Y-88962004D01*
X101969307Y-88960396D01*
X102028001Y-88956256D01*
X102076972Y-88950464D01*
X102078462Y-88950226D01*
X102157608Y-88931090D01*
X102218998Y-88901287D01*
X102265695Y-88858878D01*
X102295365Y-88812961D01*
X102313647Y-88762026D01*
X102312229Y-88714200D01*
X102291012Y-88662933D01*
X102249511Y-88609899D01*
X102192002Y-88570600D01*
X102117250Y-88544331D01*
X102067292Y-88535035D01*
X102010584Y-88528507D01*
X101950481Y-88523782D01*
X101899361Y-88521817D01*
X101896333Y-88521808D01*
X101820133Y-88521822D01*
X101674143Y-88521822D01*
X101674740Y-88497851D01*
X101679002Y-88451055D01*
X101687170Y-88417778D01*
X101700444Y-88395759D01*
X101720026Y-88382739D01*
X101747117Y-88376457D01*
X101782918Y-88374653D01*
X101828629Y-88375066D01*
G36*
X103237206Y-88375146D02*
X103306614Y-88375518D01*
X103359003Y-88376385D01*
X103397153Y-88377946D01*
X103423841Y-88380403D01*
X103441847Y-88383957D01*
X103453951Y-88388810D01*
X103462931Y-88395161D01*
X103466182Y-88398084D01*
X103485957Y-88429142D01*
X103489518Y-88464828D01*
X103476509Y-88496510D01*
X103470494Y-88502913D01*
X103460765Y-88509121D01*
X103445099Y-88513910D01*
X103420592Y-88517514D01*
X103384339Y-88520164D01*
X103333435Y-88522095D01*
X103264974Y-88523539D01*
X103202383Y-88524418D01*
X102954666Y-88527467D01*
X102951281Y-88592378D01*
X102947895Y-88657289D01*
X103116042Y-88657289D01*
X103189041Y-88657919D01*
X103242483Y-88660553D01*
X103279372Y-88666309D01*
X103302712Y-88676304D01*
X103315506Y-88691656D01*
X103320758Y-88713482D01*
X103321555Y-88733738D01*
X103319077Y-88758592D01*
X103309723Y-88776906D01*
X103290617Y-88789637D01*
X103258882Y-88797741D01*
X103211641Y-88802176D01*
X103146017Y-88803899D01*
X103110199Y-88804045D01*
X102949022Y-88804045D01*
X102949022Y-88962089D01*
X103197378Y-88962089D01*
X103278787Y-88962202D01*
X103340658Y-88962712D01*
X103386032Y-88963870D01*
X103417946Y-88965930D01*
X103439441Y-88969146D01*
X103453557Y-88973772D01*
X103463332Y-88980059D01*
X103468311Y-88984667D01*
X103485390Y-89011560D01*
X103490889Y-89035467D01*
X103483037Y-89064667D01*
X103468311Y-89086267D01*
X103460454Y-89093066D01*
X103450312Y-89098346D01*
X103435156Y-89102298D01*
X103412259Y-89105113D01*
X103378891Y-89106982D01*
X103332325Y-89108098D01*
X103269833Y-89108651D01*
X103188686Y-89108833D01*
X103146578Y-89108845D01*
X103056402Y-89108765D01*
X102986076Y-89108398D01*
X102932871Y-89107552D01*
X102894060Y-89106036D01*
X102866913Y-89103659D01*
X102848702Y-89100229D01*
X102836700Y-89095554D01*
X102828178Y-89089444D01*
X102824844Y-89086267D01*
X102818245Y-89078670D01*
X102813073Y-89068870D01*
X102809154Y-89054239D01*
X102806316Y-89032152D01*
X102804385Y-88999982D01*
X102803188Y-88955103D01*
X102802552Y-88894889D01*
X102802303Y-88816713D01*
X102802266Y-88743923D01*
X102802300Y-88650707D01*
X102802535Y-88577431D01*
X102803170Y-88521458D01*
X102804406Y-88480151D01*
X102806444Y-88450872D01*
X102809483Y-88430984D01*
X102813723Y-88417850D01*
X102819365Y-88408832D01*
X102826609Y-88401293D01*
X102828394Y-88399612D01*
X102837055Y-88392172D01*
X102847118Y-88386409D01*
X102861375Y-88382112D01*
X102882617Y-88379064D01*
X102913636Y-88377051D01*
X102957223Y-88375860D01*
X103016169Y-88375275D01*
X103093266Y-88375083D01*
X103147999Y-88375067D01*
X103237206Y-88375146D01*
X103237206Y-88375146D01*
G37*
X103237206Y-88375146D02*
X103306614Y-88375518D01*
X103359003Y-88376385D01*
X103397153Y-88377946D01*
X103423841Y-88380403D01*
X103441847Y-88383957D01*
X103453951Y-88388810D01*
X103462931Y-88395161D01*
X103466182Y-88398084D01*
X103485957Y-88429142D01*
X103489518Y-88464828D01*
X103476509Y-88496510D01*
X103470494Y-88502913D01*
X103460765Y-88509121D01*
X103445099Y-88513910D01*
X103420592Y-88517514D01*
X103384339Y-88520164D01*
X103333435Y-88522095D01*
X103264974Y-88523539D01*
X103202383Y-88524418D01*
X102954666Y-88527467D01*
X102951281Y-88592378D01*
X102947895Y-88657289D01*
X103116042Y-88657289D01*
X103189041Y-88657919D01*
X103242483Y-88660553D01*
X103279372Y-88666309D01*
X103302712Y-88676304D01*
X103315506Y-88691656D01*
X103320758Y-88713482D01*
X103321555Y-88733738D01*
X103319077Y-88758592D01*
X103309723Y-88776906D01*
X103290617Y-88789637D01*
X103258882Y-88797741D01*
X103211641Y-88802176D01*
X103146017Y-88803899D01*
X103110199Y-88804045D01*
X102949022Y-88804045D01*
X102949022Y-88962089D01*
X103197378Y-88962089D01*
X103278787Y-88962202D01*
X103340658Y-88962712D01*
X103386032Y-88963870D01*
X103417946Y-88965930D01*
X103439441Y-88969146D01*
X103453557Y-88973772D01*
X103463332Y-88980059D01*
X103468311Y-88984667D01*
X103485390Y-89011560D01*
X103490889Y-89035467D01*
X103483037Y-89064667D01*
X103468311Y-89086267D01*
X103460454Y-89093066D01*
X103450312Y-89098346D01*
X103435156Y-89102298D01*
X103412259Y-89105113D01*
X103378891Y-89106982D01*
X103332325Y-89108098D01*
X103269833Y-89108651D01*
X103188686Y-89108833D01*
X103146578Y-89108845D01*
X103056402Y-89108765D01*
X102986076Y-89108398D01*
X102932871Y-89107552D01*
X102894060Y-89106036D01*
X102866913Y-89103659D01*
X102848702Y-89100229D01*
X102836700Y-89095554D01*
X102828178Y-89089444D01*
X102824844Y-89086267D01*
X102818245Y-89078670D01*
X102813073Y-89068870D01*
X102809154Y-89054239D01*
X102806316Y-89032152D01*
X102804385Y-88999982D01*
X102803188Y-88955103D01*
X102802552Y-88894889D01*
X102802303Y-88816713D01*
X102802266Y-88743923D01*
X102802300Y-88650707D01*
X102802535Y-88577431D01*
X102803170Y-88521458D01*
X102804406Y-88480151D01*
X102806444Y-88450872D01*
X102809483Y-88430984D01*
X102813723Y-88417850D01*
X102819365Y-88408832D01*
X102826609Y-88401293D01*
X102828394Y-88399612D01*
X102837055Y-88392172D01*
X102847118Y-88386409D01*
X102861375Y-88382112D01*
X102882617Y-88379064D01*
X102913636Y-88377051D01*
X102957223Y-88375860D01*
X103016169Y-88375275D01*
X103093266Y-88375083D01*
X103147999Y-88375067D01*
X103237206Y-88375146D01*
G36*
X104258297Y-88376351D02*
X104333112Y-88381581D01*
X104402694Y-88389750D01*
X104462998Y-88400550D01*
X104509980Y-88413673D01*
X104539594Y-88428813D01*
X104544140Y-88433269D01*
X104559946Y-88467850D01*
X104555153Y-88503351D01*
X104530636Y-88533725D01*
X104529466Y-88534596D01*
X104515046Y-88543954D01*
X104499992Y-88548876D01*
X104478995Y-88549473D01*
X104446743Y-88545861D01*
X104397927Y-88538154D01*
X104394000Y-88537505D01*
X104321261Y-88528569D01*
X104242783Y-88524161D01*
X104164073Y-88524119D01*
X104090639Y-88528279D01*
X104027989Y-88536479D01*
X103981630Y-88548557D01*
X103978584Y-88549771D01*
X103944952Y-88568615D01*
X103933136Y-88587685D01*
X103942386Y-88606439D01*
X103971953Y-88624337D01*
X104021089Y-88640837D01*
X104089043Y-88655396D01*
X104134355Y-88662406D01*
X104228544Y-88675889D01*
X104303456Y-88688214D01*
X104362283Y-88700449D01*
X104408215Y-88713661D01*
X104444445Y-88728917D01*
X104474162Y-88747285D01*
X104500558Y-88769831D01*
X104521770Y-88791971D01*
X104546935Y-88822819D01*
X104559319Y-88849345D01*
X104563192Y-88882026D01*
X104563333Y-88893995D01*
X104560424Y-88933712D01*
X104548798Y-88963259D01*
X104528677Y-88989486D01*
X104487784Y-89029576D01*
X104442183Y-89060149D01*
X104388487Y-89082203D01*
X104323308Y-89096735D01*
X104243256Y-89104741D01*
X104144943Y-89107218D01*
X104128711Y-89107177D01*
X104063151Y-89105818D01*
X103998134Y-89102730D01*
X103940748Y-89098356D01*
X103898078Y-89093140D01*
X103894628Y-89092541D01*
X103852204Y-89082491D01*
X103816220Y-89069796D01*
X103795850Y-89058190D01*
X103776893Y-89027572D01*
X103775573Y-88991918D01*
X103791915Y-88960144D01*
X103795571Y-88956551D01*
X103810685Y-88945876D01*
X103829585Y-88941276D01*
X103858838Y-88942059D01*
X103894349Y-88946127D01*
X103934030Y-88949762D01*
X103989655Y-88952828D01*
X104054594Y-88955053D01*
X104122215Y-88956164D01*
X104140000Y-88956237D01*
X104207872Y-88955964D01*
X104257546Y-88954646D01*
X104293390Y-88951827D01*
X104319776Y-88947050D01*
X104341074Y-88939857D01*
X104353874Y-88933867D01*
X104382000Y-88917233D01*
X104399932Y-88902168D01*
X104402553Y-88897897D01*
X104397024Y-88880263D01*
X104370740Y-88863192D01*
X104325522Y-88847458D01*
X104263192Y-88833838D01*
X104244829Y-88830804D01*
X104148910Y-88815738D01*
X104072359Y-88803146D01*
X104012220Y-88792111D01*
X103965540Y-88781720D01*
X103929363Y-88771056D01*
X103900735Y-88759205D01*
X103876702Y-88745251D01*
X103854308Y-88728281D01*
X103830598Y-88707378D01*
X103822620Y-88700049D01*
X103794647Y-88672699D01*
X103779840Y-88651029D01*
X103774048Y-88626232D01*
X103773111Y-88594983D01*
X103783425Y-88533705D01*
X103814248Y-88481640D01*
X103865405Y-88438958D01*
X103936717Y-88405825D01*
X103987600Y-88390964D01*
X104042900Y-88381366D01*
X104109147Y-88375936D01*
X104182294Y-88374367D01*
X104258297Y-88376351D01*
X104258297Y-88376351D01*
G37*
X104258297Y-88376351D02*
X104333112Y-88381581D01*
X104402694Y-88389750D01*
X104462998Y-88400550D01*
X104509980Y-88413673D01*
X104539594Y-88428813D01*
X104544140Y-88433269D01*
X104559946Y-88467850D01*
X104555153Y-88503351D01*
X104530636Y-88533725D01*
X104529466Y-88534596D01*
X104515046Y-88543954D01*
X104499992Y-88548876D01*
X104478995Y-88549473D01*
X104446743Y-88545861D01*
X104397927Y-88538154D01*
X104394000Y-88537505D01*
X104321261Y-88528569D01*
X104242783Y-88524161D01*
X104164073Y-88524119D01*
X104090639Y-88528279D01*
X104027989Y-88536479D01*
X103981630Y-88548557D01*
X103978584Y-88549771D01*
X103944952Y-88568615D01*
X103933136Y-88587685D01*
X103942386Y-88606439D01*
X103971953Y-88624337D01*
X104021089Y-88640837D01*
X104089043Y-88655396D01*
X104134355Y-88662406D01*
X104228544Y-88675889D01*
X104303456Y-88688214D01*
X104362283Y-88700449D01*
X104408215Y-88713661D01*
X104444445Y-88728917D01*
X104474162Y-88747285D01*
X104500558Y-88769831D01*
X104521770Y-88791971D01*
X104546935Y-88822819D01*
X104559319Y-88849345D01*
X104563192Y-88882026D01*
X104563333Y-88893995D01*
X104560424Y-88933712D01*
X104548798Y-88963259D01*
X104528677Y-88989486D01*
X104487784Y-89029576D01*
X104442183Y-89060149D01*
X104388487Y-89082203D01*
X104323308Y-89096735D01*
X104243256Y-89104741D01*
X104144943Y-89107218D01*
X104128711Y-89107177D01*
X104063151Y-89105818D01*
X103998134Y-89102730D01*
X103940748Y-89098356D01*
X103898078Y-89093140D01*
X103894628Y-89092541D01*
X103852204Y-89082491D01*
X103816220Y-89069796D01*
X103795850Y-89058190D01*
X103776893Y-89027572D01*
X103775573Y-88991918D01*
X103791915Y-88960144D01*
X103795571Y-88956551D01*
X103810685Y-88945876D01*
X103829585Y-88941276D01*
X103858838Y-88942059D01*
X103894349Y-88946127D01*
X103934030Y-88949762D01*
X103989655Y-88952828D01*
X104054594Y-88955053D01*
X104122215Y-88956164D01*
X104140000Y-88956237D01*
X104207872Y-88955964D01*
X104257546Y-88954646D01*
X104293390Y-88951827D01*
X104319776Y-88947050D01*
X104341074Y-88939857D01*
X104353874Y-88933867D01*
X104382000Y-88917233D01*
X104399932Y-88902168D01*
X104402553Y-88897897D01*
X104397024Y-88880263D01*
X104370740Y-88863192D01*
X104325522Y-88847458D01*
X104263192Y-88833838D01*
X104244829Y-88830804D01*
X104148910Y-88815738D01*
X104072359Y-88803146D01*
X104012220Y-88792111D01*
X103965540Y-88781720D01*
X103929363Y-88771056D01*
X103900735Y-88759205D01*
X103876702Y-88745251D01*
X103854308Y-88728281D01*
X103830598Y-88707378D01*
X103822620Y-88700049D01*
X103794647Y-88672699D01*
X103779840Y-88651029D01*
X103774048Y-88626232D01*
X103773111Y-88594983D01*
X103783425Y-88533705D01*
X103814248Y-88481640D01*
X103865405Y-88438958D01*
X103936717Y-88405825D01*
X103987600Y-88390964D01*
X104042900Y-88381366D01*
X104109147Y-88375936D01*
X104182294Y-88374367D01*
X104258297Y-88376351D01*
G36*
X105026178Y-88397645D02*
X105032758Y-88405218D01*
X105037921Y-88414987D01*
X105041836Y-88429571D01*
X105044676Y-88451585D01*
X105046613Y-88483648D01*
X105047817Y-88528375D01*
X105048461Y-88588385D01*
X105048716Y-88666294D01*
X105048755Y-88741956D01*
X105048686Y-88835802D01*
X105048362Y-88909689D01*
X105047614Y-88966232D01*
X105046268Y-89008049D01*
X105044154Y-89037757D01*
X105041100Y-89057973D01*
X105036934Y-89071314D01*
X105031484Y-89080398D01*
X105026178Y-89086267D01*
X104993174Y-89105947D01*
X104958009Y-89104181D01*
X104926545Y-89082717D01*
X104919316Y-89074337D01*
X104913666Y-89064614D01*
X104909401Y-89050861D01*
X104906327Y-89030389D01*
X104904248Y-89000512D01*
X104902970Y-88958541D01*
X104902299Y-88901789D01*
X104902041Y-88827567D01*
X104902000Y-88743537D01*
X104902000Y-88430485D01*
X104929709Y-88402776D01*
X104963863Y-88379463D01*
X104996994Y-88378623D01*
X105026178Y-88397645D01*
X105026178Y-88397645D01*
G37*
X105026178Y-88397645D02*
X105032758Y-88405218D01*
X105037921Y-88414987D01*
X105041836Y-88429571D01*
X105044676Y-88451585D01*
X105046613Y-88483648D01*
X105047817Y-88528375D01*
X105048461Y-88588385D01*
X105048716Y-88666294D01*
X105048755Y-88741956D01*
X105048686Y-88835802D01*
X105048362Y-88909689D01*
X105047614Y-88966232D01*
X105046268Y-89008049D01*
X105044154Y-89037757D01*
X105041100Y-89057973D01*
X105036934Y-89071314D01*
X105031484Y-89080398D01*
X105026178Y-89086267D01*
X104993174Y-89105947D01*
X104958009Y-89104181D01*
X104926545Y-89082717D01*
X104919316Y-89074337D01*
X104913666Y-89064614D01*
X104909401Y-89050861D01*
X104906327Y-89030389D01*
X104904248Y-89000512D01*
X104902970Y-88958541D01*
X104902299Y-88901789D01*
X104902041Y-88827567D01*
X104902000Y-88743537D01*
X104902000Y-88430485D01*
X104929709Y-88402776D01*
X104963863Y-88379463D01*
X104996994Y-88378623D01*
X105026178Y-88397645D01*
G36*
X105999919Y-88380599D02*
X106068435Y-88392095D01*
X106121057Y-88409967D01*
X106155292Y-88433499D01*
X106164621Y-88446924D01*
X106174107Y-88478148D01*
X106167723Y-88506395D01*
X106147570Y-88533182D01*
X106116255Y-88545713D01*
X106070817Y-88544696D01*
X106035674Y-88537906D01*
X105957581Y-88524971D01*
X105877774Y-88523742D01*
X105788445Y-88534241D01*
X105763771Y-88538690D01*
X105680709Y-88562108D01*
X105615727Y-88596945D01*
X105569539Y-88642604D01*
X105542855Y-88698494D01*
X105537337Y-88727388D01*
X105540949Y-88786012D01*
X105564271Y-88837879D01*
X105605176Y-88881978D01*
X105661541Y-88917299D01*
X105731240Y-88942829D01*
X105812148Y-88957559D01*
X105902140Y-88960478D01*
X105999090Y-88950575D01*
X106004564Y-88949641D01*
X106043125Y-88942459D01*
X106064506Y-88935521D01*
X106073773Y-88925227D01*
X106075994Y-88907976D01*
X106076044Y-88898841D01*
X106076044Y-88860489D01*
X106007569Y-88860489D01*
X105947100Y-88856347D01*
X105905835Y-88843147D01*
X105881825Y-88819730D01*
X105873123Y-88784936D01*
X105873017Y-88780394D01*
X105878108Y-88750654D01*
X105895567Y-88729419D01*
X105928061Y-88715366D01*
X105978257Y-88707173D01*
X106026877Y-88704161D01*
X106097544Y-88702433D01*
X106148802Y-88705070D01*
X106183761Y-88714800D01*
X106205530Y-88734353D01*
X106217220Y-88766456D01*
X106221940Y-88813838D01*
X106222800Y-88876071D01*
X106221391Y-88945535D01*
X106217152Y-88992786D01*
X106210064Y-89018012D01*
X106208689Y-89019988D01*
X106169772Y-89051508D01*
X106112714Y-89076470D01*
X106041131Y-89094340D01*
X105958642Y-89104586D01*
X105868861Y-89106673D01*
X105775408Y-89100068D01*
X105720444Y-89091956D01*
X105634234Y-89067554D01*
X105554108Y-89027662D01*
X105487023Y-88975887D01*
X105476827Y-88965539D01*
X105443698Y-88922035D01*
X105413806Y-88868118D01*
X105390643Y-88811592D01*
X105377702Y-88760259D01*
X105376142Y-88740544D01*
X105382782Y-88699419D01*
X105400432Y-88648252D01*
X105425703Y-88594394D01*
X105455211Y-88545195D01*
X105481281Y-88512334D01*
X105542235Y-88463452D01*
X105621031Y-88424545D01*
X105714843Y-88396494D01*
X105820850Y-88380179D01*
X105918000Y-88376192D01*
X105999919Y-88380599D01*
X105999919Y-88380599D01*
G37*
X105999919Y-88380599D02*
X106068435Y-88392095D01*
X106121057Y-88409967D01*
X106155292Y-88433499D01*
X106164621Y-88446924D01*
X106174107Y-88478148D01*
X106167723Y-88506395D01*
X106147570Y-88533182D01*
X106116255Y-88545713D01*
X106070817Y-88544696D01*
X106035674Y-88537906D01*
X105957581Y-88524971D01*
X105877774Y-88523742D01*
X105788445Y-88534241D01*
X105763771Y-88538690D01*
X105680709Y-88562108D01*
X105615727Y-88596945D01*
X105569539Y-88642604D01*
X105542855Y-88698494D01*
X105537337Y-88727388D01*
X105540949Y-88786012D01*
X105564271Y-88837879D01*
X105605176Y-88881978D01*
X105661541Y-88917299D01*
X105731240Y-88942829D01*
X105812148Y-88957559D01*
X105902140Y-88960478D01*
X105999090Y-88950575D01*
X106004564Y-88949641D01*
X106043125Y-88942459D01*
X106064506Y-88935521D01*
X106073773Y-88925227D01*
X106075994Y-88907976D01*
X106076044Y-88898841D01*
X106076044Y-88860489D01*
X106007569Y-88860489D01*
X105947100Y-88856347D01*
X105905835Y-88843147D01*
X105881825Y-88819730D01*
X105873123Y-88784936D01*
X105873017Y-88780394D01*
X105878108Y-88750654D01*
X105895567Y-88729419D01*
X105928061Y-88715366D01*
X105978257Y-88707173D01*
X106026877Y-88704161D01*
X106097544Y-88702433D01*
X106148802Y-88705070D01*
X106183761Y-88714800D01*
X106205530Y-88734353D01*
X106217220Y-88766456D01*
X106221940Y-88813838D01*
X106222800Y-88876071D01*
X106221391Y-88945535D01*
X106217152Y-88992786D01*
X106210064Y-89018012D01*
X106208689Y-89019988D01*
X106169772Y-89051508D01*
X106112714Y-89076470D01*
X106041131Y-89094340D01*
X105958642Y-89104586D01*
X105868861Y-89106673D01*
X105775408Y-89100068D01*
X105720444Y-89091956D01*
X105634234Y-89067554D01*
X105554108Y-89027662D01*
X105487023Y-88975887D01*
X105476827Y-88965539D01*
X105443698Y-88922035D01*
X105413806Y-88868118D01*
X105390643Y-88811592D01*
X105377702Y-88760259D01*
X105376142Y-88740544D01*
X105382782Y-88699419D01*
X105400432Y-88648252D01*
X105425703Y-88594394D01*
X105455211Y-88545195D01*
X105481281Y-88512334D01*
X105542235Y-88463452D01*
X105621031Y-88424545D01*
X105714843Y-88396494D01*
X105820850Y-88380179D01*
X105918000Y-88376192D01*
X105999919Y-88380599D01*
G36*
X106649886Y-88379448D02*
X106673452Y-88393273D01*
X106704265Y-88415881D01*
X106743922Y-88448338D01*
X106794020Y-88491708D01*
X106856157Y-88547058D01*
X106931928Y-88615451D01*
X107018666Y-88694084D01*
X107199289Y-88857878D01*
X107204933Y-88638029D01*
X107206971Y-88562351D01*
X107208937Y-88505994D01*
X107211266Y-88465706D01*
X107214394Y-88438235D01*
X107218755Y-88420329D01*
X107224784Y-88408737D01*
X107232916Y-88400208D01*
X107237228Y-88396623D01*
X107271759Y-88377670D01*
X107304617Y-88380441D01*
X107330682Y-88396633D01*
X107357333Y-88418199D01*
X107360648Y-88733151D01*
X107361565Y-88825779D01*
X107362032Y-88898544D01*
X107361887Y-88954161D01*
X107360968Y-88995342D01*
X107359113Y-89024803D01*
X107356161Y-89045255D01*
X107351950Y-89059413D01*
X107346318Y-89069991D01*
X107340073Y-89078474D01*
X107326561Y-89094207D01*
X107313117Y-89104636D01*
X107297876Y-89108639D01*
X107278974Y-89105094D01*
X107254545Y-89092879D01*
X107222727Y-89070871D01*
X107181652Y-89037949D01*
X107129458Y-88992991D01*
X107064278Y-88934875D01*
X106990444Y-88868099D01*
X106725155Y-88627458D01*
X106719511Y-88846589D01*
X106717469Y-88922128D01*
X106715498Y-88978354D01*
X106713161Y-89018524D01*
X106710019Y-89045896D01*
X106705636Y-89063728D01*
X106699576Y-89075279D01*
X106691400Y-89083807D01*
X106687216Y-89087282D01*
X106650235Y-89106372D01*
X106615292Y-89103493D01*
X106584864Y-89079100D01*
X106577903Y-89069286D01*
X106572477Y-89057826D01*
X106568397Y-89041968D01*
X106565471Y-89018963D01*
X106563508Y-88986062D01*
X106562317Y-88940516D01*
X106561708Y-88879573D01*
X106561489Y-88800486D01*
X106561466Y-88741956D01*
X106561540Y-88650407D01*
X106561887Y-88578687D01*
X106562699Y-88524045D01*
X106564167Y-88483732D01*
X106566481Y-88454998D01*
X106569833Y-88435093D01*
X106574412Y-88421268D01*
X106580411Y-88410772D01*
X106584864Y-88404811D01*
X106596150Y-88390691D01*
X106606699Y-88380029D01*
X106618107Y-88373892D01*
X106631970Y-88373343D01*
X106649886Y-88379448D01*
X106649886Y-88379448D01*
G37*
X106649886Y-88379448D02*
X106673452Y-88393273D01*
X106704265Y-88415881D01*
X106743922Y-88448338D01*
X106794020Y-88491708D01*
X106856157Y-88547058D01*
X106931928Y-88615451D01*
X107018666Y-88694084D01*
X107199289Y-88857878D01*
X107204933Y-88638029D01*
X107206971Y-88562351D01*
X107208937Y-88505994D01*
X107211266Y-88465706D01*
X107214394Y-88438235D01*
X107218755Y-88420329D01*
X107224784Y-88408737D01*
X107232916Y-88400208D01*
X107237228Y-88396623D01*
X107271759Y-88377670D01*
X107304617Y-88380441D01*
X107330682Y-88396633D01*
X107357333Y-88418199D01*
X107360648Y-88733151D01*
X107361565Y-88825779D01*
X107362032Y-88898544D01*
X107361887Y-88954161D01*
X107360968Y-88995342D01*
X107359113Y-89024803D01*
X107356161Y-89045255D01*
X107351950Y-89059413D01*
X107346318Y-89069991D01*
X107340073Y-89078474D01*
X107326561Y-89094207D01*
X107313117Y-89104636D01*
X107297876Y-89108639D01*
X107278974Y-89105094D01*
X107254545Y-89092879D01*
X107222727Y-89070871D01*
X107181652Y-89037949D01*
X107129458Y-88992991D01*
X107064278Y-88934875D01*
X106990444Y-88868099D01*
X106725155Y-88627458D01*
X106719511Y-88846589D01*
X106717469Y-88922128D01*
X106715498Y-88978354D01*
X106713161Y-89018524D01*
X106710019Y-89045896D01*
X106705636Y-89063728D01*
X106699576Y-89075279D01*
X106691400Y-89083807D01*
X106687216Y-89087282D01*
X106650235Y-89106372D01*
X106615292Y-89103493D01*
X106584864Y-89079100D01*
X106577903Y-89069286D01*
X106572477Y-89057826D01*
X106568397Y-89041968D01*
X106565471Y-89018963D01*
X106563508Y-88986062D01*
X106562317Y-88940516D01*
X106561708Y-88879573D01*
X106561489Y-88800486D01*
X106561466Y-88741956D01*
X106561540Y-88650407D01*
X106561887Y-88578687D01*
X106562699Y-88524045D01*
X106564167Y-88483732D01*
X106566481Y-88454998D01*
X106569833Y-88435093D01*
X106574412Y-88421268D01*
X106580411Y-88410772D01*
X106584864Y-88404811D01*
X106596150Y-88390691D01*
X106606699Y-88380029D01*
X106618107Y-88373892D01*
X106631970Y-88373343D01*
X106649886Y-88379448D01*
G36*
X108180343Y-88375260D02*
X108256701Y-88376174D01*
X108315217Y-88378311D01*
X108358255Y-88382175D01*
X108388183Y-88388267D01*
X108407368Y-88397090D01*
X108418176Y-88409146D01*
X108422973Y-88424939D01*
X108424127Y-88444970D01*
X108424133Y-88447335D01*
X108423131Y-88469992D01*
X108418396Y-88487503D01*
X108407333Y-88500574D01*
X108387348Y-88509913D01*
X108355846Y-88516227D01*
X108310232Y-88520222D01*
X108247913Y-88522606D01*
X108166293Y-88524086D01*
X108141277Y-88524414D01*
X107899200Y-88527467D01*
X107895814Y-88592378D01*
X107892429Y-88657289D01*
X108060576Y-88657289D01*
X108126266Y-88657531D01*
X108173172Y-88658556D01*
X108205083Y-88660811D01*
X108225791Y-88664742D01*
X108239084Y-88670798D01*
X108248755Y-88679424D01*
X108248817Y-88679493D01*
X108266356Y-88713112D01*
X108265722Y-88749448D01*
X108247314Y-88780423D01*
X108243671Y-88783607D01*
X108230741Y-88791812D01*
X108213024Y-88797521D01*
X108186570Y-88801162D01*
X108147432Y-88803167D01*
X108091662Y-88803964D01*
X108055994Y-88804045D01*
X107893555Y-88804045D01*
X107893555Y-88962089D01*
X108140161Y-88962089D01*
X108221580Y-88962231D01*
X108283410Y-88962814D01*
X108328637Y-88964068D01*
X108360248Y-88966227D01*
X108381231Y-88969523D01*
X108394573Y-88974189D01*
X108403261Y-88980457D01*
X108405450Y-88982733D01*
X108421614Y-89014280D01*
X108422797Y-89050168D01*
X108409536Y-89081285D01*
X108399043Y-89091271D01*
X108388129Y-89096769D01*
X108371217Y-89101022D01*
X108345633Y-89104180D01*
X108308701Y-89106392D01*
X108257746Y-89107806D01*
X108190094Y-89108572D01*
X108103069Y-89108838D01*
X108083394Y-89108845D01*
X107994911Y-89108787D01*
X107926227Y-89108467D01*
X107874564Y-89107667D01*
X107837145Y-89106167D01*
X107811190Y-89103749D01*
X107793922Y-89100194D01*
X107782562Y-89095282D01*
X107774332Y-89088795D01*
X107769817Y-89084138D01*
X107763021Y-89075889D01*
X107757712Y-89065669D01*
X107753706Y-89050800D01*
X107750821Y-89028602D01*
X107748874Y-88996393D01*
X107747681Y-88951496D01*
X107747061Y-88891228D01*
X107746829Y-88812911D01*
X107746800Y-88746994D01*
X107746871Y-88654628D01*
X107747208Y-88582117D01*
X107747998Y-88526737D01*
X107749426Y-88485765D01*
X107751679Y-88456478D01*
X107754943Y-88436153D01*
X107759404Y-88422066D01*
X107765248Y-88411495D01*
X107770197Y-88404811D01*
X107793594Y-88375067D01*
X108083774Y-88375067D01*
X108180343Y-88375260D01*
X108180343Y-88375260D01*
G37*
X108180343Y-88375260D02*
X108256701Y-88376174D01*
X108315217Y-88378311D01*
X108358255Y-88382175D01*
X108388183Y-88388267D01*
X108407368Y-88397090D01*
X108418176Y-88409146D01*
X108422973Y-88424939D01*
X108424127Y-88444970D01*
X108424133Y-88447335D01*
X108423131Y-88469992D01*
X108418396Y-88487503D01*
X108407333Y-88500574D01*
X108387348Y-88509913D01*
X108355846Y-88516227D01*
X108310232Y-88520222D01*
X108247913Y-88522606D01*
X108166293Y-88524086D01*
X108141277Y-88524414D01*
X107899200Y-88527467D01*
X107895814Y-88592378D01*
X107892429Y-88657289D01*
X108060576Y-88657289D01*
X108126266Y-88657531D01*
X108173172Y-88658556D01*
X108205083Y-88660811D01*
X108225791Y-88664742D01*
X108239084Y-88670798D01*
X108248755Y-88679424D01*
X108248817Y-88679493D01*
X108266356Y-88713112D01*
X108265722Y-88749448D01*
X108247314Y-88780423D01*
X108243671Y-88783607D01*
X108230741Y-88791812D01*
X108213024Y-88797521D01*
X108186570Y-88801162D01*
X108147432Y-88803167D01*
X108091662Y-88803964D01*
X108055994Y-88804045D01*
X107893555Y-88804045D01*
X107893555Y-88962089D01*
X108140161Y-88962089D01*
X108221580Y-88962231D01*
X108283410Y-88962814D01*
X108328637Y-88964068D01*
X108360248Y-88966227D01*
X108381231Y-88969523D01*
X108394573Y-88974189D01*
X108403261Y-88980457D01*
X108405450Y-88982733D01*
X108421614Y-89014280D01*
X108422797Y-89050168D01*
X108409536Y-89081285D01*
X108399043Y-89091271D01*
X108388129Y-89096769D01*
X108371217Y-89101022D01*
X108345633Y-89104180D01*
X108308701Y-89106392D01*
X108257746Y-89107806D01*
X108190094Y-89108572D01*
X108103069Y-89108838D01*
X108083394Y-89108845D01*
X107994911Y-89108787D01*
X107926227Y-89108467D01*
X107874564Y-89107667D01*
X107837145Y-89106167D01*
X107811190Y-89103749D01*
X107793922Y-89100194D01*
X107782562Y-89095282D01*
X107774332Y-89088795D01*
X107769817Y-89084138D01*
X107763021Y-89075889D01*
X107757712Y-89065669D01*
X107753706Y-89050800D01*
X107750821Y-89028602D01*
X107748874Y-88996393D01*
X107747681Y-88951496D01*
X107747061Y-88891228D01*
X107746829Y-88812911D01*
X107746800Y-88746994D01*
X107746871Y-88654628D01*
X107747208Y-88582117D01*
X107747998Y-88526737D01*
X107749426Y-88485765D01*
X107751679Y-88456478D01*
X107754943Y-88436153D01*
X107759404Y-88422066D01*
X107765248Y-88411495D01*
X107770197Y-88404811D01*
X107793594Y-88375067D01*
X108083774Y-88375067D01*
X108180343Y-88375260D01*
G36*
X108968309Y-88375275D02*
X109097288Y-88379636D01*
X109206991Y-88392861D01*
X109299226Y-88415741D01*
X109375802Y-88449070D01*
X109438527Y-88493638D01*
X109489212Y-88550236D01*
X109529663Y-88619658D01*
X109530459Y-88621351D01*
X109554601Y-88683483D01*
X109563203Y-88738509D01*
X109556231Y-88793887D01*
X109533654Y-88857073D01*
X109529372Y-88866689D01*
X109500172Y-88922966D01*
X109467356Y-88966451D01*
X109425002Y-89003417D01*
X109367190Y-89040135D01*
X109363831Y-89042052D01*
X109313504Y-89066227D01*
X109256621Y-89084282D01*
X109189527Y-89096839D01*
X109108565Y-89104522D01*
X109010082Y-89107953D01*
X108975286Y-89108251D01*
X108809594Y-89108845D01*
X108786197Y-89079100D01*
X108779257Y-89069319D01*
X108773842Y-89057897D01*
X108769765Y-89042095D01*
X108766837Y-89019175D01*
X108764867Y-88986396D01*
X108764225Y-88962089D01*
X108920844Y-88962089D01*
X109014726Y-88962089D01*
X109069664Y-88960483D01*
X109126060Y-88956255D01*
X109172345Y-88950292D01*
X109175139Y-88949790D01*
X109257348Y-88927736D01*
X109321114Y-88894600D01*
X109368452Y-88848847D01*
X109401382Y-88788939D01*
X109407108Y-88773061D01*
X109412721Y-88748333D01*
X109410291Y-88723902D01*
X109398467Y-88691400D01*
X109391340Y-88675434D01*
X109368000Y-88633006D01*
X109339880Y-88603240D01*
X109308940Y-88582511D01*
X109246966Y-88555537D01*
X109167651Y-88535998D01*
X109075253Y-88524746D01*
X109008333Y-88522270D01*
X108920844Y-88521822D01*
X108920844Y-88962089D01*
X108764225Y-88962089D01*
X108763668Y-88941021D01*
X108763050Y-88880311D01*
X108762825Y-88801526D01*
X108762800Y-88739920D01*
X108762800Y-88430485D01*
X108790509Y-88402776D01*
X108802806Y-88391544D01*
X108816103Y-88383853D01*
X108834672Y-88379040D01*
X108862786Y-88376446D01*
X108904717Y-88375410D01*
X108964737Y-88375270D01*
X108968309Y-88375275D01*
X108968309Y-88375275D01*
G37*
X108968309Y-88375275D02*
X109097288Y-88379636D01*
X109206991Y-88392861D01*
X109299226Y-88415741D01*
X109375802Y-88449070D01*
X109438527Y-88493638D01*
X109489212Y-88550236D01*
X109529663Y-88619658D01*
X109530459Y-88621351D01*
X109554601Y-88683483D01*
X109563203Y-88738509D01*
X109556231Y-88793887D01*
X109533654Y-88857073D01*
X109529372Y-88866689D01*
X109500172Y-88922966D01*
X109467356Y-88966451D01*
X109425002Y-89003417D01*
X109367190Y-89040135D01*
X109363831Y-89042052D01*
X109313504Y-89066227D01*
X109256621Y-89084282D01*
X109189527Y-89096839D01*
X109108565Y-89104522D01*
X109010082Y-89107953D01*
X108975286Y-89108251D01*
X108809594Y-89108845D01*
X108786197Y-89079100D01*
X108779257Y-89069319D01*
X108773842Y-89057897D01*
X108769765Y-89042095D01*
X108766837Y-89019175D01*
X108764867Y-88986396D01*
X108764225Y-88962089D01*
X108920844Y-88962089D01*
X109014726Y-88962089D01*
X109069664Y-88960483D01*
X109126060Y-88956255D01*
X109172345Y-88950292D01*
X109175139Y-88949790D01*
X109257348Y-88927736D01*
X109321114Y-88894600D01*
X109368452Y-88848847D01*
X109401382Y-88788939D01*
X109407108Y-88773061D01*
X109412721Y-88748333D01*
X109410291Y-88723902D01*
X109398467Y-88691400D01*
X109391340Y-88675434D01*
X109368000Y-88633006D01*
X109339880Y-88603240D01*
X109308940Y-88582511D01*
X109246966Y-88555537D01*
X109167651Y-88535998D01*
X109075253Y-88524746D01*
X109008333Y-88522270D01*
X108920844Y-88521822D01*
X108920844Y-88962089D01*
X108764225Y-88962089D01*
X108763668Y-88941021D01*
X108763050Y-88880311D01*
X108762825Y-88801526D01*
X108762800Y-88739920D01*
X108762800Y-88430485D01*
X108790509Y-88402776D01*
X108802806Y-88391544D01*
X108816103Y-88383853D01*
X108834672Y-88379040D01*
X108862786Y-88376446D01*
X108904717Y-88375410D01*
X108964737Y-88375270D01*
X108968309Y-88375275D01*
G36*
X111694665Y-88377034D02*
X111714255Y-88384035D01*
X111715010Y-88384377D01*
X111741613Y-88404678D01*
X111756270Y-88425561D01*
X111759138Y-88435352D01*
X111758996Y-88448361D01*
X111754961Y-88466895D01*
X111746146Y-88493257D01*
X111731669Y-88529752D01*
X111710645Y-88578687D01*
X111682188Y-88642365D01*
X111645415Y-88723093D01*
X111625175Y-88767216D01*
X111588625Y-88845985D01*
X111554315Y-88918423D01*
X111523552Y-88981880D01*
X111497648Y-89033708D01*
X111477910Y-89071259D01*
X111465650Y-89091884D01*
X111463224Y-89094733D01*
X111432183Y-89107302D01*
X111397121Y-89105619D01*
X111369000Y-89090332D01*
X111367854Y-89089089D01*
X111356668Y-89072154D01*
X111337904Y-89039170D01*
X111313875Y-88994380D01*
X111286897Y-88942032D01*
X111277201Y-88922742D01*
X111204014Y-88776150D01*
X111124240Y-88935393D01*
X111095767Y-88990415D01*
X111069350Y-89038132D01*
X111047148Y-89074893D01*
X111031319Y-89097044D01*
X111025954Y-89101741D01*
X110984257Y-89108102D01*
X110949849Y-89094733D01*
X110939728Y-89080446D01*
X110922214Y-89048692D01*
X110898735Y-89002597D01*
X110870720Y-88945285D01*
X110839599Y-88879880D01*
X110806799Y-88809507D01*
X110773750Y-88737291D01*
X110741881Y-88666355D01*
X110712619Y-88599825D01*
X110687395Y-88540826D01*
X110667636Y-88492481D01*
X110654772Y-88457915D01*
X110650231Y-88440253D01*
X110650277Y-88439613D01*
X110661326Y-88417388D01*
X110683410Y-88394753D01*
X110684710Y-88393768D01*
X110711853Y-88378425D01*
X110736958Y-88378574D01*
X110746368Y-88381466D01*
X110757834Y-88387718D01*
X110770010Y-88400014D01*
X110784357Y-88420908D01*
X110802336Y-88452949D01*
X110825407Y-88498688D01*
X110855030Y-88560677D01*
X110881745Y-88617898D01*
X110912480Y-88684226D01*
X110940021Y-88743874D01*
X110962938Y-88793725D01*
X110979798Y-88830664D01*
X110989173Y-88851573D01*
X110990540Y-88854845D01*
X110996689Y-88849497D01*
X111010822Y-88827109D01*
X111031057Y-88790946D01*
X111055515Y-88744277D01*
X111065248Y-88725022D01*
X111098217Y-88660004D01*
X111123643Y-88612654D01*
X111143612Y-88580219D01*
X111160210Y-88559946D01*
X111175524Y-88549082D01*
X111191640Y-88544875D01*
X111202143Y-88544400D01*
X111220670Y-88546042D01*
X111236904Y-88552831D01*
X111253035Y-88567566D01*
X111271251Y-88593044D01*
X111293739Y-88632061D01*
X111322689Y-88687414D01*
X111338662Y-88718903D01*
X111364570Y-88769087D01*
X111387167Y-88810704D01*
X111404458Y-88840242D01*
X111414450Y-88854189D01*
X111415809Y-88854770D01*
X111422261Y-88843793D01*
X111436708Y-88815290D01*
X111457703Y-88772244D01*
X111483797Y-88717638D01*
X111513546Y-88654454D01*
X111528180Y-88623071D01*
X111566250Y-88542078D01*
X111596905Y-88479756D01*
X111621737Y-88434071D01*
X111642337Y-88402989D01*
X111660298Y-88384478D01*
X111677210Y-88376504D01*
X111694665Y-88377034D01*
X111694665Y-88377034D01*
G37*
X111694665Y-88377034D02*
X111714255Y-88384035D01*
X111715010Y-88384377D01*
X111741613Y-88404678D01*
X111756270Y-88425561D01*
X111759138Y-88435352D01*
X111758996Y-88448361D01*
X111754961Y-88466895D01*
X111746146Y-88493257D01*
X111731669Y-88529752D01*
X111710645Y-88578687D01*
X111682188Y-88642365D01*
X111645415Y-88723093D01*
X111625175Y-88767216D01*
X111588625Y-88845985D01*
X111554315Y-88918423D01*
X111523552Y-88981880D01*
X111497648Y-89033708D01*
X111477910Y-89071259D01*
X111465650Y-89091884D01*
X111463224Y-89094733D01*
X111432183Y-89107302D01*
X111397121Y-89105619D01*
X111369000Y-89090332D01*
X111367854Y-89089089D01*
X111356668Y-89072154D01*
X111337904Y-89039170D01*
X111313875Y-88994380D01*
X111286897Y-88942032D01*
X111277201Y-88922742D01*
X111204014Y-88776150D01*
X111124240Y-88935393D01*
X111095767Y-88990415D01*
X111069350Y-89038132D01*
X111047148Y-89074893D01*
X111031319Y-89097044D01*
X111025954Y-89101741D01*
X110984257Y-89108102D01*
X110949849Y-89094733D01*
X110939728Y-89080446D01*
X110922214Y-89048692D01*
X110898735Y-89002597D01*
X110870720Y-88945285D01*
X110839599Y-88879880D01*
X110806799Y-88809507D01*
X110773750Y-88737291D01*
X110741881Y-88666355D01*
X110712619Y-88599825D01*
X110687395Y-88540826D01*
X110667636Y-88492481D01*
X110654772Y-88457915D01*
X110650231Y-88440253D01*
X110650277Y-88439613D01*
X110661326Y-88417388D01*
X110683410Y-88394753D01*
X110684710Y-88393768D01*
X110711853Y-88378425D01*
X110736958Y-88378574D01*
X110746368Y-88381466D01*
X110757834Y-88387718D01*
X110770010Y-88400014D01*
X110784357Y-88420908D01*
X110802336Y-88452949D01*
X110825407Y-88498688D01*
X110855030Y-88560677D01*
X110881745Y-88617898D01*
X110912480Y-88684226D01*
X110940021Y-88743874D01*
X110962938Y-88793725D01*
X110979798Y-88830664D01*
X110989173Y-88851573D01*
X110990540Y-88854845D01*
X110996689Y-88849497D01*
X111010822Y-88827109D01*
X111031057Y-88790946D01*
X111055515Y-88744277D01*
X111065248Y-88725022D01*
X111098217Y-88660004D01*
X111123643Y-88612654D01*
X111143612Y-88580219D01*
X111160210Y-88559946D01*
X111175524Y-88549082D01*
X111191640Y-88544875D01*
X111202143Y-88544400D01*
X111220670Y-88546042D01*
X111236904Y-88552831D01*
X111253035Y-88567566D01*
X111271251Y-88593044D01*
X111293739Y-88632061D01*
X111322689Y-88687414D01*
X111338662Y-88718903D01*
X111364570Y-88769087D01*
X111387167Y-88810704D01*
X111404458Y-88840242D01*
X111414450Y-88854189D01*
X111415809Y-88854770D01*
X111422261Y-88843793D01*
X111436708Y-88815290D01*
X111457703Y-88772244D01*
X111483797Y-88717638D01*
X111513546Y-88654454D01*
X111528180Y-88623071D01*
X111566250Y-88542078D01*
X111596905Y-88479756D01*
X111621737Y-88434071D01*
X111642337Y-88402989D01*
X111660298Y-88384478D01*
X111677210Y-88376504D01*
X111694665Y-88377034D01*
G36*
X112138614Y-88381877D02*
X112162327Y-88396647D01*
X112188978Y-88418227D01*
X112188978Y-88739773D01*
X112188893Y-88833830D01*
X112188529Y-88907932D01*
X112187724Y-88964704D01*
X112186313Y-89006768D01*
X112184133Y-89036748D01*
X112181021Y-89057267D01*
X112176814Y-89070949D01*
X112171348Y-89080416D01*
X112167472Y-89085082D01*
X112136034Y-89105575D01*
X112100233Y-89104739D01*
X112068873Y-89087264D01*
X112042222Y-89065684D01*
X112042222Y-88418227D01*
X112068873Y-88396647D01*
X112094594Y-88380949D01*
X112115600Y-88375067D01*
X112138614Y-88381877D01*
X112138614Y-88381877D01*
G37*
X112138614Y-88381877D02*
X112162327Y-88396647D01*
X112188978Y-88418227D01*
X112188978Y-88739773D01*
X112188893Y-88833830D01*
X112188529Y-88907932D01*
X112187724Y-88964704D01*
X112186313Y-89006768D01*
X112184133Y-89036748D01*
X112181021Y-89057267D01*
X112176814Y-89070949D01*
X112171348Y-89080416D01*
X112167472Y-89085082D01*
X112136034Y-89105575D01*
X112100233Y-89104739D01*
X112068873Y-89087264D01*
X112042222Y-89065684D01*
X112042222Y-88418227D01*
X112068873Y-88396647D01*
X112094594Y-88380949D01*
X112115600Y-88375067D01*
X112138614Y-88381877D01*
G36*
X112913065Y-88375163D02*
X112991772Y-88375542D01*
X113052863Y-88376333D01*
X113098817Y-88377670D01*
X113132114Y-88379683D01*
X113155236Y-88382506D01*
X113170662Y-88386269D01*
X113180871Y-88391105D01*
X113185813Y-88394822D01*
X113211457Y-88427358D01*
X113214559Y-88461138D01*
X113198711Y-88491826D01*
X113188348Y-88504089D01*
X113177196Y-88512450D01*
X113161035Y-88517657D01*
X113135642Y-88520457D01*
X113096798Y-88521596D01*
X113040280Y-88521821D01*
X113029180Y-88521822D01*
X112883244Y-88521822D01*
X112883244Y-88792756D01*
X112883148Y-88878154D01*
X112882711Y-88943864D01*
X112881712Y-88992774D01*
X112879928Y-89027773D01*
X112877137Y-89051749D01*
X112873117Y-89067593D01*
X112867645Y-89078191D01*
X112860666Y-89086267D01*
X112827734Y-89106112D01*
X112793354Y-89104548D01*
X112762176Y-89081906D01*
X112759886Y-89079100D01*
X112752429Y-89068492D01*
X112746747Y-89056081D01*
X112742601Y-89038850D01*
X112739750Y-89013784D01*
X112737954Y-88977867D01*
X112736972Y-88928083D01*
X112736564Y-88861417D01*
X112736489Y-88785589D01*
X112736489Y-88521822D01*
X112597127Y-88521822D01*
X112537322Y-88521418D01*
X112495918Y-88519840D01*
X112468748Y-88516547D01*
X112451646Y-88510992D01*
X112440443Y-88502631D01*
X112439083Y-88501178D01*
X112422725Y-88467939D01*
X112424172Y-88430362D01*
X112442978Y-88397645D01*
X112450250Y-88391298D01*
X112459627Y-88386266D01*
X112473609Y-88382396D01*
X112494696Y-88379537D01*
X112525389Y-88377535D01*
X112568189Y-88376239D01*
X112625595Y-88375498D01*
X112700110Y-88375158D01*
X112794233Y-88375068D01*
X112814260Y-88375067D01*
X112913065Y-88375163D01*
X112913065Y-88375163D01*
G37*
X112913065Y-88375163D02*
X112991772Y-88375542D01*
X113052863Y-88376333D01*
X113098817Y-88377670D01*
X113132114Y-88379683D01*
X113155236Y-88382506D01*
X113170662Y-88386269D01*
X113180871Y-88391105D01*
X113185813Y-88394822D01*
X113211457Y-88427358D01*
X113214559Y-88461138D01*
X113198711Y-88491826D01*
X113188348Y-88504089D01*
X113177196Y-88512450D01*
X113161035Y-88517657D01*
X113135642Y-88520457D01*
X113096798Y-88521596D01*
X113040280Y-88521821D01*
X113029180Y-88521822D01*
X112883244Y-88521822D01*
X112883244Y-88792756D01*
X112883148Y-88878154D01*
X112882711Y-88943864D01*
X112881712Y-88992774D01*
X112879928Y-89027773D01*
X112877137Y-89051749D01*
X112873117Y-89067593D01*
X112867645Y-89078191D01*
X112860666Y-89086267D01*
X112827734Y-89106112D01*
X112793354Y-89104548D01*
X112762176Y-89081906D01*
X112759886Y-89079100D01*
X112752429Y-89068492D01*
X112746747Y-89056081D01*
X112742601Y-89038850D01*
X112739750Y-89013784D01*
X112737954Y-88977867D01*
X112736972Y-88928083D01*
X112736564Y-88861417D01*
X112736489Y-88785589D01*
X112736489Y-88521822D01*
X112597127Y-88521822D01*
X112537322Y-88521418D01*
X112495918Y-88519840D01*
X112468748Y-88516547D01*
X112451646Y-88510992D01*
X112440443Y-88502631D01*
X112439083Y-88501178D01*
X112422725Y-88467939D01*
X112424172Y-88430362D01*
X112442978Y-88397645D01*
X112450250Y-88391298D01*
X112459627Y-88386266D01*
X112473609Y-88382396D01*
X112494696Y-88379537D01*
X112525389Y-88377535D01*
X112568189Y-88376239D01*
X112625595Y-88375498D01*
X112700110Y-88375158D01*
X112794233Y-88375068D01*
X112814260Y-88375067D01*
X112913065Y-88375163D01*
G36*
X114178823Y-88380533D02*
X114210202Y-88402776D01*
X114237911Y-88430485D01*
X114237911Y-88739920D01*
X114237838Y-88831799D01*
X114237495Y-88903840D01*
X114236692Y-88958780D01*
X114235241Y-88999360D01*
X114232952Y-89028317D01*
X114229636Y-89048391D01*
X114225105Y-89062321D01*
X114219169Y-89072845D01*
X114214514Y-89079100D01*
X114183783Y-89103673D01*
X114148496Y-89106341D01*
X114116245Y-89091271D01*
X114105588Y-89082374D01*
X114098464Y-89070557D01*
X114094167Y-89051526D01*
X114091991Y-89020992D01*
X114091228Y-88974662D01*
X114091155Y-88938871D01*
X114091155Y-88804045D01*
X113594444Y-88804045D01*
X113594444Y-88926700D01*
X113593931Y-88982787D01*
X113591876Y-89021333D01*
X113587508Y-89047361D01*
X113580056Y-89065897D01*
X113571047Y-89079100D01*
X113540144Y-89103604D01*
X113505196Y-89106506D01*
X113471738Y-89089089D01*
X113462604Y-89079959D01*
X113456152Y-89067855D01*
X113451897Y-89049001D01*
X113449352Y-89019620D01*
X113448029Y-88975937D01*
X113447443Y-88914175D01*
X113447375Y-88900000D01*
X113446891Y-88783631D01*
X113446641Y-88687727D01*
X113446723Y-88610177D01*
X113447231Y-88548869D01*
X113448262Y-88501690D01*
X113449913Y-88466530D01*
X113452279Y-88441276D01*
X113455457Y-88423817D01*
X113459544Y-88412041D01*
X113464634Y-88403835D01*
X113470266Y-88397645D01*
X113502128Y-88377844D01*
X113535357Y-88380533D01*
X113566735Y-88402776D01*
X113579433Y-88417126D01*
X113587526Y-88432978D01*
X113592042Y-88455554D01*
X113594006Y-88490078D01*
X113594444Y-88541776D01*
X113594444Y-88657289D01*
X114091155Y-88657289D01*
X114091155Y-88538756D01*
X114091662Y-88484148D01*
X114093698Y-88447275D01*
X114098035Y-88423307D01*
X114105447Y-88407415D01*
X114113733Y-88397645D01*
X114145594Y-88377844D01*
X114178823Y-88380533D01*
X114178823Y-88380533D01*
G37*
X114178823Y-88380533D02*
X114210202Y-88402776D01*
X114237911Y-88430485D01*
X114237911Y-88739920D01*
X114237838Y-88831799D01*
X114237495Y-88903840D01*
X114236692Y-88958780D01*
X114235241Y-88999360D01*
X114232952Y-89028317D01*
X114229636Y-89048391D01*
X114225105Y-89062321D01*
X114219169Y-89072845D01*
X114214514Y-89079100D01*
X114183783Y-89103673D01*
X114148496Y-89106341D01*
X114116245Y-89091271D01*
X114105588Y-89082374D01*
X114098464Y-89070557D01*
X114094167Y-89051526D01*
X114091991Y-89020992D01*
X114091228Y-88974662D01*
X114091155Y-88938871D01*
X114091155Y-88804045D01*
X113594444Y-88804045D01*
X113594444Y-88926700D01*
X113593931Y-88982787D01*
X113591876Y-89021333D01*
X113587508Y-89047361D01*
X113580056Y-89065897D01*
X113571047Y-89079100D01*
X113540144Y-89103604D01*
X113505196Y-89106506D01*
X113471738Y-89089089D01*
X113462604Y-89079959D01*
X113456152Y-89067855D01*
X113451897Y-89049001D01*
X113449352Y-89019620D01*
X113448029Y-88975937D01*
X113447443Y-88914175D01*
X113447375Y-88900000D01*
X113446891Y-88783631D01*
X113446641Y-88687727D01*
X113446723Y-88610177D01*
X113447231Y-88548869D01*
X113448262Y-88501690D01*
X113449913Y-88466530D01*
X113452279Y-88441276D01*
X113455457Y-88423817D01*
X113459544Y-88412041D01*
X113464634Y-88403835D01*
X113470266Y-88397645D01*
X113502128Y-88377844D01*
X113535357Y-88380533D01*
X113566735Y-88402776D01*
X113579433Y-88417126D01*
X113587526Y-88432978D01*
X113592042Y-88455554D01*
X113594006Y-88490078D01*
X113594444Y-88541776D01*
X113594444Y-88657289D01*
X114091155Y-88657289D01*
X114091155Y-88538756D01*
X114091662Y-88484148D01*
X114093698Y-88447275D01*
X114098035Y-88423307D01*
X114105447Y-88407415D01*
X114113733Y-88397645D01*
X114145594Y-88377844D01*
X114178823Y-88380533D01*
G36*
X105003600Y-83595054D02*
X105014465Y-83708993D01*
X105046082Y-83816616D01*
X105096985Y-83915615D01*
X105165707Y-84003684D01*
X105250781Y-84078516D01*
X105347768Y-84136384D01*
X105454036Y-84176005D01*
X105561050Y-84194573D01*
X105666700Y-84193434D01*
X105768875Y-84173930D01*
X105865466Y-84137406D01*
X105954362Y-84085205D01*
X106033454Y-84018673D01*
X106100631Y-83939152D01*
X106153783Y-83847987D01*
X106190801Y-83746523D01*
X106209573Y-83636102D01*
X106211511Y-83586206D01*
X106211511Y-83498267D01*
X106263440Y-83498267D01*
X106299747Y-83501111D01*
X106326645Y-83512911D01*
X106353751Y-83536649D01*
X106392133Y-83575031D01*
X106392133Y-85766602D01*
X106392124Y-86028739D01*
X106392092Y-86269241D01*
X106392028Y-86489048D01*
X106391924Y-86689101D01*
X106391773Y-86870344D01*
X106391566Y-87033716D01*
X106391294Y-87180160D01*
X106390950Y-87310617D01*
X106390526Y-87426029D01*
X106390013Y-87527338D01*
X106389403Y-87615484D01*
X106388688Y-87691410D01*
X106387860Y-87756057D01*
X106386911Y-87810367D01*
X106385833Y-87855280D01*
X106384617Y-87891740D01*
X106383255Y-87920687D01*
X106381739Y-87943063D01*
X106380062Y-87959809D01*
X106378214Y-87971868D01*
X106376187Y-87980180D01*
X106373975Y-87985687D01*
X106372892Y-87987537D01*
X106368729Y-87994549D01*
X106365195Y-88000996D01*
X106361365Y-88006900D01*
X106356318Y-88012286D01*
X106349129Y-88017178D01*
X106338877Y-88021598D01*
X106324636Y-88025572D01*
X106305486Y-88029121D01*
X106280501Y-88032270D01*
X106248760Y-88035042D01*
X106209338Y-88037461D01*
X106161314Y-88039551D01*
X106103763Y-88041335D01*
X106035763Y-88042837D01*
X105956390Y-88044080D01*
X105864721Y-88045089D01*
X105759834Y-88045885D01*
X105640804Y-88046494D01*
X105506710Y-88046939D01*
X105356627Y-88047243D01*
X105189633Y-88047430D01*
X105004804Y-88047524D01*
X104801217Y-88047548D01*
X104577950Y-88047525D01*
X104334078Y-88047480D01*
X104068679Y-88047437D01*
X104030296Y-88047432D01*
X103763318Y-88047389D01*
X103517998Y-88047318D01*
X103293417Y-88047213D01*
X103088655Y-88047066D01*
X102902794Y-88046869D01*
X102734912Y-88046616D01*
X102584092Y-88046300D01*
X102449413Y-88045913D01*
X102329956Y-88045447D01*
X102224801Y-88044897D01*
X102133029Y-88044253D01*
X102053721Y-88043511D01*
X101985957Y-88042661D01*
X101928818Y-88041697D01*
X101881383Y-88040611D01*
X101842734Y-88039397D01*
X101811951Y-88038047D01*
X101788115Y-88036555D01*
X101770306Y-88034911D01*
X101757605Y-88033111D01*
X101749092Y-88031145D01*
X101744734Y-88029477D01*
X101736272Y-88025906D01*
X101728503Y-88023270D01*
X101721398Y-88020634D01*
X101714927Y-88017062D01*
X101709061Y-88011621D01*
X101703771Y-88003375D01*
X101699026Y-87991390D01*
X101694798Y-87974731D01*
X101691057Y-87952463D01*
X101687773Y-87923652D01*
X101684917Y-87887363D01*
X101682460Y-87842661D01*
X101680371Y-87788611D01*
X101678622Y-87724279D01*
X101677183Y-87648730D01*
X101676024Y-87561030D01*
X101675117Y-87460243D01*
X101674431Y-87345434D01*
X101673937Y-87215670D01*
X101673605Y-87070015D01*
X101673407Y-86907535D01*
X101673313Y-86727295D01*
X101673292Y-86528360D01*
X101673315Y-86309796D01*
X101673354Y-86070668D01*
X101673378Y-85810040D01*
X101673378Y-85767889D01*
X101673364Y-85504992D01*
X101673339Y-85263732D01*
X101673329Y-85043165D01*
X101673358Y-84842352D01*
X101673452Y-84660349D01*
X101673638Y-84496216D01*
X101673941Y-84349011D01*
X101674386Y-84217792D01*
X101674966Y-84107867D01*
X101977803Y-84107867D01*
X102017593Y-84165711D01*
X102028764Y-84181479D01*
X102038834Y-84195441D01*
X102047862Y-84208784D01*
X102055903Y-84222693D01*
X102063014Y-84238356D01*
X102069253Y-84256958D01*
X102074675Y-84279686D01*
X102079338Y-84307727D01*
X102083299Y-84342267D01*
X102086615Y-84384492D01*
X102089341Y-84435589D01*
X102091536Y-84496744D01*
X102093255Y-84569144D01*
X102094556Y-84653975D01*
X102095495Y-84752422D01*
X102096130Y-84865674D01*
X102096516Y-84994916D01*
X102096712Y-85141334D01*
X102096773Y-85306116D01*
X102096757Y-85490447D01*
X102096720Y-85695513D01*
X102096711Y-85818133D01*
X102096735Y-86035082D01*
X102096769Y-86230642D01*
X102096757Y-86405999D01*
X102096642Y-86562341D01*
X102096370Y-86700857D01*
X102095882Y-86822734D01*
X102095124Y-86929160D01*
X102094038Y-87021322D01*
X102092569Y-87100409D01*
X102090660Y-87167608D01*
X102088256Y-87224107D01*
X102085299Y-87271093D01*
X102081734Y-87309755D01*
X102077505Y-87341280D01*
X102072554Y-87366855D01*
X102066827Y-87387670D01*
X102060267Y-87404911D01*
X102052817Y-87419765D01*
X102044421Y-87433422D01*
X102035024Y-87447069D01*
X102024568Y-87461893D01*
X102018477Y-87470783D01*
X101979704Y-87528400D01*
X102511268Y-87528400D01*
X102634517Y-87528365D01*
X102737013Y-87528215D01*
X102820580Y-87527878D01*
X102887044Y-87527286D01*
X102938229Y-87526367D01*
X102975959Y-87525051D01*
X103002060Y-87523269D01*
X103018356Y-87520951D01*
X103026672Y-87518026D01*
X103028832Y-87514424D01*
X103026661Y-87510075D01*
X103025465Y-87508645D01*
X103000315Y-87471573D01*
X102974417Y-87418772D01*
X102950808Y-87356770D01*
X102942539Y-87330357D01*
X102937922Y-87312416D01*
X102934021Y-87291355D01*
X102930752Y-87265089D01*
X102928034Y-87231532D01*
X102925785Y-87188599D01*
X102923923Y-87134204D01*
X102922364Y-87066262D01*
X102921028Y-86982688D01*
X102919831Y-86881395D01*
X102918692Y-86760300D01*
X102918315Y-86715600D01*
X102917298Y-86590449D01*
X102916540Y-86486082D01*
X102916097Y-86400707D01*
X102916030Y-86332533D01*
X102916395Y-86279765D01*
X102917252Y-86240614D01*
X102918659Y-86213285D01*
X102920675Y-86195986D01*
X102923357Y-86186926D01*
X102926764Y-86184312D01*
X102930956Y-86186351D01*
X102935429Y-86190667D01*
X102945784Y-86203602D01*
X102967842Y-86232676D01*
X103000043Y-86275759D01*
X103040826Y-86330718D01*
X103088630Y-86395423D01*
X103141895Y-86467742D01*
X103199060Y-86545544D01*
X103258563Y-86626698D01*
X103318845Y-86709072D01*
X103378345Y-86790536D01*
X103435502Y-86868957D01*
X103488755Y-86942204D01*
X103536543Y-87008147D01*
X103577307Y-87064654D01*
X103609484Y-87109593D01*
X103631515Y-87140834D01*
X103636083Y-87147466D01*
X103659004Y-87184369D01*
X103685812Y-87232359D01*
X103711211Y-87281897D01*
X103714432Y-87288577D01*
X103736110Y-87336772D01*
X103748696Y-87374334D01*
X103754426Y-87410160D01*
X103755544Y-87452200D01*
X103754910Y-87528400D01*
X104909349Y-87528400D01*
X104818185Y-87434669D01*
X104771388Y-87384775D01*
X104721101Y-87328295D01*
X104675056Y-87274026D01*
X104654631Y-87248673D01*
X104624193Y-87209128D01*
X104584138Y-87155916D01*
X104535639Y-87090667D01*
X104479865Y-87015011D01*
X104417989Y-86930577D01*
X104351181Y-86838994D01*
X104280613Y-86741892D01*
X104207455Y-86640901D01*
X104132879Y-86537650D01*
X104058056Y-86433768D01*
X103984157Y-86330885D01*
X103912354Y-86230631D01*
X103843816Y-86134636D01*
X103779716Y-86044527D01*
X103721225Y-85961936D01*
X103669514Y-85888492D01*
X103625753Y-85825824D01*
X103591115Y-85775561D01*
X103566770Y-85739334D01*
X103553889Y-85718771D01*
X103552131Y-85714668D01*
X103560090Y-85703342D01*
X103580885Y-85676162D01*
X103613153Y-85634829D01*
X103655530Y-85581044D01*
X103706653Y-85516506D01*
X103765159Y-85442918D01*
X103829686Y-85361978D01*
X103898869Y-85275388D01*
X103971347Y-85184848D01*
X104045754Y-85092060D01*
X104105483Y-85017702D01*
X105116489Y-85017702D01*
X105122398Y-85030659D01*
X105136728Y-85052908D01*
X105137775Y-85054391D01*
X105156562Y-85084544D01*
X105176209Y-85121375D01*
X105180108Y-85129511D01*
X105183644Y-85137940D01*
X105186770Y-85148059D01*
X105189514Y-85161260D01*
X105191908Y-85178938D01*
X105193981Y-85202484D01*
X105195765Y-85233293D01*
X105197288Y-85272757D01*
X105198581Y-85322269D01*
X105199674Y-85383223D01*
X105200597Y-85457011D01*
X105201381Y-85545028D01*
X105202055Y-85648665D01*
X105202650Y-85769316D01*
X105203195Y-85908374D01*
X105203721Y-86067232D01*
X105204255Y-86246089D01*
X105204794Y-86431207D01*
X105205228Y-86595145D01*
X105205491Y-86739303D01*
X105205516Y-86865079D01*
X105205235Y-86973871D01*
X105204581Y-87067077D01*
X105203486Y-87146097D01*
X105201882Y-87212328D01*
X105199703Y-87267170D01*
X105196881Y-87312021D01*
X105193349Y-87348278D01*
X105189039Y-87377341D01*
X105183883Y-87400609D01*
X105177815Y-87419479D01*
X105170767Y-87435351D01*
X105162671Y-87449622D01*
X105153460Y-87463691D01*
X105144960Y-87476158D01*
X105127824Y-87502452D01*
X105117678Y-87520037D01*
X105116489Y-87523257D01*
X105127396Y-87524334D01*
X105158589Y-87525335D01*
X105207777Y-87526235D01*
X105272667Y-87527010D01*
X105350970Y-87527637D01*
X105440393Y-87528091D01*
X105538644Y-87528349D01*
X105607555Y-87528400D01*
X105712548Y-87528180D01*
X105809390Y-87527548D01*
X105895893Y-87526549D01*
X105969868Y-87525227D01*
X106029126Y-87523626D01*
X106071480Y-87521791D01*
X106094740Y-87519765D01*
X106098622Y-87518493D01*
X106090924Y-87503591D01*
X106082926Y-87495560D01*
X106069754Y-87478434D01*
X106052515Y-87448183D01*
X106040593Y-87423622D01*
X106013955Y-87364711D01*
X106010880Y-86187845D01*
X106007805Y-85010978D01*
X105562147Y-85010978D01*
X105464330Y-85011142D01*
X105373936Y-85011611D01*
X105293370Y-85012347D01*
X105225038Y-85013316D01*
X105171344Y-85014480D01*
X105134695Y-85015803D01*
X105117496Y-85017249D01*
X105116489Y-85017702D01*
X104105483Y-85017702D01*
X104120730Y-84998722D01*
X104194910Y-84906537D01*
X104266931Y-84817204D01*
X104335431Y-84732424D01*
X104399045Y-84653898D01*
X104456412Y-84583326D01*
X104506167Y-84522409D01*
X104546948Y-84472847D01*
X104564112Y-84452178D01*
X104650404Y-84351516D01*
X104727003Y-84268259D01*
X104795817Y-84200438D01*
X104858752Y-84146089D01*
X104868133Y-84138722D01*
X104907644Y-84108117D01*
X103775884Y-84107867D01*
X103781173Y-84155844D01*
X103777870Y-84213188D01*
X103756339Y-84281463D01*
X103716365Y-84361212D01*
X103671057Y-84433495D01*
X103654839Y-84456140D01*
X103626786Y-84493696D01*
X103588570Y-84544021D01*
X103541863Y-84604973D01*
X103488339Y-84674411D01*
X103429669Y-84750194D01*
X103367525Y-84830180D01*
X103303579Y-84912228D01*
X103239505Y-84994196D01*
X103176973Y-85073943D01*
X103117657Y-85149327D01*
X103063229Y-85218207D01*
X103015361Y-85278442D01*
X102975725Y-85327889D01*
X102945994Y-85364408D01*
X102927839Y-85385858D01*
X102924780Y-85389156D01*
X102921921Y-85381149D01*
X102919707Y-85350855D01*
X102918143Y-85298556D01*
X102917233Y-85224531D01*
X102916980Y-85129063D01*
X102917387Y-85012434D01*
X102918296Y-84892445D01*
X102919618Y-84760333D01*
X102921143Y-84648594D01*
X102923119Y-84555025D01*
X102925794Y-84477419D01*
X102929418Y-84413574D01*
X102934239Y-84361283D01*
X102940506Y-84318344D01*
X102948468Y-84282551D01*
X102958373Y-84251700D01*
X102970469Y-84223586D01*
X102985007Y-84196005D01*
X102999689Y-84170966D01*
X103037686Y-84107867D01*
X101977803Y-84107867D01*
X101674966Y-84107867D01*
X101674999Y-84101617D01*
X101675805Y-83999544D01*
X101676830Y-83910633D01*
X101678100Y-83833941D01*
X101679640Y-83768527D01*
X101681476Y-83713449D01*
X101683633Y-83667765D01*
X101686137Y-83630534D01*
X101689013Y-83600813D01*
X101692287Y-83577662D01*
X101695985Y-83560139D01*
X101700131Y-83547301D01*
X101704753Y-83538208D01*
X101709874Y-83531918D01*
X101715522Y-83527488D01*
X101721721Y-83523978D01*
X101728496Y-83520445D01*
X101734492Y-83516876D01*
X101739725Y-83514300D01*
X101747901Y-83511972D01*
X101760114Y-83509878D01*
X101777459Y-83508007D01*
X101801031Y-83506347D01*
X101831923Y-83504884D01*
X101871232Y-83503608D01*
X101920050Y-83502504D01*
X101979473Y-83501561D01*
X102050596Y-83500767D01*
X102134512Y-83500109D01*
X102232317Y-83499575D01*
X102345106Y-83499153D01*
X102473971Y-83498829D01*
X102620009Y-83498592D01*
X102784314Y-83498430D01*
X102967980Y-83498330D01*
X103172103Y-83498280D01*
X103383247Y-83498267D01*
X105003600Y-83498267D01*
X105003600Y-83595054D01*
X105003600Y-83595054D01*
G37*
X105003600Y-83595054D02*
X105014465Y-83708993D01*
X105046082Y-83816616D01*
X105096985Y-83915615D01*
X105165707Y-84003684D01*
X105250781Y-84078516D01*
X105347768Y-84136384D01*
X105454036Y-84176005D01*
X105561050Y-84194573D01*
X105666700Y-84193434D01*
X105768875Y-84173930D01*
X105865466Y-84137406D01*
X105954362Y-84085205D01*
X106033454Y-84018673D01*
X106100631Y-83939152D01*
X106153783Y-83847987D01*
X106190801Y-83746523D01*
X106209573Y-83636102D01*
X106211511Y-83586206D01*
X106211511Y-83498267D01*
X106263440Y-83498267D01*
X106299747Y-83501111D01*
X106326645Y-83512911D01*
X106353751Y-83536649D01*
X106392133Y-83575031D01*
X106392133Y-85766602D01*
X106392124Y-86028739D01*
X106392092Y-86269241D01*
X106392028Y-86489048D01*
X106391924Y-86689101D01*
X106391773Y-86870344D01*
X106391566Y-87033716D01*
X106391294Y-87180160D01*
X106390950Y-87310617D01*
X106390526Y-87426029D01*
X106390013Y-87527338D01*
X106389403Y-87615484D01*
X106388688Y-87691410D01*
X106387860Y-87756057D01*
X106386911Y-87810367D01*
X106385833Y-87855280D01*
X106384617Y-87891740D01*
X106383255Y-87920687D01*
X106381739Y-87943063D01*
X106380062Y-87959809D01*
X106378214Y-87971868D01*
X106376187Y-87980180D01*
X106373975Y-87985687D01*
X106372892Y-87987537D01*
X106368729Y-87994549D01*
X106365195Y-88000996D01*
X106361365Y-88006900D01*
X106356318Y-88012286D01*
X106349129Y-88017178D01*
X106338877Y-88021598D01*
X106324636Y-88025572D01*
X106305486Y-88029121D01*
X106280501Y-88032270D01*
X106248760Y-88035042D01*
X106209338Y-88037461D01*
X106161314Y-88039551D01*
X106103763Y-88041335D01*
X106035763Y-88042837D01*
X105956390Y-88044080D01*
X105864721Y-88045089D01*
X105759834Y-88045885D01*
X105640804Y-88046494D01*
X105506710Y-88046939D01*
X105356627Y-88047243D01*
X105189633Y-88047430D01*
X105004804Y-88047524D01*
X104801217Y-88047548D01*
X104577950Y-88047525D01*
X104334078Y-88047480D01*
X104068679Y-88047437D01*
X104030296Y-88047432D01*
X103763318Y-88047389D01*
X103517998Y-88047318D01*
X103293417Y-88047213D01*
X103088655Y-88047066D01*
X102902794Y-88046869D01*
X102734912Y-88046616D01*
X102584092Y-88046300D01*
X102449413Y-88045913D01*
X102329956Y-88045447D01*
X102224801Y-88044897D01*
X102133029Y-88044253D01*
X102053721Y-88043511D01*
X101985957Y-88042661D01*
X101928818Y-88041697D01*
X101881383Y-88040611D01*
X101842734Y-88039397D01*
X101811951Y-88038047D01*
X101788115Y-88036555D01*
X101770306Y-88034911D01*
X101757605Y-88033111D01*
X101749092Y-88031145D01*
X101744734Y-88029477D01*
X101736272Y-88025906D01*
X101728503Y-88023270D01*
X101721398Y-88020634D01*
X101714927Y-88017062D01*
X101709061Y-88011621D01*
X101703771Y-88003375D01*
X101699026Y-87991390D01*
X101694798Y-87974731D01*
X101691057Y-87952463D01*
X101687773Y-87923652D01*
X101684917Y-87887363D01*
X101682460Y-87842661D01*
X101680371Y-87788611D01*
X101678622Y-87724279D01*
X101677183Y-87648730D01*
X101676024Y-87561030D01*
X101675117Y-87460243D01*
X101674431Y-87345434D01*
X101673937Y-87215670D01*
X101673605Y-87070015D01*
X101673407Y-86907535D01*
X101673313Y-86727295D01*
X101673292Y-86528360D01*
X101673315Y-86309796D01*
X101673354Y-86070668D01*
X101673378Y-85810040D01*
X101673378Y-85767889D01*
X101673364Y-85504992D01*
X101673339Y-85263732D01*
X101673329Y-85043165D01*
X101673358Y-84842352D01*
X101673452Y-84660349D01*
X101673638Y-84496216D01*
X101673941Y-84349011D01*
X101674386Y-84217792D01*
X101674966Y-84107867D01*
X101977803Y-84107867D01*
X102017593Y-84165711D01*
X102028764Y-84181479D01*
X102038834Y-84195441D01*
X102047862Y-84208784D01*
X102055903Y-84222693D01*
X102063014Y-84238356D01*
X102069253Y-84256958D01*
X102074675Y-84279686D01*
X102079338Y-84307727D01*
X102083299Y-84342267D01*
X102086615Y-84384492D01*
X102089341Y-84435589D01*
X102091536Y-84496744D01*
X102093255Y-84569144D01*
X102094556Y-84653975D01*
X102095495Y-84752422D01*
X102096130Y-84865674D01*
X102096516Y-84994916D01*
X102096712Y-85141334D01*
X102096773Y-85306116D01*
X102096757Y-85490447D01*
X102096720Y-85695513D01*
X102096711Y-85818133D01*
X102096735Y-86035082D01*
X102096769Y-86230642D01*
X102096757Y-86405999D01*
X102096642Y-86562341D01*
X102096370Y-86700857D01*
X102095882Y-86822734D01*
X102095124Y-86929160D01*
X102094038Y-87021322D01*
X102092569Y-87100409D01*
X102090660Y-87167608D01*
X102088256Y-87224107D01*
X102085299Y-87271093D01*
X102081734Y-87309755D01*
X102077505Y-87341280D01*
X102072554Y-87366855D01*
X102066827Y-87387670D01*
X102060267Y-87404911D01*
X102052817Y-87419765D01*
X102044421Y-87433422D01*
X102035024Y-87447069D01*
X102024568Y-87461893D01*
X102018477Y-87470783D01*
X101979704Y-87528400D01*
X102511268Y-87528400D01*
X102634517Y-87528365D01*
X102737013Y-87528215D01*
X102820580Y-87527878D01*
X102887044Y-87527286D01*
X102938229Y-87526367D01*
X102975959Y-87525051D01*
X103002060Y-87523269D01*
X103018356Y-87520951D01*
X103026672Y-87518026D01*
X103028832Y-87514424D01*
X103026661Y-87510075D01*
X103025465Y-87508645D01*
X103000315Y-87471573D01*
X102974417Y-87418772D01*
X102950808Y-87356770D01*
X102942539Y-87330357D01*
X102937922Y-87312416D01*
X102934021Y-87291355D01*
X102930752Y-87265089D01*
X102928034Y-87231532D01*
X102925785Y-87188599D01*
X102923923Y-87134204D01*
X102922364Y-87066262D01*
X102921028Y-86982688D01*
X102919831Y-86881395D01*
X102918692Y-86760300D01*
X102918315Y-86715600D01*
X102917298Y-86590449D01*
X102916540Y-86486082D01*
X102916097Y-86400707D01*
X102916030Y-86332533D01*
X102916395Y-86279765D01*
X102917252Y-86240614D01*
X102918659Y-86213285D01*
X102920675Y-86195986D01*
X102923357Y-86186926D01*
X102926764Y-86184312D01*
X102930956Y-86186351D01*
X102935429Y-86190667D01*
X102945784Y-86203602D01*
X102967842Y-86232676D01*
X103000043Y-86275759D01*
X103040826Y-86330718D01*
X103088630Y-86395423D01*
X103141895Y-86467742D01*
X103199060Y-86545544D01*
X103258563Y-86626698D01*
X103318845Y-86709072D01*
X103378345Y-86790536D01*
X103435502Y-86868957D01*
X103488755Y-86942204D01*
X103536543Y-87008147D01*
X103577307Y-87064654D01*
X103609484Y-87109593D01*
X103631515Y-87140834D01*
X103636083Y-87147466D01*
X103659004Y-87184369D01*
X103685812Y-87232359D01*
X103711211Y-87281897D01*
X103714432Y-87288577D01*
X103736110Y-87336772D01*
X103748696Y-87374334D01*
X103754426Y-87410160D01*
X103755544Y-87452200D01*
X103754910Y-87528400D01*
X104909349Y-87528400D01*
X104818185Y-87434669D01*
X104771388Y-87384775D01*
X104721101Y-87328295D01*
X104675056Y-87274026D01*
X104654631Y-87248673D01*
X104624193Y-87209128D01*
X104584138Y-87155916D01*
X104535639Y-87090667D01*
X104479865Y-87015011D01*
X104417989Y-86930577D01*
X104351181Y-86838994D01*
X104280613Y-86741892D01*
X104207455Y-86640901D01*
X104132879Y-86537650D01*
X104058056Y-86433768D01*
X103984157Y-86330885D01*
X103912354Y-86230631D01*
X103843816Y-86134636D01*
X103779716Y-86044527D01*
X103721225Y-85961936D01*
X103669514Y-85888492D01*
X103625753Y-85825824D01*
X103591115Y-85775561D01*
X103566770Y-85739334D01*
X103553889Y-85718771D01*
X103552131Y-85714668D01*
X103560090Y-85703342D01*
X103580885Y-85676162D01*
X103613153Y-85634829D01*
X103655530Y-85581044D01*
X103706653Y-85516506D01*
X103765159Y-85442918D01*
X103829686Y-85361978D01*
X103898869Y-85275388D01*
X103971347Y-85184848D01*
X104045754Y-85092060D01*
X104105483Y-85017702D01*
X105116489Y-85017702D01*
X105122398Y-85030659D01*
X105136728Y-85052908D01*
X105137775Y-85054391D01*
X105156562Y-85084544D01*
X105176209Y-85121375D01*
X105180108Y-85129511D01*
X105183644Y-85137940D01*
X105186770Y-85148059D01*
X105189514Y-85161260D01*
X105191908Y-85178938D01*
X105193981Y-85202484D01*
X105195765Y-85233293D01*
X105197288Y-85272757D01*
X105198581Y-85322269D01*
X105199674Y-85383223D01*
X105200597Y-85457011D01*
X105201381Y-85545028D01*
X105202055Y-85648665D01*
X105202650Y-85769316D01*
X105203195Y-85908374D01*
X105203721Y-86067232D01*
X105204255Y-86246089D01*
X105204794Y-86431207D01*
X105205228Y-86595145D01*
X105205491Y-86739303D01*
X105205516Y-86865079D01*
X105205235Y-86973871D01*
X105204581Y-87067077D01*
X105203486Y-87146097D01*
X105201882Y-87212328D01*
X105199703Y-87267170D01*
X105196881Y-87312021D01*
X105193349Y-87348278D01*
X105189039Y-87377341D01*
X105183883Y-87400609D01*
X105177815Y-87419479D01*
X105170767Y-87435351D01*
X105162671Y-87449622D01*
X105153460Y-87463691D01*
X105144960Y-87476158D01*
X105127824Y-87502452D01*
X105117678Y-87520037D01*
X105116489Y-87523257D01*
X105127396Y-87524334D01*
X105158589Y-87525335D01*
X105207777Y-87526235D01*
X105272667Y-87527010D01*
X105350970Y-87527637D01*
X105440393Y-87528091D01*
X105538644Y-87528349D01*
X105607555Y-87528400D01*
X105712548Y-87528180D01*
X105809390Y-87527548D01*
X105895893Y-87526549D01*
X105969868Y-87525227D01*
X106029126Y-87523626D01*
X106071480Y-87521791D01*
X106094740Y-87519765D01*
X106098622Y-87518493D01*
X106090924Y-87503591D01*
X106082926Y-87495560D01*
X106069754Y-87478434D01*
X106052515Y-87448183D01*
X106040593Y-87423622D01*
X106013955Y-87364711D01*
X106010880Y-86187845D01*
X106007805Y-85010978D01*
X105562147Y-85010978D01*
X105464330Y-85011142D01*
X105373936Y-85011611D01*
X105293370Y-85012347D01*
X105225038Y-85013316D01*
X105171344Y-85014480D01*
X105134695Y-85015803D01*
X105117496Y-85017249D01*
X105116489Y-85017702D01*
X104105483Y-85017702D01*
X104120730Y-84998722D01*
X104194910Y-84906537D01*
X104266931Y-84817204D01*
X104335431Y-84732424D01*
X104399045Y-84653898D01*
X104456412Y-84583326D01*
X104506167Y-84522409D01*
X104546948Y-84472847D01*
X104564112Y-84452178D01*
X104650404Y-84351516D01*
X104727003Y-84268259D01*
X104795817Y-84200438D01*
X104858752Y-84146089D01*
X104868133Y-84138722D01*
X104907644Y-84108117D01*
X103775884Y-84107867D01*
X103781173Y-84155844D01*
X103777870Y-84213188D01*
X103756339Y-84281463D01*
X103716365Y-84361212D01*
X103671057Y-84433495D01*
X103654839Y-84456140D01*
X103626786Y-84493696D01*
X103588570Y-84544021D01*
X103541863Y-84604973D01*
X103488339Y-84674411D01*
X103429669Y-84750194D01*
X103367525Y-84830180D01*
X103303579Y-84912228D01*
X103239505Y-84994196D01*
X103176973Y-85073943D01*
X103117657Y-85149327D01*
X103063229Y-85218207D01*
X103015361Y-85278442D01*
X102975725Y-85327889D01*
X102945994Y-85364408D01*
X102927839Y-85385858D01*
X102924780Y-85389156D01*
X102921921Y-85381149D01*
X102919707Y-85350855D01*
X102918143Y-85298556D01*
X102917233Y-85224531D01*
X102916980Y-85129063D01*
X102917387Y-85012434D01*
X102918296Y-84892445D01*
X102919618Y-84760333D01*
X102921143Y-84648594D01*
X102923119Y-84555025D01*
X102925794Y-84477419D01*
X102929418Y-84413574D01*
X102934239Y-84361283D01*
X102940506Y-84318344D01*
X102948468Y-84282551D01*
X102958373Y-84251700D01*
X102970469Y-84223586D01*
X102985007Y-84196005D01*
X102999689Y-84170966D01*
X103037686Y-84107867D01*
X101977803Y-84107867D01*
X101674966Y-84107867D01*
X101674999Y-84101617D01*
X101675805Y-83999544D01*
X101676830Y-83910633D01*
X101678100Y-83833941D01*
X101679640Y-83768527D01*
X101681476Y-83713449D01*
X101683633Y-83667765D01*
X101686137Y-83630534D01*
X101689013Y-83600813D01*
X101692287Y-83577662D01*
X101695985Y-83560139D01*
X101700131Y-83547301D01*
X101704753Y-83538208D01*
X101709874Y-83531918D01*
X101715522Y-83527488D01*
X101721721Y-83523978D01*
X101728496Y-83520445D01*
X101734492Y-83516876D01*
X101739725Y-83514300D01*
X101747901Y-83511972D01*
X101760114Y-83509878D01*
X101777459Y-83508007D01*
X101801031Y-83506347D01*
X101831923Y-83504884D01*
X101871232Y-83503608D01*
X101920050Y-83502504D01*
X101979473Y-83501561D01*
X102050596Y-83500767D01*
X102134512Y-83500109D01*
X102232317Y-83499575D01*
X102345106Y-83499153D01*
X102473971Y-83498829D01*
X102620009Y-83498592D01*
X102784314Y-83498430D01*
X102967980Y-83498330D01*
X103172103Y-83498280D01*
X103383247Y-83498267D01*
X105003600Y-83498267D01*
X105003600Y-83595054D01*
G36*
X108278429Y-84055071D02*
X108438570Y-84076245D01*
X108602510Y-84116385D01*
X108772313Y-84175889D01*
X108950043Y-84255154D01*
X108961310Y-84260699D01*
X109019005Y-84288725D01*
X109070552Y-84312802D01*
X109112191Y-84331249D01*
X109140162Y-84342386D01*
X109149733Y-84344933D01*
X109168950Y-84349941D01*
X109173561Y-84354147D01*
X109168458Y-84364580D01*
X109152418Y-84390868D01*
X109127288Y-84430257D01*
X109094914Y-84479991D01*
X109057143Y-84537315D01*
X109015822Y-84599476D01*
X108972798Y-84663718D01*
X108929917Y-84727285D01*
X108889026Y-84787425D01*
X108851971Y-84841380D01*
X108820600Y-84886397D01*
X108796759Y-84919721D01*
X108782294Y-84938597D01*
X108780309Y-84940787D01*
X108770191Y-84936138D01*
X108747850Y-84918962D01*
X108717280Y-84892440D01*
X108701536Y-84877964D01*
X108605047Y-84802682D01*
X108498336Y-84747241D01*
X108382832Y-84712141D01*
X108259962Y-84697880D01*
X108190561Y-84699051D01*
X108069423Y-84716212D01*
X107960205Y-84752094D01*
X107862582Y-84806959D01*
X107776228Y-84881070D01*
X107700815Y-84974688D01*
X107636018Y-85088076D01*
X107598601Y-85174667D01*
X107554748Y-85310366D01*
X107522428Y-85457850D01*
X107501557Y-85613314D01*
X107492051Y-85772956D01*
X107493827Y-85932973D01*
X107506803Y-86089561D01*
X107530894Y-86238918D01*
X107566018Y-86377240D01*
X107612092Y-86500724D01*
X107628373Y-86534978D01*
X107696620Y-86649064D01*
X107777079Y-86745557D01*
X107868570Y-86823670D01*
X107969911Y-86882617D01*
X108079920Y-86921612D01*
X108197415Y-86939868D01*
X108238883Y-86941211D01*
X108360441Y-86930290D01*
X108480878Y-86897474D01*
X108598666Y-86843439D01*
X108712277Y-86768865D01*
X108803685Y-86690539D01*
X108850215Y-86646008D01*
X109031483Y-86943271D01*
X109076580Y-87017433D01*
X109117819Y-87085646D01*
X109153735Y-87145459D01*
X109182866Y-87194420D01*
X109203750Y-87230079D01*
X109214924Y-87249984D01*
X109216375Y-87253079D01*
X109208146Y-87262718D01*
X109182567Y-87279999D01*
X109142873Y-87303283D01*
X109092297Y-87330934D01*
X109034074Y-87361315D01*
X108971437Y-87392790D01*
X108907621Y-87423722D01*
X108845860Y-87452473D01*
X108789388Y-87477408D01*
X108741438Y-87496889D01*
X108717986Y-87505318D01*
X108584221Y-87543133D01*
X108446327Y-87568136D01*
X108298622Y-87581140D01*
X108171833Y-87583468D01*
X108103878Y-87582373D01*
X108038277Y-87580275D01*
X107980847Y-87577434D01*
X107937403Y-87574106D01*
X107923298Y-87572422D01*
X107784284Y-87543587D01*
X107642757Y-87498468D01*
X107505275Y-87439750D01*
X107378394Y-87370120D01*
X107300889Y-87317441D01*
X107173481Y-87209239D01*
X107055178Y-87082671D01*
X106948172Y-86940866D01*
X106854652Y-86786951D01*
X106776810Y-86624053D01*
X106732956Y-86506756D01*
X106682708Y-86323128D01*
X106649209Y-86128581D01*
X106632449Y-85927325D01*
X106632416Y-85723568D01*
X106649101Y-85521521D01*
X106682493Y-85325392D01*
X106732580Y-85139391D01*
X106736397Y-85127803D01*
X106799281Y-84965750D01*
X106876028Y-84817832D01*
X106969242Y-84679865D01*
X107081527Y-84547661D01*
X107125392Y-84502399D01*
X107261534Y-84378457D01*
X107401491Y-84275915D01*
X107547411Y-84193656D01*
X107701442Y-84130564D01*
X107865732Y-84085523D01*
X107961289Y-84068033D01*
X108120023Y-84052466D01*
X108278429Y-84055071D01*
X108278429Y-84055071D01*
G37*
X108278429Y-84055071D02*
X108438570Y-84076245D01*
X108602510Y-84116385D01*
X108772313Y-84175889D01*
X108950043Y-84255154D01*
X108961310Y-84260699D01*
X109019005Y-84288725D01*
X109070552Y-84312802D01*
X109112191Y-84331249D01*
X109140162Y-84342386D01*
X109149733Y-84344933D01*
X109168950Y-84349941D01*
X109173561Y-84354147D01*
X109168458Y-84364580D01*
X109152418Y-84390868D01*
X109127288Y-84430257D01*
X109094914Y-84479991D01*
X109057143Y-84537315D01*
X109015822Y-84599476D01*
X108972798Y-84663718D01*
X108929917Y-84727285D01*
X108889026Y-84787425D01*
X108851971Y-84841380D01*
X108820600Y-84886397D01*
X108796759Y-84919721D01*
X108782294Y-84938597D01*
X108780309Y-84940787D01*
X108770191Y-84936138D01*
X108747850Y-84918962D01*
X108717280Y-84892440D01*
X108701536Y-84877964D01*
X108605047Y-84802682D01*
X108498336Y-84747241D01*
X108382832Y-84712141D01*
X108259962Y-84697880D01*
X108190561Y-84699051D01*
X108069423Y-84716212D01*
X107960205Y-84752094D01*
X107862582Y-84806959D01*
X107776228Y-84881070D01*
X107700815Y-84974688D01*
X107636018Y-85088076D01*
X107598601Y-85174667D01*
X107554748Y-85310366D01*
X107522428Y-85457850D01*
X107501557Y-85613314D01*
X107492051Y-85772956D01*
X107493827Y-85932973D01*
X107506803Y-86089561D01*
X107530894Y-86238918D01*
X107566018Y-86377240D01*
X107612092Y-86500724D01*
X107628373Y-86534978D01*
X107696620Y-86649064D01*
X107777079Y-86745557D01*
X107868570Y-86823670D01*
X107969911Y-86882617D01*
X108079920Y-86921612D01*
X108197415Y-86939868D01*
X108238883Y-86941211D01*
X108360441Y-86930290D01*
X108480878Y-86897474D01*
X108598666Y-86843439D01*
X108712277Y-86768865D01*
X108803685Y-86690539D01*
X108850215Y-86646008D01*
X109031483Y-86943271D01*
X109076580Y-87017433D01*
X109117819Y-87085646D01*
X109153735Y-87145459D01*
X109182866Y-87194420D01*
X109203750Y-87230079D01*
X109214924Y-87249984D01*
X109216375Y-87253079D01*
X109208146Y-87262718D01*
X109182567Y-87279999D01*
X109142873Y-87303283D01*
X109092297Y-87330934D01*
X109034074Y-87361315D01*
X108971437Y-87392790D01*
X108907621Y-87423722D01*
X108845860Y-87452473D01*
X108789388Y-87477408D01*
X108741438Y-87496889D01*
X108717986Y-87505318D01*
X108584221Y-87543133D01*
X108446327Y-87568136D01*
X108298622Y-87581140D01*
X108171833Y-87583468D01*
X108103878Y-87582373D01*
X108038277Y-87580275D01*
X107980847Y-87577434D01*
X107937403Y-87574106D01*
X107923298Y-87572422D01*
X107784284Y-87543587D01*
X107642757Y-87498468D01*
X107505275Y-87439750D01*
X107378394Y-87370120D01*
X107300889Y-87317441D01*
X107173481Y-87209239D01*
X107055178Y-87082671D01*
X106948172Y-86940866D01*
X106854652Y-86786951D01*
X106776810Y-86624053D01*
X106732956Y-86506756D01*
X106682708Y-86323128D01*
X106649209Y-86128581D01*
X106632449Y-85927325D01*
X106632416Y-85723568D01*
X106649101Y-85521521D01*
X106682493Y-85325392D01*
X106732580Y-85139391D01*
X106736397Y-85127803D01*
X106799281Y-84965750D01*
X106876028Y-84817832D01*
X106969242Y-84679865D01*
X107081527Y-84547661D01*
X107125392Y-84502399D01*
X107261534Y-84378457D01*
X107401491Y-84275915D01*
X107547411Y-84193656D01*
X107701442Y-84130564D01*
X107865732Y-84085523D01*
X107961289Y-84068033D01*
X108120023Y-84052466D01*
X108278429Y-84055071D01*
G36*
X110623574Y-84972552D02*
X110775492Y-84992567D01*
X110910756Y-85026202D01*
X111030239Y-85073725D01*
X111134815Y-85135405D01*
X111212424Y-85198965D01*
X111281265Y-85273099D01*
X111335006Y-85352871D01*
X111377910Y-85445091D01*
X111393384Y-85488161D01*
X111406244Y-85527142D01*
X111417446Y-85563289D01*
X111427120Y-85598434D01*
X111435396Y-85634410D01*
X111442403Y-85673050D01*
X111448272Y-85716185D01*
X111453131Y-85765649D01*
X111457110Y-85823273D01*
X111460340Y-85890891D01*
X111462949Y-85970334D01*
X111465067Y-86063436D01*
X111466824Y-86172027D01*
X111468349Y-86297942D01*
X111469772Y-86443012D01*
X111471025Y-86585778D01*
X111472351Y-86741968D01*
X111473556Y-86877239D01*
X111474766Y-86993246D01*
X111476106Y-87091645D01*
X111477700Y-87174093D01*
X111479675Y-87242246D01*
X111482156Y-87297760D01*
X111485269Y-87342292D01*
X111489138Y-87377498D01*
X111493889Y-87405034D01*
X111499648Y-87426556D01*
X111506539Y-87443722D01*
X111514689Y-87458186D01*
X111524223Y-87471606D01*
X111535266Y-87485638D01*
X111539566Y-87491071D01*
X111555386Y-87513910D01*
X111562422Y-87529463D01*
X111562444Y-87529922D01*
X111551567Y-87532121D01*
X111520582Y-87534147D01*
X111471957Y-87535942D01*
X111408163Y-87537451D01*
X111331669Y-87538616D01*
X111244944Y-87539380D01*
X111150457Y-87539686D01*
X111139550Y-87539689D01*
X110716657Y-87539689D01*
X110713395Y-87443622D01*
X110710133Y-87347556D01*
X110648044Y-87398543D01*
X110550714Y-87466057D01*
X110440813Y-87520749D01*
X110354349Y-87550978D01*
X110285278Y-87565666D01*
X110201925Y-87575659D01*
X110112159Y-87580646D01*
X110023845Y-87580313D01*
X109944851Y-87574351D01*
X109908622Y-87568638D01*
X109768603Y-87530776D01*
X109642178Y-87475932D01*
X109530260Y-87404924D01*
X109433762Y-87318568D01*
X109353600Y-87217679D01*
X109290687Y-87103076D01*
X109246312Y-86976984D01*
X109233978Y-86920401D01*
X109226368Y-86858202D01*
X109222739Y-86783363D01*
X109222245Y-86749467D01*
X109222310Y-86746282D01*
X109982248Y-86746282D01*
X109991541Y-86821333D01*
X110019728Y-86885160D01*
X110068197Y-86940798D01*
X110073254Y-86945211D01*
X110121548Y-86980037D01*
X110173257Y-87002620D01*
X110233989Y-87014540D01*
X110309352Y-87017383D01*
X110327459Y-87016978D01*
X110381278Y-87014325D01*
X110421308Y-87008909D01*
X110456324Y-86998745D01*
X110495103Y-86981850D01*
X110505745Y-86976672D01*
X110566396Y-86940844D01*
X110613215Y-86898212D01*
X110625952Y-86882973D01*
X110670622Y-86826462D01*
X110670622Y-86630586D01*
X110670086Y-86551939D01*
X110668396Y-86493988D01*
X110665428Y-86454875D01*
X110661057Y-86432741D01*
X110656972Y-86426274D01*
X110641047Y-86423111D01*
X110607264Y-86420488D01*
X110560340Y-86418655D01*
X110504993Y-86417857D01*
X110496106Y-86417842D01*
X110375330Y-86423096D01*
X110272660Y-86439263D01*
X110186106Y-86466961D01*
X110113681Y-86506808D01*
X110058751Y-86553758D01*
X110014204Y-86611645D01*
X109989480Y-86674693D01*
X109982248Y-86746282D01*
X109222310Y-86746282D01*
X109224178Y-86655712D01*
X109232522Y-86576812D01*
X109248768Y-86505590D01*
X109274405Y-86434864D01*
X109298401Y-86382493D01*
X109357020Y-86287196D01*
X109435117Y-86199170D01*
X109530315Y-86120017D01*
X109640238Y-86051340D01*
X109762510Y-85994741D01*
X109894755Y-85951821D01*
X109959422Y-85936882D01*
X110095604Y-85914777D01*
X110244049Y-85900194D01*
X110395505Y-85893813D01*
X110522064Y-85895445D01*
X110683950Y-85902224D01*
X110676530Y-85843245D01*
X110657238Y-85744092D01*
X110626104Y-85663372D01*
X110582269Y-85600466D01*
X110524871Y-85554756D01*
X110453048Y-85525622D01*
X110365941Y-85512447D01*
X110262686Y-85514611D01*
X110224711Y-85518612D01*
X110083520Y-85543780D01*
X109946707Y-85584814D01*
X109852178Y-85622815D01*
X109807018Y-85642190D01*
X109768585Y-85657760D01*
X109742234Y-85667405D01*
X109734546Y-85669452D01*
X109724802Y-85660374D01*
X109708083Y-85631405D01*
X109684232Y-85582217D01*
X109653093Y-85512484D01*
X109614507Y-85421879D01*
X109607910Y-85406089D01*
X109577853Y-85333772D01*
X109550874Y-85268425D01*
X109528136Y-85212906D01*
X109510806Y-85170072D01*
X109500048Y-85142781D01*
X109496941Y-85133942D01*
X109506940Y-85129187D01*
X109533217Y-85123910D01*
X109561489Y-85120231D01*
X109591646Y-85115474D01*
X109639433Y-85106028D01*
X109700612Y-85092820D01*
X109770946Y-85076776D01*
X109846194Y-85058820D01*
X109874755Y-85051797D01*
X109979816Y-85026209D01*
X110067480Y-85006147D01*
X110142068Y-84990969D01*
X110207903Y-84980035D01*
X110269307Y-84972704D01*
X110330602Y-84968335D01*
X110396110Y-84966287D01*
X110454128Y-84965889D01*
X110623574Y-84972552D01*
X110623574Y-84972552D01*
G37*
X110623574Y-84972552D02*
X110775492Y-84992567D01*
X110910756Y-85026202D01*
X111030239Y-85073725D01*
X111134815Y-85135405D01*
X111212424Y-85198965D01*
X111281265Y-85273099D01*
X111335006Y-85352871D01*
X111377910Y-85445091D01*
X111393384Y-85488161D01*
X111406244Y-85527142D01*
X111417446Y-85563289D01*
X111427120Y-85598434D01*
X111435396Y-85634410D01*
X111442403Y-85673050D01*
X111448272Y-85716185D01*
X111453131Y-85765649D01*
X111457110Y-85823273D01*
X111460340Y-85890891D01*
X111462949Y-85970334D01*
X111465067Y-86063436D01*
X111466824Y-86172027D01*
X111468349Y-86297942D01*
X111469772Y-86443012D01*
X111471025Y-86585778D01*
X111472351Y-86741968D01*
X111473556Y-86877239D01*
X111474766Y-86993246D01*
X111476106Y-87091645D01*
X111477700Y-87174093D01*
X111479675Y-87242246D01*
X111482156Y-87297760D01*
X111485269Y-87342292D01*
X111489138Y-87377498D01*
X111493889Y-87405034D01*
X111499648Y-87426556D01*
X111506539Y-87443722D01*
X111514689Y-87458186D01*
X111524223Y-87471606D01*
X111535266Y-87485638D01*
X111539566Y-87491071D01*
X111555386Y-87513910D01*
X111562422Y-87529463D01*
X111562444Y-87529922D01*
X111551567Y-87532121D01*
X111520582Y-87534147D01*
X111471957Y-87535942D01*
X111408163Y-87537451D01*
X111331669Y-87538616D01*
X111244944Y-87539380D01*
X111150457Y-87539686D01*
X111139550Y-87539689D01*
X110716657Y-87539689D01*
X110713395Y-87443622D01*
X110710133Y-87347556D01*
X110648044Y-87398543D01*
X110550714Y-87466057D01*
X110440813Y-87520749D01*
X110354349Y-87550978D01*
X110285278Y-87565666D01*
X110201925Y-87575659D01*
X110112159Y-87580646D01*
X110023845Y-87580313D01*
X109944851Y-87574351D01*
X109908622Y-87568638D01*
X109768603Y-87530776D01*
X109642178Y-87475932D01*
X109530260Y-87404924D01*
X109433762Y-87318568D01*
X109353600Y-87217679D01*
X109290687Y-87103076D01*
X109246312Y-86976984D01*
X109233978Y-86920401D01*
X109226368Y-86858202D01*
X109222739Y-86783363D01*
X109222245Y-86749467D01*
X109222310Y-86746282D01*
X109982248Y-86746282D01*
X109991541Y-86821333D01*
X110019728Y-86885160D01*
X110068197Y-86940798D01*
X110073254Y-86945211D01*
X110121548Y-86980037D01*
X110173257Y-87002620D01*
X110233989Y-87014540D01*
X110309352Y-87017383D01*
X110327459Y-87016978D01*
X110381278Y-87014325D01*
X110421308Y-87008909D01*
X110456324Y-86998745D01*
X110495103Y-86981850D01*
X110505745Y-86976672D01*
X110566396Y-86940844D01*
X110613215Y-86898212D01*
X110625952Y-86882973D01*
X110670622Y-86826462D01*
X110670622Y-86630586D01*
X110670086Y-86551939D01*
X110668396Y-86493988D01*
X110665428Y-86454875D01*
X110661057Y-86432741D01*
X110656972Y-86426274D01*
X110641047Y-86423111D01*
X110607264Y-86420488D01*
X110560340Y-86418655D01*
X110504993Y-86417857D01*
X110496106Y-86417842D01*
X110375330Y-86423096D01*
X110272660Y-86439263D01*
X110186106Y-86466961D01*
X110113681Y-86506808D01*
X110058751Y-86553758D01*
X110014204Y-86611645D01*
X109989480Y-86674693D01*
X109982248Y-86746282D01*
X109222310Y-86746282D01*
X109224178Y-86655712D01*
X109232522Y-86576812D01*
X109248768Y-86505590D01*
X109274405Y-86434864D01*
X109298401Y-86382493D01*
X109357020Y-86287196D01*
X109435117Y-86199170D01*
X109530315Y-86120017D01*
X109640238Y-86051340D01*
X109762510Y-85994741D01*
X109894755Y-85951821D01*
X109959422Y-85936882D01*
X110095604Y-85914777D01*
X110244049Y-85900194D01*
X110395505Y-85893813D01*
X110522064Y-85895445D01*
X110683950Y-85902224D01*
X110676530Y-85843245D01*
X110657238Y-85744092D01*
X110626104Y-85663372D01*
X110582269Y-85600466D01*
X110524871Y-85554756D01*
X110453048Y-85525622D01*
X110365941Y-85512447D01*
X110262686Y-85514611D01*
X110224711Y-85518612D01*
X110083520Y-85543780D01*
X109946707Y-85584814D01*
X109852178Y-85622815D01*
X109807018Y-85642190D01*
X109768585Y-85657760D01*
X109742234Y-85667405D01*
X109734546Y-85669452D01*
X109724802Y-85660374D01*
X109708083Y-85631405D01*
X109684232Y-85582217D01*
X109653093Y-85512484D01*
X109614507Y-85421879D01*
X109607910Y-85406089D01*
X109577853Y-85333772D01*
X109550874Y-85268425D01*
X109528136Y-85212906D01*
X109510806Y-85170072D01*
X109500048Y-85142781D01*
X109496941Y-85133942D01*
X109506940Y-85129187D01*
X109533217Y-85123910D01*
X109561489Y-85120231D01*
X109591646Y-85115474D01*
X109639433Y-85106028D01*
X109700612Y-85092820D01*
X109770946Y-85076776D01*
X109846194Y-85058820D01*
X109874755Y-85051797D01*
X109979816Y-85026209D01*
X110067480Y-85006147D01*
X110142068Y-84990969D01*
X110207903Y-84980035D01*
X110269307Y-84972704D01*
X110330602Y-84968335D01*
X110396110Y-84966287D01*
X110454128Y-84965889D01*
X110623574Y-84972552D01*
G36*
X114136507Y-85578245D02*
X114136526Y-85812662D01*
X114136552Y-86025603D01*
X114136625Y-86218168D01*
X114136782Y-86391459D01*
X114137064Y-86546576D01*
X114137509Y-86684620D01*
X114138156Y-86806692D01*
X114139045Y-86913894D01*
X114140213Y-87007326D01*
X114141701Y-87088090D01*
X114143546Y-87157286D01*
X114145789Y-87216015D01*
X114148469Y-87265379D01*
X114151623Y-87306478D01*
X114155292Y-87340413D01*
X114159513Y-87368286D01*
X114164327Y-87391198D01*
X114169773Y-87410249D01*
X114175888Y-87426540D01*
X114182712Y-87441173D01*
X114190285Y-87455249D01*
X114198645Y-87469868D01*
X114203839Y-87478974D01*
X114238104Y-87539689D01*
X113379955Y-87539689D01*
X113379955Y-87443733D01*
X113379224Y-87400370D01*
X113377272Y-87367205D01*
X113374463Y-87349424D01*
X113373221Y-87347778D01*
X113361799Y-87354662D01*
X113339084Y-87372505D01*
X113316385Y-87391879D01*
X113261800Y-87432614D01*
X113192321Y-87473617D01*
X113115270Y-87511123D01*
X113037965Y-87541364D01*
X113007113Y-87551012D01*
X112938616Y-87565578D01*
X112855764Y-87575539D01*
X112766371Y-87580583D01*
X112678248Y-87580396D01*
X112599207Y-87574666D01*
X112561511Y-87568858D01*
X112423414Y-87530797D01*
X112296113Y-87473073D01*
X112180292Y-87396211D01*
X112076637Y-87300739D01*
X111985833Y-87187179D01*
X111919031Y-87076381D01*
X111864164Y-86959625D01*
X111822163Y-86840276D01*
X111792167Y-86714283D01*
X111773311Y-86577594D01*
X111764732Y-86426158D01*
X111764006Y-86348711D01*
X111766100Y-86291934D01*
X112595217Y-86291934D01*
X112595424Y-86385002D01*
X112598337Y-86472692D01*
X112604000Y-86549772D01*
X112612455Y-86611009D01*
X112615038Y-86623350D01*
X112646840Y-86730633D01*
X112688498Y-86817658D01*
X112740363Y-86884642D01*
X112802781Y-86931805D01*
X112876100Y-86959365D01*
X112960669Y-86967541D01*
X113056835Y-86956551D01*
X113120311Y-86940829D01*
X113169454Y-86922639D01*
X113223583Y-86896791D01*
X113264244Y-86873089D01*
X113334800Y-86826721D01*
X113334800Y-85676530D01*
X113267392Y-85632962D01*
X113188867Y-85592040D01*
X113104681Y-85565389D01*
X113019557Y-85553465D01*
X112938216Y-85556722D01*
X112865380Y-85575615D01*
X112833426Y-85591184D01*
X112775501Y-85634181D01*
X112726544Y-85690953D01*
X112685390Y-85763575D01*
X112650874Y-85854121D01*
X112621833Y-85964666D01*
X112620552Y-85970533D01*
X112610381Y-86032788D01*
X112602739Y-86110594D01*
X112597670Y-86198720D01*
X112595217Y-86291934D01*
X111766100Y-86291934D01*
X111771857Y-86135895D01*
X111793802Y-85940059D01*
X111829786Y-85761332D01*
X111879759Y-85599845D01*
X111943668Y-85455726D01*
X112021462Y-85329106D01*
X112113089Y-85220115D01*
X112218497Y-85128883D01*
X112263662Y-85097932D01*
X112364611Y-85041785D01*
X112467901Y-85002174D01*
X112577989Y-84978014D01*
X112699330Y-84968219D01*
X112791836Y-84969265D01*
X112921490Y-84980231D01*
X113034084Y-85002046D01*
X113132875Y-85035714D01*
X113221121Y-85082236D01*
X113269986Y-85116448D01*
X113299353Y-85138362D01*
X113321043Y-85153333D01*
X113329253Y-85157733D01*
X113330868Y-85146904D01*
X113332159Y-85116251D01*
X113333138Y-85068526D01*
X113333817Y-85006479D01*
X113334210Y-84932862D01*
X113334330Y-84850427D01*
X113334188Y-84761925D01*
X113333797Y-84670107D01*
X113333171Y-84577724D01*
X113332320Y-84487528D01*
X113331260Y-84402271D01*
X113330001Y-84324703D01*
X113328556Y-84257576D01*
X113326938Y-84203641D01*
X113325161Y-84165650D01*
X113324669Y-84158667D01*
X113317092Y-84088251D01*
X113305531Y-84033102D01*
X113287792Y-83985981D01*
X113261682Y-83939647D01*
X113255415Y-83930067D01*
X113230983Y-83893378D01*
X114136311Y-83893378D01*
X114136507Y-85578245D01*
X114136507Y-85578245D01*
G37*
X114136507Y-85578245D02*
X114136526Y-85812662D01*
X114136552Y-86025603D01*
X114136625Y-86218168D01*
X114136782Y-86391459D01*
X114137064Y-86546576D01*
X114137509Y-86684620D01*
X114138156Y-86806692D01*
X114139045Y-86913894D01*
X114140213Y-87007326D01*
X114141701Y-87088090D01*
X114143546Y-87157286D01*
X114145789Y-87216015D01*
X114148469Y-87265379D01*
X114151623Y-87306478D01*
X114155292Y-87340413D01*
X114159513Y-87368286D01*
X114164327Y-87391198D01*
X114169773Y-87410249D01*
X114175888Y-87426540D01*
X114182712Y-87441173D01*
X114190285Y-87455249D01*
X114198645Y-87469868D01*
X114203839Y-87478974D01*
X114238104Y-87539689D01*
X113379955Y-87539689D01*
X113379955Y-87443733D01*
X113379224Y-87400370D01*
X113377272Y-87367205D01*
X113374463Y-87349424D01*
X113373221Y-87347778D01*
X113361799Y-87354662D01*
X113339084Y-87372505D01*
X113316385Y-87391879D01*
X113261800Y-87432614D01*
X113192321Y-87473617D01*
X113115270Y-87511123D01*
X113037965Y-87541364D01*
X113007113Y-87551012D01*
X112938616Y-87565578D01*
X112855764Y-87575539D01*
X112766371Y-87580583D01*
X112678248Y-87580396D01*
X112599207Y-87574666D01*
X112561511Y-87568858D01*
X112423414Y-87530797D01*
X112296113Y-87473073D01*
X112180292Y-87396211D01*
X112076637Y-87300739D01*
X111985833Y-87187179D01*
X111919031Y-87076381D01*
X111864164Y-86959625D01*
X111822163Y-86840276D01*
X111792167Y-86714283D01*
X111773311Y-86577594D01*
X111764732Y-86426158D01*
X111764006Y-86348711D01*
X111766100Y-86291934D01*
X112595217Y-86291934D01*
X112595424Y-86385002D01*
X112598337Y-86472692D01*
X112604000Y-86549772D01*
X112612455Y-86611009D01*
X112615038Y-86623350D01*
X112646840Y-86730633D01*
X112688498Y-86817658D01*
X112740363Y-86884642D01*
X112802781Y-86931805D01*
X112876100Y-86959365D01*
X112960669Y-86967541D01*
X113056835Y-86956551D01*
X113120311Y-86940829D01*
X113169454Y-86922639D01*
X113223583Y-86896791D01*
X113264244Y-86873089D01*
X113334800Y-86826721D01*
X113334800Y-85676530D01*
X113267392Y-85632962D01*
X113188867Y-85592040D01*
X113104681Y-85565389D01*
X113019557Y-85553465D01*
X112938216Y-85556722D01*
X112865380Y-85575615D01*
X112833426Y-85591184D01*
X112775501Y-85634181D01*
X112726544Y-85690953D01*
X112685390Y-85763575D01*
X112650874Y-85854121D01*
X112621833Y-85964666D01*
X112620552Y-85970533D01*
X112610381Y-86032788D01*
X112602739Y-86110594D01*
X112597670Y-86198720D01*
X112595217Y-86291934D01*
X111766100Y-86291934D01*
X111771857Y-86135895D01*
X111793802Y-85940059D01*
X111829786Y-85761332D01*
X111879759Y-85599845D01*
X111943668Y-85455726D01*
X112021462Y-85329106D01*
X112113089Y-85220115D01*
X112218497Y-85128883D01*
X112263662Y-85097932D01*
X112364611Y-85041785D01*
X112467901Y-85002174D01*
X112577989Y-84978014D01*
X112699330Y-84968219D01*
X112791836Y-84969265D01*
X112921490Y-84980231D01*
X113034084Y-85002046D01*
X113132875Y-85035714D01*
X113221121Y-85082236D01*
X113269986Y-85116448D01*
X113299353Y-85138362D01*
X113321043Y-85153333D01*
X113329253Y-85157733D01*
X113330868Y-85146904D01*
X113332159Y-85116251D01*
X113333138Y-85068526D01*
X113333817Y-85006479D01*
X113334210Y-84932862D01*
X113334330Y-84850427D01*
X113334188Y-84761925D01*
X113333797Y-84670107D01*
X113333171Y-84577724D01*
X113332320Y-84487528D01*
X113331260Y-84402271D01*
X113330001Y-84324703D01*
X113328556Y-84257576D01*
X113326938Y-84203641D01*
X113325161Y-84165650D01*
X113324669Y-84158667D01*
X113317092Y-84088251D01*
X113305531Y-84033102D01*
X113287792Y-83985981D01*
X113261682Y-83939647D01*
X113255415Y-83930067D01*
X113230983Y-83893378D01*
X114136311Y-83893378D01*
X114136507Y-85578245D01*
G36*
X105676957Y-83132571D02*
X105773232Y-83156809D01*
X105859816Y-83199641D01*
X105934627Y-83259419D01*
X105995582Y-83334494D01*
X106040601Y-83423220D01*
X106066864Y-83519530D01*
X106072714Y-83616795D01*
X106057860Y-83710654D01*
X106024160Y-83798511D01*
X105973472Y-83877770D01*
X105907655Y-83945836D01*
X105828566Y-84000112D01*
X105738066Y-84038002D01*
X105686800Y-84050426D01*
X105642302Y-84057947D01*
X105608001Y-84060919D01*
X105575040Y-84059094D01*
X105534566Y-84052225D01*
X105501469Y-84045250D01*
X105408053Y-84013741D01*
X105324381Y-83962617D01*
X105252335Y-83893429D01*
X105193800Y-83807728D01*
X105179852Y-83780489D01*
X105163414Y-83744122D01*
X105153106Y-83713582D01*
X105147540Y-83681450D01*
X105145331Y-83640307D01*
X105145052Y-83594222D01*
X105149139Y-83509865D01*
X105162554Y-83440586D01*
X105187744Y-83379961D01*
X105227154Y-83321567D01*
X105265702Y-83277302D01*
X105337594Y-83211484D01*
X105412687Y-83166053D01*
X105495438Y-83138850D01*
X105573072Y-83128576D01*
X105676957Y-83132571D01*
X105676957Y-83132571D01*
G37*
X105676957Y-83132571D02*
X105773232Y-83156809D01*
X105859816Y-83199641D01*
X105934627Y-83259419D01*
X105995582Y-83334494D01*
X106040601Y-83423220D01*
X106066864Y-83519530D01*
X106072714Y-83616795D01*
X106057860Y-83710654D01*
X106024160Y-83798511D01*
X105973472Y-83877770D01*
X105907655Y-83945836D01*
X105828566Y-84000112D01*
X105738066Y-84038002D01*
X105686800Y-84050426D01*
X105642302Y-84057947D01*
X105608001Y-84060919D01*
X105575040Y-84059094D01*
X105534566Y-84052225D01*
X105501469Y-84045250D01*
X105408053Y-84013741D01*
X105324381Y-83962617D01*
X105252335Y-83893429D01*
X105193800Y-83807728D01*
X105179852Y-83780489D01*
X105163414Y-83744122D01*
X105153106Y-83713582D01*
X105147540Y-83681450D01*
X105145331Y-83640307D01*
X105145052Y-83594222D01*
X105149139Y-83509865D01*
X105162554Y-83440586D01*
X105187744Y-83379961D01*
X105227154Y-83321567D01*
X105265702Y-83277302D01*
X105337594Y-83211484D01*
X105412687Y-83166053D01*
X105495438Y-83138850D01*
X105573072Y-83128576D01*
X105676957Y-83132571D01*
D10*
G36*
X99062378Y-46500418D02*
X99060238Y-47094076D01*
X99060000Y-47278945D01*
X99058032Y-47919217D01*
X99051365Y-48409453D01*
X99038856Y-48768914D01*
X99019361Y-49016861D01*
X98991735Y-49172554D01*
X98954835Y-49255252D01*
X98941831Y-49268670D01*
X98774596Y-49340142D01*
X98636667Y-49370474D01*
X98636667Y-48916748D01*
X98636667Y-47323371D01*
X98632611Y-46802909D01*
X98621250Y-46353332D01*
X98603795Y-45999665D01*
X98581453Y-45766937D01*
X98557275Y-45680926D01*
X98445827Y-45650092D01*
X98203552Y-45603619D01*
X97867493Y-45548095D01*
X97520108Y-45496485D01*
X96891640Y-45434536D01*
X96164051Y-45406245D01*
X95394137Y-45410497D01*
X94638692Y-45446179D01*
X93954514Y-45512176D01*
X93556667Y-45574237D01*
X93006333Y-45678859D01*
X92983366Y-47300143D01*
X92960399Y-48921426D01*
X93533699Y-49012198D01*
X93869613Y-49064928D01*
X94174424Y-49112002D01*
X94361000Y-49140091D01*
X94601169Y-49157739D01*
X94972525Y-49164161D01*
X95437383Y-49160617D01*
X95958057Y-49148364D01*
X96496862Y-49128660D01*
X97016112Y-49102761D01*
X97478122Y-49071926D01*
X97845206Y-49037412D01*
X97980500Y-49019306D01*
X98636667Y-48916748D01*
X98636667Y-49370474D01*
X98465275Y-49408166D01*
X98041113Y-49470037D01*
X97529356Y-49523051D01*
X96957249Y-49564504D01*
X96352039Y-49591692D01*
X95740969Y-49601910D01*
X95588667Y-49601483D01*
X95103669Y-49596260D01*
X94664889Y-49588201D01*
X94306154Y-49578183D01*
X94061292Y-49567080D01*
X93980000Y-49559816D01*
X93473428Y-49476236D01*
X93065639Y-49393708D01*
X92780462Y-49317632D01*
X92646500Y-49257674D01*
X92609465Y-49179849D01*
X92581306Y-49004790D01*
X92561198Y-48717075D01*
X92548317Y-48301284D01*
X92541837Y-47741996D01*
X92540667Y-47278945D01*
X92541618Y-46662599D01*
X92545577Y-46194164D01*
X92554200Y-45852224D01*
X92569144Y-45615362D01*
X92592066Y-45462160D01*
X92624622Y-45371203D01*
X92668468Y-45321073D01*
X92693312Y-45305597D01*
X92959200Y-45212179D01*
X93364761Y-45132175D01*
X93880773Y-45066830D01*
X94478015Y-45017389D01*
X95127264Y-44985099D01*
X95799298Y-44971204D01*
X96464896Y-44976950D01*
X97094834Y-45003582D01*
X97659891Y-45052346D01*
X97898193Y-45083783D01*
X98263658Y-45135423D01*
X98543762Y-45180352D01*
X98749766Y-45239847D01*
X98892929Y-45335182D01*
X98984512Y-45487632D01*
X99035775Y-45718471D01*
X99057977Y-46048975D01*
X99062378Y-46500418D01*
X99062378Y-46500418D01*
X99062378Y-46500418D01*
G37*
X99062378Y-46500418D02*
X99060238Y-47094076D01*
X99060000Y-47278945D01*
X99058032Y-47919217D01*
X99051365Y-48409453D01*
X99038856Y-48768914D01*
X99019361Y-49016861D01*
X98991735Y-49172554D01*
X98954835Y-49255252D01*
X98941831Y-49268670D01*
X98774596Y-49340142D01*
X98636667Y-49370474D01*
X98636667Y-48916748D01*
X98636667Y-47323371D01*
X98632611Y-46802909D01*
X98621250Y-46353332D01*
X98603795Y-45999665D01*
X98581453Y-45766937D01*
X98557275Y-45680926D01*
X98445827Y-45650092D01*
X98203552Y-45603619D01*
X97867493Y-45548095D01*
X97520108Y-45496485D01*
X96891640Y-45434536D01*
X96164051Y-45406245D01*
X95394137Y-45410497D01*
X94638692Y-45446179D01*
X93954514Y-45512176D01*
X93556667Y-45574237D01*
X93006333Y-45678859D01*
X92983366Y-47300143D01*
X92960399Y-48921426D01*
X93533699Y-49012198D01*
X93869613Y-49064928D01*
X94174424Y-49112002D01*
X94361000Y-49140091D01*
X94601169Y-49157739D01*
X94972525Y-49164161D01*
X95437383Y-49160617D01*
X95958057Y-49148364D01*
X96496862Y-49128660D01*
X97016112Y-49102761D01*
X97478122Y-49071926D01*
X97845206Y-49037412D01*
X97980500Y-49019306D01*
X98636667Y-48916748D01*
X98636667Y-49370474D01*
X98465275Y-49408166D01*
X98041113Y-49470037D01*
X97529356Y-49523051D01*
X96957249Y-49564504D01*
X96352039Y-49591692D01*
X95740969Y-49601910D01*
X95588667Y-49601483D01*
X95103669Y-49596260D01*
X94664889Y-49588201D01*
X94306154Y-49578183D01*
X94061292Y-49567080D01*
X93980000Y-49559816D01*
X93473428Y-49476236D01*
X93065639Y-49393708D01*
X92780462Y-49317632D01*
X92646500Y-49257674D01*
X92609465Y-49179849D01*
X92581306Y-49004790D01*
X92561198Y-48717075D01*
X92548317Y-48301284D01*
X92541837Y-47741996D01*
X92540667Y-47278945D01*
X92541618Y-46662599D01*
X92545577Y-46194164D01*
X92554200Y-45852224D01*
X92569144Y-45615362D01*
X92592066Y-45462160D01*
X92624622Y-45371203D01*
X92668468Y-45321073D01*
X92693312Y-45305597D01*
X92959200Y-45212179D01*
X93364761Y-45132175D01*
X93880773Y-45066830D01*
X94478015Y-45017389D01*
X95127264Y-44985099D01*
X95799298Y-44971204D01*
X96464896Y-44976950D01*
X97094834Y-45003582D01*
X97659891Y-45052346D01*
X97898193Y-45083783D01*
X98263658Y-45135423D01*
X98543762Y-45180352D01*
X98749766Y-45239847D01*
X98892929Y-45335182D01*
X98984512Y-45487632D01*
X99035775Y-45718471D01*
X99057977Y-46048975D01*
X99062378Y-46500418D01*
X99062378Y-46500418D01*
G36*
X96100670Y-47645396D02*
X96053189Y-48028950D01*
X95888447Y-48378481D01*
X95614161Y-48647811D01*
X95472903Y-48721168D01*
X95284567Y-48771105D01*
X95013715Y-48802878D01*
X94624911Y-48821742D01*
X94403333Y-48827393D01*
X94006939Y-48831691D01*
X93668647Y-48827729D01*
X93426870Y-48816450D01*
X93323833Y-48800953D01*
X93234971Y-48683885D01*
X93226884Y-48505760D01*
X93294694Y-48351596D01*
X93351925Y-48311391D01*
X93490727Y-48289378D01*
X93754799Y-48272077D01*
X94100093Y-48261813D01*
X94325591Y-48260000D01*
X94807135Y-48244429D01*
X95143671Y-48190481D01*
X95357272Y-48087299D01*
X95470013Y-47924028D01*
X95503967Y-47689811D01*
X95504000Y-47680455D01*
X95437502Y-47416492D01*
X95232858Y-47229644D01*
X94882342Y-47114320D01*
X94680924Y-47084904D01*
X94405361Y-47049063D01*
X94258693Y-47003056D01*
X94200873Y-46925255D01*
X94191667Y-46820666D01*
X94202631Y-46706268D01*
X94260964Y-46639955D01*
X94404824Y-46605166D01*
X94672369Y-46585341D01*
X94742000Y-46581817D01*
X95158280Y-46585844D01*
X95457980Y-46650245D01*
X95552279Y-46692786D01*
X95848942Y-46937094D01*
X96032163Y-47268037D01*
X96100670Y-47645396D01*
X96100670Y-47645396D01*
X96100670Y-47645396D01*
G37*
X96100670Y-47645396D02*
X96053189Y-48028950D01*
X95888447Y-48378481D01*
X95614161Y-48647811D01*
X95472903Y-48721168D01*
X95284567Y-48771105D01*
X95013715Y-48802878D01*
X94624911Y-48821742D01*
X94403333Y-48827393D01*
X94006939Y-48831691D01*
X93668647Y-48827729D01*
X93426870Y-48816450D01*
X93323833Y-48800953D01*
X93234971Y-48683885D01*
X93226884Y-48505760D01*
X93294694Y-48351596D01*
X93351925Y-48311391D01*
X93490727Y-48289378D01*
X93754799Y-48272077D01*
X94100093Y-48261813D01*
X94325591Y-48260000D01*
X94807135Y-48244429D01*
X95143671Y-48190481D01*
X95357272Y-48087299D01*
X95470013Y-47924028D01*
X95503967Y-47689811D01*
X95504000Y-47680455D01*
X95437502Y-47416492D01*
X95232858Y-47229644D01*
X94882342Y-47114320D01*
X94680924Y-47084904D01*
X94405361Y-47049063D01*
X94258693Y-47003056D01*
X94200873Y-46925255D01*
X94191667Y-46820666D01*
X94202631Y-46706268D01*
X94260964Y-46639955D01*
X94404824Y-46605166D01*
X94672369Y-46585341D01*
X94742000Y-46581817D01*
X95158280Y-46585844D01*
X95457980Y-46650245D01*
X95552279Y-46692786D01*
X95848942Y-46937094D01*
X96032163Y-47268037D01*
X96100670Y-47645396D01*
X96100670Y-47645396D01*
G36*
X98297068Y-47736399D02*
X98277138Y-48259157D01*
X98216339Y-48622069D01*
X98115294Y-48823846D01*
X97974624Y-48863203D01*
X97806933Y-48751066D01*
X97753682Y-48605488D01*
X97719686Y-48298882D01*
X97705676Y-47838537D01*
X97705333Y-47739050D01*
X97696764Y-47341735D01*
X97673630Y-46989407D01*
X97639790Y-46727877D01*
X97611241Y-46622124D01*
X97467675Y-46452654D01*
X97233328Y-46305565D01*
X97187908Y-46286284D01*
X96966838Y-46175786D01*
X96872007Y-46049972D01*
X96858667Y-45944685D01*
X96922639Y-45768243D01*
X97090569Y-45684667D01*
X97326475Y-45691481D01*
X97594374Y-45786205D01*
X97858284Y-45966361D01*
X97912278Y-46017255D01*
X98063560Y-46193985D01*
X98170216Y-46393797D01*
X98239517Y-46649186D01*
X98278737Y-46992649D01*
X98295149Y-47456682D01*
X98297068Y-47736399D01*
X98297068Y-47736399D01*
X98297068Y-47736399D01*
G37*
X98297068Y-47736399D02*
X98277138Y-48259157D01*
X98216339Y-48622069D01*
X98115294Y-48823846D01*
X97974624Y-48863203D01*
X97806933Y-48751066D01*
X97753682Y-48605488D01*
X97719686Y-48298882D01*
X97705676Y-47838537D01*
X97705333Y-47739050D01*
X97696764Y-47341735D01*
X97673630Y-46989407D01*
X97639790Y-46727877D01*
X97611241Y-46622124D01*
X97467675Y-46452654D01*
X97233328Y-46305565D01*
X97187908Y-46286284D01*
X96966838Y-46175786D01*
X96872007Y-46049972D01*
X96858667Y-45944685D01*
X96922639Y-45768243D01*
X97090569Y-45684667D01*
X97326475Y-45691481D01*
X97594374Y-45786205D01*
X97858284Y-45966361D01*
X97912278Y-46017255D01*
X98063560Y-46193985D01*
X98170216Y-46393797D01*
X98239517Y-46649186D01*
X98278737Y-46992649D01*
X98295149Y-47456682D01*
X98297068Y-47736399D01*
X98297068Y-47736399D01*
G36*
X96953199Y-47370520D02*
X96929174Y-47667519D01*
X96877217Y-47877327D01*
X96816333Y-47951951D01*
X96624305Y-47982023D01*
X96503857Y-47885621D01*
X96445111Y-47648874D01*
X96435333Y-47416909D01*
X96400254Y-46921412D01*
X96292985Y-46571937D01*
X96110479Y-46359931D01*
X96046135Y-46324336D01*
X95868694Y-46281401D01*
X95573586Y-46248319D01*
X95212408Y-46230058D01*
X95045767Y-46228000D01*
X94654142Y-46233548D01*
X94389346Y-46255080D01*
X94209098Y-46299927D01*
X94071114Y-46375422D01*
X94033751Y-46403478D01*
X93854754Y-46632739D01*
X93817202Y-46895950D01*
X93924386Y-47142950D01*
X93981312Y-47202854D01*
X94204206Y-47317454D01*
X94553642Y-47388508D01*
X94637479Y-47396644D01*
X95001848Y-47453077D01*
X95202648Y-47550606D01*
X95240808Y-47690155D01*
X95117257Y-47872647D01*
X95116952Y-47872952D01*
X94919853Y-47970949D01*
X94597223Y-47988715D01*
X94137121Y-47926860D01*
X94120751Y-47923719D01*
X93741002Y-47777080D01*
X93462556Y-47525501D01*
X93289496Y-47202686D01*
X93225901Y-46842335D01*
X93275854Y-46478151D01*
X93443435Y-46143837D01*
X93732726Y-45873094D01*
X93863528Y-45799569D01*
X94046860Y-45720187D01*
X94230289Y-45669824D01*
X94455337Y-45643875D01*
X94763528Y-45637734D01*
X95196384Y-45646796D01*
X95231491Y-45647852D01*
X95724486Y-45670266D01*
X96082435Y-45710823D01*
X96339523Y-45781716D01*
X96529932Y-45895137D01*
X96687845Y-46063277D01*
X96785625Y-46202171D01*
X96865505Y-46402154D01*
X96920582Y-46693259D01*
X96950074Y-47030907D01*
X96953199Y-47370520D01*
X96953199Y-47370520D01*
X96953199Y-47370520D01*
G37*
X96953199Y-47370520D02*
X96929174Y-47667519D01*
X96877217Y-47877327D01*
X96816333Y-47951951D01*
X96624305Y-47982023D01*
X96503857Y-47885621D01*
X96445111Y-47648874D01*
X96435333Y-47416909D01*
X96400254Y-46921412D01*
X96292985Y-46571937D01*
X96110479Y-46359931D01*
X96046135Y-46324336D01*
X95868694Y-46281401D01*
X95573586Y-46248319D01*
X95212408Y-46230058D01*
X95045767Y-46228000D01*
X94654142Y-46233548D01*
X94389346Y-46255080D01*
X94209098Y-46299927D01*
X94071114Y-46375422D01*
X94033751Y-46403478D01*
X93854754Y-46632739D01*
X93817202Y-46895950D01*
X93924386Y-47142950D01*
X93981312Y-47202854D01*
X94204206Y-47317454D01*
X94553642Y-47388508D01*
X94637479Y-47396644D01*
X95001848Y-47453077D01*
X95202648Y-47550606D01*
X95240808Y-47690155D01*
X95117257Y-47872647D01*
X95116952Y-47872952D01*
X94919853Y-47970949D01*
X94597223Y-47988715D01*
X94137121Y-47926860D01*
X94120751Y-47923719D01*
X93741002Y-47777080D01*
X93462556Y-47525501D01*
X93289496Y-47202686D01*
X93225901Y-46842335D01*
X93275854Y-46478151D01*
X93443435Y-46143837D01*
X93732726Y-45873094D01*
X93863528Y-45799569D01*
X94046860Y-45720187D01*
X94230289Y-45669824D01*
X94455337Y-45643875D01*
X94763528Y-45637734D01*
X95196384Y-45646796D01*
X95231491Y-45647852D01*
X95724486Y-45670266D01*
X96082435Y-45710823D01*
X96339523Y-45781716D01*
X96529932Y-45895137D01*
X96687845Y-46063277D01*
X96785625Y-46202171D01*
X96865505Y-46402154D01*
X96920582Y-46693259D01*
X96950074Y-47030907D01*
X96953199Y-47370520D01*
X96953199Y-47370520D01*
D11*
X110617000Y-68090143D02*
X110580714Y-68126429D01*
X110471857Y-68162714D01*
X110399286Y-68162714D01*
X110290429Y-68126429D01*
X110217857Y-68053857D01*
X110181572Y-67981286D01*
X110145286Y-67836143D01*
X110145286Y-67727286D01*
X110181572Y-67582143D01*
X110217857Y-67509571D01*
X110290429Y-67437000D01*
X110399286Y-67400714D01*
X110471857Y-67400714D01*
X110580714Y-67437000D01*
X110617000Y-67473286D01*
X111342714Y-68162714D02*
X110907286Y-68162714D01*
X111125000Y-68162714D02*
X111125000Y-67400714D01*
X111052429Y-67509571D01*
X110979857Y-67582143D01*
X110907286Y-67618429D01*
X81044143Y-72263000D02*
X81080429Y-72299286D01*
X81116714Y-72408143D01*
X81116714Y-72480714D01*
X81080429Y-72589571D01*
X81007857Y-72662143D01*
X80935286Y-72698428D01*
X80790143Y-72734714D01*
X80681286Y-72734714D01*
X80536143Y-72698428D01*
X80463571Y-72662143D01*
X80391000Y-72589571D01*
X80354714Y-72480714D01*
X80354714Y-72408143D01*
X80391000Y-72299286D01*
X80427286Y-72263000D01*
X80427286Y-71972714D02*
X80391000Y-71936428D01*
X80354714Y-71863857D01*
X80354714Y-71682428D01*
X80391000Y-71609857D01*
X80427286Y-71573571D01*
X80499857Y-71537286D01*
X80572429Y-71537286D01*
X80681286Y-71573571D01*
X81116714Y-72009000D01*
X81116714Y-71537286D01*
X84498543Y-72212200D02*
X84534829Y-72248486D01*
X84571114Y-72357343D01*
X84571114Y-72429914D01*
X84534829Y-72538771D01*
X84462257Y-72611343D01*
X84389686Y-72647628D01*
X84244543Y-72683914D01*
X84135686Y-72683914D01*
X83990543Y-72647628D01*
X83917971Y-72611343D01*
X83845400Y-72538771D01*
X83809114Y-72429914D01*
X83809114Y-72357343D01*
X83845400Y-72248486D01*
X83881686Y-72212200D01*
X83809114Y-71958200D02*
X83809114Y-71486486D01*
X84099400Y-71740486D01*
X84099400Y-71631628D01*
X84135686Y-71559057D01*
X84171971Y-71522771D01*
X84244543Y-71486486D01*
X84425971Y-71486486D01*
X84498543Y-71522771D01*
X84534829Y-71559057D01*
X84571114Y-71631628D01*
X84571114Y-71849343D01*
X84534829Y-71921914D01*
X84498543Y-71958200D01*
X84346143Y-58801000D02*
X84382429Y-58837286D01*
X84418714Y-58946143D01*
X84418714Y-59018714D01*
X84382429Y-59127571D01*
X84309857Y-59200143D01*
X84237286Y-59236428D01*
X84092143Y-59272714D01*
X83983286Y-59272714D01*
X83838143Y-59236428D01*
X83765571Y-59200143D01*
X83693000Y-59127571D01*
X83656714Y-59018714D01*
X83656714Y-58946143D01*
X83693000Y-58837286D01*
X83729286Y-58801000D01*
X83910714Y-58147857D02*
X84418714Y-58147857D01*
X83620429Y-58329286D02*
X84164714Y-58510714D01*
X84164714Y-58039000D01*
X100348143Y-68199000D02*
X100384429Y-68235286D01*
X100420714Y-68344143D01*
X100420714Y-68416714D01*
X100384429Y-68525571D01*
X100311857Y-68598143D01*
X100239286Y-68634428D01*
X100094143Y-68670714D01*
X99985286Y-68670714D01*
X99840143Y-68634428D01*
X99767571Y-68598143D01*
X99695000Y-68525571D01*
X99658714Y-68416714D01*
X99658714Y-68344143D01*
X99695000Y-68235286D01*
X99731286Y-68199000D01*
X99658714Y-67509571D02*
X99658714Y-67872428D01*
X100021571Y-67908714D01*
X99985286Y-67872428D01*
X99949000Y-67799857D01*
X99949000Y-67618428D01*
X99985286Y-67545857D01*
X100021571Y-67509571D01*
X100094143Y-67473286D01*
X100275571Y-67473286D01*
X100348143Y-67509571D01*
X100384429Y-67545857D01*
X100420714Y-67618428D01*
X100420714Y-67799857D01*
X100384429Y-67872428D01*
X100348143Y-67908714D01*
X102888143Y-68199000D02*
X102924429Y-68235286D01*
X102960714Y-68344143D01*
X102960714Y-68416714D01*
X102924429Y-68525571D01*
X102851857Y-68598143D01*
X102779286Y-68634428D01*
X102634143Y-68670714D01*
X102525286Y-68670714D01*
X102380143Y-68634428D01*
X102307571Y-68598143D01*
X102235000Y-68525571D01*
X102198714Y-68416714D01*
X102198714Y-68344143D01*
X102235000Y-68235286D01*
X102271286Y-68199000D01*
X102198714Y-67545857D02*
X102198714Y-67691000D01*
X102235000Y-67763571D01*
X102271286Y-67799857D01*
X102380143Y-67872428D01*
X102525286Y-67908714D01*
X102815571Y-67908714D01*
X102888143Y-67872428D01*
X102924429Y-67836143D01*
X102960714Y-67763571D01*
X102960714Y-67618428D01*
X102924429Y-67545857D01*
X102888143Y-67509571D01*
X102815571Y-67473286D01*
X102634143Y-67473286D01*
X102561571Y-67509571D01*
X102525286Y-67545857D01*
X102489000Y-67618428D01*
X102489000Y-67763571D01*
X102525286Y-67836143D01*
X102561571Y-67872428D01*
X102634143Y-67908714D01*
X95123000Y-75710143D02*
X95086714Y-75746429D01*
X94977857Y-75782714D01*
X94905286Y-75782714D01*
X94796429Y-75746429D01*
X94723857Y-75673857D01*
X94687572Y-75601286D01*
X94651286Y-75456143D01*
X94651286Y-75347286D01*
X94687572Y-75202143D01*
X94723857Y-75129571D01*
X94796429Y-75057000D01*
X94905286Y-75020714D01*
X94977857Y-75020714D01*
X95086714Y-75057000D01*
X95123000Y-75093286D01*
X95377000Y-75020714D02*
X95885000Y-75020714D01*
X95558429Y-75782714D01*
X69088001Y-67908714D02*
X69088001Y-68453000D01*
X69051715Y-68561857D01*
X68979144Y-68634429D01*
X68870287Y-68670714D01*
X68797715Y-68670714D01*
X69414572Y-67981286D02*
X69450858Y-67945000D01*
X69523429Y-67908714D01*
X69704858Y-67908714D01*
X69777429Y-67945000D01*
X69813715Y-67981286D01*
X69850000Y-68053857D01*
X69850000Y-68126429D01*
X69813715Y-68235286D01*
X69378286Y-68670714D01*
X69850000Y-68670714D01*
X88392001Y-44794714D02*
X88392001Y-45339000D01*
X88355715Y-45447857D01*
X88283144Y-45520429D01*
X88174287Y-45556714D01*
X88101715Y-45556714D01*
X89081429Y-45048714D02*
X89081429Y-45556714D01*
X88900000Y-44758429D02*
X88718572Y-45302714D01*
X89190286Y-45302714D01*
X86487000Y-77306714D02*
X86233000Y-76943857D01*
X86051572Y-77306714D02*
X86051572Y-76544714D01*
X86341857Y-76544714D01*
X86414429Y-76581000D01*
X86450714Y-76617286D01*
X86487000Y-76689857D01*
X86487000Y-76798714D01*
X86450714Y-76871286D01*
X86414429Y-76907571D01*
X86341857Y-76943857D01*
X86051572Y-76943857D01*
X87212714Y-77306714D02*
X86777286Y-77306714D01*
X86995000Y-77306714D02*
X86995000Y-76544714D01*
X86922429Y-76653571D01*
X86849857Y-76726143D01*
X86777286Y-76762429D01*
X90043000Y-79084714D02*
X89789000Y-78721857D01*
X89607572Y-79084714D02*
X89607572Y-78322714D01*
X89897857Y-78322714D01*
X89970429Y-78359000D01*
X90006714Y-78395286D01*
X90043000Y-78467857D01*
X90043000Y-78576714D01*
X90006714Y-78649286D01*
X89970429Y-78685571D01*
X89897857Y-78721857D01*
X89607572Y-78721857D01*
X90333286Y-78395286D02*
X90369572Y-78359000D01*
X90442143Y-78322714D01*
X90623572Y-78322714D01*
X90696143Y-78359000D01*
X90732429Y-78395286D01*
X90768714Y-78467857D01*
X90768714Y-78540429D01*
X90732429Y-78649286D01*
X90297000Y-79084714D01*
X90768714Y-79084714D01*
X108077000Y-79084714D02*
X107823000Y-78721857D01*
X107641572Y-79084714D02*
X107641572Y-78322714D01*
X107931857Y-78322714D01*
X108004429Y-78359000D01*
X108040714Y-78395286D01*
X108077000Y-78467857D01*
X108077000Y-78576714D01*
X108040714Y-78649286D01*
X108004429Y-78685571D01*
X107931857Y-78721857D01*
X107641572Y-78721857D01*
X108331000Y-78322714D02*
X108802714Y-78322714D01*
X108548714Y-78613000D01*
X108657572Y-78613000D01*
X108730143Y-78649286D01*
X108766429Y-78685571D01*
X108802714Y-78758143D01*
X108802714Y-78939571D01*
X108766429Y-79012143D01*
X108730143Y-79048429D01*
X108657572Y-79084714D01*
X108439857Y-79084714D01*
X108367286Y-79048429D01*
X108331000Y-79012143D01*
X104013000Y-74766714D02*
X103759000Y-74403857D01*
X103577572Y-74766714D02*
X103577572Y-74004714D01*
X103867857Y-74004714D01*
X103940429Y-74041000D01*
X103976714Y-74077286D01*
X104013000Y-74149857D01*
X104013000Y-74258714D01*
X103976714Y-74331286D01*
X103940429Y-74367571D01*
X103867857Y-74403857D01*
X103577572Y-74403857D01*
X104666143Y-74258714D02*
X104666143Y-74766714D01*
X104484714Y-73968429D02*
X104303286Y-74512714D01*
X104775000Y-74512714D01*
X100166714Y-82677000D02*
X99803857Y-82931000D01*
X100166714Y-83112428D02*
X99404714Y-83112428D01*
X99404714Y-82822143D01*
X99441000Y-82749571D01*
X99477286Y-82713286D01*
X99549857Y-82677000D01*
X99658714Y-82677000D01*
X99731286Y-82713286D01*
X99767571Y-82749571D01*
X99803857Y-82822143D01*
X99803857Y-83112428D01*
X99404714Y-81987571D02*
X99404714Y-82350428D01*
X99767571Y-82386714D01*
X99731286Y-82350428D01*
X99695000Y-82277857D01*
X99695000Y-82096428D01*
X99731286Y-82023857D01*
X99767571Y-81987571D01*
X99840143Y-81951286D01*
X100021571Y-81951286D01*
X100094143Y-81987571D01*
X100130429Y-82023857D01*
X100166714Y-82096428D01*
X100166714Y-82277857D01*
X100130429Y-82350428D01*
X100094143Y-82386714D01*
X90877572Y-65368714D02*
X90877572Y-64606714D01*
X91059000Y-64606714D01*
X91167857Y-64643000D01*
X91240429Y-64715571D01*
X91276714Y-64788143D01*
X91313000Y-64933286D01*
X91313000Y-65042143D01*
X91276714Y-65187286D01*
X91240429Y-65259857D01*
X91167857Y-65332429D01*
X91059000Y-65368714D01*
X90877572Y-65368714D01*
X91567000Y-64606714D02*
X92038714Y-64606714D01*
X91784714Y-64897000D01*
X91893572Y-64897000D01*
X91966143Y-64933286D01*
X92002429Y-64969571D01*
X92038714Y-65042143D01*
X92038714Y-65223571D01*
X92002429Y-65296143D01*
X91966143Y-65332429D01*
X91893572Y-65368714D01*
X91675857Y-65368714D01*
X91603286Y-65332429D01*
X91567000Y-65296143D01*
X65786001Y-68880714D02*
X65786001Y-69425000D01*
X65749715Y-69533857D01*
X65677144Y-69606429D01*
X65568287Y-69642714D01*
X65495715Y-69642714D01*
X66548000Y-69642714D02*
X66112572Y-69642714D01*
X66330286Y-69642714D02*
X66330286Y-68880714D01*
X66257715Y-68989571D01*
X66185143Y-69062143D01*
X66112572Y-69098429D01*
X76200001Y-45048714D02*
X76200001Y-45593000D01*
X76163715Y-45701857D01*
X76091144Y-45774429D01*
X75982287Y-45810714D01*
X75909715Y-45810714D01*
X76490286Y-45048714D02*
X76962000Y-45048714D01*
X76708000Y-45339000D01*
X76816858Y-45339000D01*
X76889429Y-45375286D01*
X76925715Y-45411571D01*
X76962000Y-45484143D01*
X76962000Y-45665571D01*
X76925715Y-45738143D01*
X76889429Y-45774429D01*
X76816858Y-45810714D01*
X76599143Y-45810714D01*
X76526572Y-45774429D01*
X76490286Y-45738143D01*
X69596001Y-45048714D02*
X69596001Y-45593000D01*
X69559715Y-45701857D01*
X69487144Y-45774429D01*
X69378287Y-45810714D01*
X69305715Y-45810714D01*
X70321715Y-45048714D02*
X69958858Y-45048714D01*
X69922572Y-45411571D01*
X69958858Y-45375286D01*
X70031429Y-45339000D01*
X70212858Y-45339000D01*
X70285429Y-45375286D01*
X70321715Y-45411571D01*
X70358000Y-45484143D01*
X70358000Y-45665571D01*
X70321715Y-45738143D01*
X70285429Y-45774429D01*
X70212858Y-45810714D01*
X70031429Y-45810714D01*
X69958858Y-45774429D01*
X69922572Y-45738143D01*
X65786001Y-81370714D02*
X65786001Y-81915000D01*
X65749715Y-82023857D01*
X65677144Y-82096429D01*
X65568287Y-82132714D01*
X65495715Y-82132714D01*
X66475429Y-81370714D02*
X66330286Y-81370714D01*
X66257715Y-81407000D01*
X66221429Y-81443286D01*
X66148858Y-81552143D01*
X66112572Y-81697286D01*
X66112572Y-81987571D01*
X66148858Y-82060143D01*
X66185143Y-82096429D01*
X66257715Y-82132714D01*
X66402858Y-82132714D01*
X66475429Y-82096429D01*
X66511715Y-82060143D01*
X66548000Y-81987571D01*
X66548000Y-81806143D01*
X66511715Y-81733571D01*
X66475429Y-81697286D01*
X66402858Y-81661000D01*
X66257715Y-81661000D01*
X66185143Y-81697286D01*
X66148858Y-81733571D01*
X66112572Y-81806143D01*
X95153429Y-72932714D02*
X95153429Y-73549571D01*
X95189714Y-73622143D01*
X95226000Y-73658429D01*
X95298571Y-73694714D01*
X95443714Y-73694714D01*
X95516286Y-73658429D01*
X95552571Y-73622143D01*
X95588857Y-73549571D01*
X95588857Y-72932714D01*
X96350857Y-73694714D02*
X95915429Y-73694714D01*
X96133143Y-73694714D02*
X96133143Y-72932714D01*
X96060572Y-73041571D01*
X95988000Y-73114143D01*
X95915429Y-73150429D01*
X100373001Y-57748714D02*
X100010144Y-57748714D01*
X100010144Y-56986714D01*
X101026143Y-57748714D02*
X100590715Y-57748714D01*
X100808429Y-57748714D02*
X100808429Y-56986714D01*
X100735858Y-57095571D01*
X100663286Y-57168143D01*
X100590715Y-57204429D01*
X75304372Y-72274714D02*
X75304372Y-71512714D01*
X75485800Y-71512714D01*
X75594657Y-71549000D01*
X75667229Y-71621571D01*
X75703514Y-71694143D01*
X75739800Y-71839286D01*
X75739800Y-71948143D01*
X75703514Y-72093286D01*
X75667229Y-72165857D01*
X75594657Y-72238429D01*
X75485800Y-72274714D01*
X75304372Y-72274714D01*
X76465514Y-72274714D02*
X76030086Y-72274714D01*
X76247800Y-72274714D02*
X76247800Y-71512714D01*
X76175229Y-71621571D01*
X76102657Y-71694143D01*
X76030086Y-71730429D01*
X77766714Y-80651628D02*
X77004714Y-80651628D01*
X77004714Y-80470200D01*
X77041000Y-80361343D01*
X77113571Y-80288771D01*
X77186143Y-80252486D01*
X77331286Y-80216200D01*
X77440143Y-80216200D01*
X77585286Y-80252486D01*
X77657857Y-80288771D01*
X77730429Y-80361343D01*
X77766714Y-80470200D01*
X77766714Y-80651628D01*
X77077286Y-79925914D02*
X77041000Y-79889628D01*
X77004714Y-79817057D01*
X77004714Y-79635628D01*
X77041000Y-79563057D01*
X77077286Y-79526771D01*
X77149857Y-79490486D01*
X77222429Y-79490486D01*
X77331286Y-79526771D01*
X77766714Y-79962200D01*
X77766714Y-79490486D01*
X65278001Y-86704714D02*
X65278001Y-87249000D01*
X65241715Y-87357857D01*
X65169144Y-87430429D01*
X65060287Y-87466714D01*
X64987715Y-87466714D01*
X65568286Y-86704714D02*
X66076286Y-86704714D01*
X65749715Y-87466714D01*
M02*
