G04 #@! TF.FileFunction,Paste,Top*
%FSLAX46Y46*%
G04 Gerber Fmt 4.6, Leading zero omitted, Abs format (unit mm)*
G04 Created by KiCad (PCBNEW 4.0.7) date 01/05/18 16:25:35*
%MOMM*%
%LPD*%
G01*
G04 APERTURE LIST*
%ADD10C,0.100000*%
%ADD11R,1.000000X1.250000*%
%ADD12R,2.500000X1.000000*%
%ADD13R,1.250000X1.000000*%
%ADD14R,0.800000X0.750000*%
%ADD15R,0.700000X1.300000*%
%ADD16R,1.300000X0.700000*%
%ADD17R,1.981200X0.558800*%
%ADD18R,2.705100X8.001000*%
%ADD19R,1.700000X2.500000*%
%ADD20R,1.340000X1.800000*%
G04 APERTURE END LIST*
D10*
D11*
X106950000Y-67200000D03*
X108950000Y-67200000D03*
D12*
X80772000Y-70080000D03*
X80772000Y-67080000D03*
X84328000Y-70080000D03*
X84328000Y-67080000D03*
D13*
X84074000Y-60722000D03*
X84074000Y-62722000D03*
X100076000Y-72120000D03*
X100076000Y-70120000D03*
X102616000Y-72120000D03*
X102616000Y-70120000D03*
D14*
X92214000Y-75387200D03*
X93714000Y-75387200D03*
D15*
X88458000Y-76962000D03*
X90358000Y-76962000D03*
X91950000Y-77500000D03*
X93850000Y-77500000D03*
X106360000Y-78740000D03*
X104460000Y-78740000D03*
X100396000Y-74422000D03*
X102296000Y-74422000D03*
D16*
X99822000Y-78806000D03*
X99822000Y-80706000D03*
D17*
X91770200Y-67945000D03*
X91770200Y-69215000D03*
X91770200Y-70485000D03*
X91770200Y-71755000D03*
X96697800Y-71755000D03*
X96697800Y-70485000D03*
X96697800Y-69215000D03*
X96697800Y-67945000D03*
D18*
X100654300Y-57200000D03*
X95345700Y-57200000D03*
D19*
X74100000Y-78200000D03*
X78100000Y-78200000D03*
X74100000Y-74800000D03*
X78100000Y-74800000D03*
D20*
X99430000Y-65100000D03*
X96570000Y-65100000D03*
M02*
