G04 #@! TF.FileFunction,Copper,L2,Bot,Signal*
%FSLAX46Y46*%
G04 Gerber Fmt 4.6, Leading zero omitted, Abs format (unit mm)*
G04 Created by KiCad (PCBNEW 4.0.7) date 01/05/18 16:25:35*
%MOMM*%
%LPD*%
G01*
G04 APERTURE LIST*
%ADD10C,0.100000*%
%ADD11C,0.508000*%
%ADD12R,1.700000X1.700000*%
%ADD13O,1.700000X1.700000*%
%ADD14R,2.235200X2.235200*%
%ADD15C,2.000000*%
%ADD16C,3.000000*%
%ADD17C,0.381000*%
%ADD18C,0.609600*%
%ADD19C,0.254000*%
G04 APERTURE END LIST*
D10*
D11*
X72900000Y-86100000D03*
X72900000Y-81000000D03*
X95758000Y-77216000D03*
X94742000Y-78486000D03*
X96774000Y-78486000D03*
X96774000Y-75946000D03*
X94742000Y-75946000D03*
X94742000Y-67056000D03*
X93726000Y-67056000D03*
X96774000Y-73406000D03*
X95758000Y-73406000D03*
X94742000Y-73406000D03*
X94742000Y-72136000D03*
X94742000Y-70866000D03*
X94742000Y-69596000D03*
X93726000Y-73406000D03*
X93726000Y-72136000D03*
X93726000Y-70866000D03*
X93726000Y-69596000D03*
X94742000Y-68326000D03*
X93726000Y-68326000D03*
X113538000Y-91186000D03*
X110998000Y-91186000D03*
X108458000Y-91186000D03*
X105918000Y-91186000D03*
X103378000Y-91186000D03*
X100838000Y-91186000D03*
X98298000Y-91186000D03*
X95758000Y-91186000D03*
X93218000Y-91186000D03*
X90678000Y-91186000D03*
X88138000Y-91186000D03*
X85598000Y-91186000D03*
X83058000Y-91186000D03*
X80518000Y-91186000D03*
X77978000Y-91186000D03*
X75438000Y-91186000D03*
X72898000Y-91186000D03*
X70358000Y-91186000D03*
X67818000Y-91186000D03*
X65278000Y-91186000D03*
X113538000Y-88646000D03*
X110998000Y-88646000D03*
X108458000Y-88646000D03*
X105918000Y-88646000D03*
X103378000Y-88646000D03*
X100838000Y-88646000D03*
X98298000Y-88646000D03*
X95758000Y-88646000D03*
X93218000Y-88646000D03*
X90678000Y-88646000D03*
X88138000Y-88646000D03*
X85598000Y-88646000D03*
X83058000Y-88646000D03*
X80518000Y-88646000D03*
X77978000Y-88646000D03*
X75438000Y-88646000D03*
X72898000Y-88646000D03*
X70358000Y-88646000D03*
X65278000Y-88646000D03*
X113538000Y-86106000D03*
X110998000Y-86106000D03*
X108458000Y-86106000D03*
X105918000Y-86106000D03*
X103378000Y-86106000D03*
X100838000Y-86106000D03*
X98298000Y-86106000D03*
X95758000Y-86106000D03*
X93218000Y-86106000D03*
X85598000Y-86106000D03*
X83058000Y-86106000D03*
X80518000Y-86106000D03*
X77978000Y-86106000D03*
X75438000Y-86106000D03*
X65278000Y-86106000D03*
X113538000Y-83566000D03*
X110998000Y-83566000D03*
X108458000Y-83566000D03*
X105918000Y-83566000D03*
X103378000Y-83566000D03*
X100838000Y-83566000D03*
X98298000Y-83566000D03*
X95758000Y-83566000D03*
X93218000Y-83566000D03*
X88138000Y-83566000D03*
X85598000Y-83566000D03*
X83058000Y-83566000D03*
X80518000Y-83566000D03*
X77978000Y-83566000D03*
X75438000Y-83566000D03*
X72898000Y-83566000D03*
X70358000Y-83566000D03*
X67818000Y-83566000D03*
X65278000Y-83566000D03*
X113538000Y-81026000D03*
X110998000Y-81026000D03*
X108458000Y-81026000D03*
X105918000Y-81026000D03*
X103378000Y-81026000D03*
X98298000Y-81026000D03*
X95758000Y-81026000D03*
X93218000Y-81026000D03*
X88138000Y-81026000D03*
X85598000Y-81026000D03*
X83058000Y-81026000D03*
X80518000Y-81026000D03*
X70358000Y-81026000D03*
X67818000Y-81026000D03*
X65278000Y-81026000D03*
X88138000Y-67310000D03*
X77978000Y-67310000D03*
X75438000Y-67310000D03*
X70358000Y-67310000D03*
X65278000Y-67310000D03*
X88138000Y-64770000D03*
X85598000Y-64770000D03*
X83058000Y-64770000D03*
X80518000Y-64770000D03*
X77978000Y-64770000D03*
X75438000Y-64770000D03*
X72898000Y-64770000D03*
X70358000Y-64770000D03*
X65278000Y-64770000D03*
X93218000Y-62230000D03*
X90678000Y-62230000D03*
X88138000Y-62230000D03*
X85598000Y-62230000D03*
X83058000Y-62230000D03*
X80518000Y-62230000D03*
X77978000Y-62230000D03*
X75438000Y-62230000D03*
X72898000Y-62230000D03*
X70358000Y-62230000D03*
X67818000Y-62230000D03*
D12*
X68072000Y-66040000D03*
D13*
X68072000Y-63500000D03*
D12*
X83566000Y-48260000D03*
D13*
X86106000Y-48260000D03*
D12*
X66040000Y-71628000D03*
D13*
X66040000Y-74168000D03*
D12*
X77216000Y-48260000D03*
D13*
X79756000Y-48260000D03*
D12*
X70866000Y-48260000D03*
D13*
X73406000Y-48260000D03*
D12*
X66040000Y-79248000D03*
D13*
X66040000Y-76708000D03*
D11*
X65278000Y-62230000D03*
D14*
X68072000Y-89408000D03*
D15*
X68880000Y-73690000D03*
D16*
X90170000Y-85600000D03*
X90170000Y-50800000D03*
D15*
X68880000Y-85600000D03*
D16*
X90170000Y-80200000D03*
X90170000Y-56200000D03*
D17*
X77100000Y-81050000D03*
X111100000Y-66200000D03*
X89916000Y-67818000D03*
X72500000Y-78400000D03*
X76700000Y-71700000D03*
D18*
X77100000Y-81050000D02*
X76616946Y-81050000D01*
X76616946Y-81050000D02*
X72066946Y-85600000D01*
X72066946Y-85600000D02*
X70294213Y-85600000D01*
X70294213Y-85600000D02*
X68880000Y-85600000D01*
X68072000Y-89408000D02*
X68072000Y-86408000D01*
X68072000Y-86408000D02*
X68880000Y-85600000D01*
X68834000Y-85646000D02*
X68880000Y-85600000D01*
X90932000Y-65278000D02*
X110178000Y-65278000D01*
X110178000Y-65278000D02*
X111100000Y-66200000D01*
X89916000Y-66294000D02*
X89916000Y-67818000D01*
X90932000Y-65278000D02*
X89916000Y-66294000D01*
X66040000Y-71628000D02*
X69125026Y-71628000D01*
X69125026Y-71628000D02*
X72500000Y-75002974D01*
X72500000Y-75002974D02*
X72500000Y-78400000D01*
X68072000Y-66040000D02*
X71040000Y-66040000D01*
X71040000Y-66040000D02*
X76700000Y-71700000D01*
X79756000Y-48260000D02*
X83566000Y-48260000D01*
X83566000Y-48260000D02*
X83312000Y-48514000D01*
D19*
G36*
X115114000Y-91746000D02*
X64464000Y-91746000D01*
X64464000Y-88290400D01*
X66565936Y-88290400D01*
X66565936Y-90525600D01*
X66592503Y-90666790D01*
X66675946Y-90796465D01*
X66803266Y-90883459D01*
X66954400Y-90914064D01*
X69189600Y-90914064D01*
X69330790Y-90887497D01*
X69460465Y-90804054D01*
X69547459Y-90676734D01*
X69578064Y-90525600D01*
X69578064Y-88290400D01*
X69551497Y-88149210D01*
X69468054Y-88019535D01*
X69340734Y-87932541D01*
X69189600Y-87901936D01*
X68757800Y-87901936D01*
X68757800Y-86980893D01*
X69153493Y-86981239D01*
X69661251Y-86771437D01*
X70050072Y-86383295D01*
X70090555Y-86285800D01*
X72066946Y-86285800D01*
X72329391Y-86233597D01*
X72551880Y-86084934D01*
X72664301Y-85972513D01*
X88288674Y-85972513D01*
X88574436Y-86664109D01*
X89103108Y-87193704D01*
X89794204Y-87480673D01*
X90542513Y-87481326D01*
X91234109Y-87195564D01*
X91763704Y-86666892D01*
X92050673Y-85975796D01*
X92051326Y-85227487D01*
X91765564Y-84535891D01*
X91236892Y-84006296D01*
X90545796Y-83719327D01*
X89797487Y-83718674D01*
X89105891Y-84004436D01*
X88576296Y-84533108D01*
X88289327Y-85224204D01*
X88288674Y-85972513D01*
X72664301Y-85972513D01*
X76901014Y-81735800D01*
X77100000Y-81735800D01*
X77362444Y-81683597D01*
X77584934Y-81534934D01*
X77733597Y-81312444D01*
X77785800Y-81050000D01*
X77733597Y-80787556D01*
X77589910Y-80572513D01*
X88288674Y-80572513D01*
X88574436Y-81264109D01*
X89103108Y-81793704D01*
X89794204Y-82080673D01*
X90542513Y-82081326D01*
X91234109Y-81795564D01*
X91763704Y-81266892D01*
X92050673Y-80575796D01*
X92051326Y-79827487D01*
X91765564Y-79135891D01*
X91236892Y-78606296D01*
X90545796Y-78319327D01*
X89797487Y-78318674D01*
X89105891Y-78604436D01*
X88576296Y-79133108D01*
X88289327Y-79824204D01*
X88288674Y-80572513D01*
X77589910Y-80572513D01*
X77584934Y-80565066D01*
X77362444Y-80416403D01*
X77100000Y-80364200D01*
X76616946Y-80364200D01*
X76354501Y-80416403D01*
X76132012Y-80565066D01*
X71782878Y-84914200D01*
X70090877Y-84914200D01*
X70051437Y-84818749D01*
X69663295Y-84429928D01*
X69155903Y-84219241D01*
X68606507Y-84218761D01*
X68098749Y-84428563D01*
X67709928Y-84816705D01*
X67499241Y-85324097D01*
X67498761Y-85873493D01*
X67545159Y-85985784D01*
X67438403Y-86145555D01*
X67438403Y-86145556D01*
X67386200Y-86408000D01*
X67386200Y-87901936D01*
X66954400Y-87901936D01*
X66813210Y-87928503D01*
X66683535Y-88011946D01*
X66596541Y-88139266D01*
X66565936Y-88290400D01*
X64464000Y-88290400D01*
X64464000Y-76708000D01*
X64784883Y-76708000D01*
X64878587Y-77179083D01*
X65145435Y-77578448D01*
X65544800Y-77845296D01*
X66015883Y-77939000D01*
X66064117Y-77939000D01*
X66535200Y-77845296D01*
X66934565Y-77578448D01*
X67201413Y-77179083D01*
X67295117Y-76708000D01*
X67201413Y-76236917D01*
X66934565Y-75837552D01*
X66535200Y-75570704D01*
X66064117Y-75477000D01*
X66015883Y-75477000D01*
X65544800Y-75570704D01*
X65145435Y-75837552D01*
X64878587Y-76236917D01*
X64784883Y-76708000D01*
X64464000Y-76708000D01*
X64464000Y-74168000D01*
X64784883Y-74168000D01*
X64878587Y-74639083D01*
X65145435Y-75038448D01*
X65544800Y-75305296D01*
X66015883Y-75399000D01*
X66064117Y-75399000D01*
X66535200Y-75305296D01*
X66934565Y-75038448D01*
X67201413Y-74639083D01*
X67295117Y-74168000D01*
X67201413Y-73696917D01*
X66934565Y-73297552D01*
X66535200Y-73030704D01*
X66064117Y-72937000D01*
X66015883Y-72937000D01*
X65544800Y-73030704D01*
X65145435Y-73297552D01*
X64878587Y-73696917D01*
X64784883Y-74168000D01*
X64464000Y-74168000D01*
X64464000Y-70778000D01*
X64801536Y-70778000D01*
X64801536Y-72478000D01*
X64828103Y-72619190D01*
X64911546Y-72748865D01*
X65038866Y-72835859D01*
X65190000Y-72866464D01*
X66890000Y-72866464D01*
X67031190Y-72839897D01*
X67160865Y-72756454D01*
X67247859Y-72629134D01*
X67278464Y-72478000D01*
X67278464Y-72313800D01*
X68840958Y-72313800D01*
X71814200Y-75287042D01*
X71814200Y-78400000D01*
X71866403Y-78662444D01*
X72015066Y-78884934D01*
X72237556Y-79033597D01*
X72500000Y-79085800D01*
X72762444Y-79033597D01*
X72984934Y-78884934D01*
X73133597Y-78662444D01*
X73185800Y-78400000D01*
X73185800Y-75002974D01*
X73133597Y-74740530D01*
X73133597Y-74740529D01*
X72984934Y-74518040D01*
X69609960Y-71143066D01*
X69387471Y-70994403D01*
X69125026Y-70942200D01*
X67278464Y-70942200D01*
X67278464Y-70778000D01*
X67251897Y-70636810D01*
X67168454Y-70507135D01*
X67041134Y-70420141D01*
X66890000Y-70389536D01*
X65190000Y-70389536D01*
X65048810Y-70416103D01*
X64919135Y-70499546D01*
X64832141Y-70626866D01*
X64801536Y-70778000D01*
X64464000Y-70778000D01*
X64464000Y-65190000D01*
X66833536Y-65190000D01*
X66833536Y-66890000D01*
X66860103Y-67031190D01*
X66943546Y-67160865D01*
X67070866Y-67247859D01*
X67222000Y-67278464D01*
X68922000Y-67278464D01*
X69063190Y-67251897D01*
X69192865Y-67168454D01*
X69279859Y-67041134D01*
X69310464Y-66890000D01*
X69310464Y-66725800D01*
X70755932Y-66725800D01*
X76215066Y-72184934D01*
X76437555Y-72333597D01*
X76700000Y-72385800D01*
X76962445Y-72333597D01*
X77184934Y-72184934D01*
X77333597Y-71962445D01*
X77385800Y-71700000D01*
X77333597Y-71437555D01*
X77184934Y-71215066D01*
X72263868Y-66294000D01*
X89230200Y-66294000D01*
X89230200Y-67818000D01*
X89282403Y-68080444D01*
X89431066Y-68302934D01*
X89653556Y-68451597D01*
X89916000Y-68503800D01*
X90178444Y-68451597D01*
X90400934Y-68302934D01*
X90549597Y-68080444D01*
X90601800Y-67818000D01*
X90601800Y-66578068D01*
X91216068Y-65963800D01*
X109893932Y-65963800D01*
X110615066Y-66684934D01*
X110837555Y-66833597D01*
X111100000Y-66885800D01*
X111362445Y-66833597D01*
X111584934Y-66684934D01*
X111733597Y-66462445D01*
X111785800Y-66200000D01*
X111733597Y-65937555D01*
X111584934Y-65715066D01*
X110662934Y-64793066D01*
X110440445Y-64644403D01*
X110178000Y-64592200D01*
X90932000Y-64592200D01*
X90669555Y-64644403D01*
X90447066Y-64793066D01*
X89431066Y-65809066D01*
X89282403Y-66031555D01*
X89282403Y-66031556D01*
X89230200Y-66294000D01*
X72263868Y-66294000D01*
X71524934Y-65555066D01*
X71302445Y-65406403D01*
X71040000Y-65354200D01*
X69310464Y-65354200D01*
X69310464Y-65190000D01*
X69283897Y-65048810D01*
X69200454Y-64919135D01*
X69073134Y-64832141D01*
X68922000Y-64801536D01*
X67222000Y-64801536D01*
X67080810Y-64828103D01*
X66951135Y-64911546D01*
X66864141Y-65038866D01*
X66833536Y-65190000D01*
X64464000Y-65190000D01*
X64464000Y-56572513D01*
X88288674Y-56572513D01*
X88574436Y-57264109D01*
X89103108Y-57793704D01*
X89794204Y-58080673D01*
X90542513Y-58081326D01*
X91234109Y-57795564D01*
X91763704Y-57266892D01*
X92050673Y-56575796D01*
X92051326Y-55827487D01*
X91765564Y-55135891D01*
X91236892Y-54606296D01*
X90545796Y-54319327D01*
X89797487Y-54318674D01*
X89105891Y-54604436D01*
X88576296Y-55133108D01*
X88289327Y-55824204D01*
X88288674Y-56572513D01*
X64464000Y-56572513D01*
X64464000Y-51172513D01*
X88288674Y-51172513D01*
X88574436Y-51864109D01*
X89103108Y-52393704D01*
X89794204Y-52680673D01*
X90542513Y-52681326D01*
X91234109Y-52395564D01*
X91763704Y-51866892D01*
X92050673Y-51175796D01*
X92051326Y-50427487D01*
X91765564Y-49735891D01*
X91236892Y-49206296D01*
X90545796Y-48919327D01*
X89797487Y-48918674D01*
X89105891Y-49204436D01*
X88576296Y-49733108D01*
X88289327Y-50424204D01*
X88288674Y-51172513D01*
X64464000Y-51172513D01*
X64464000Y-47410000D01*
X69627536Y-47410000D01*
X69627536Y-49110000D01*
X69654103Y-49251190D01*
X69737546Y-49380865D01*
X69864866Y-49467859D01*
X70016000Y-49498464D01*
X71716000Y-49498464D01*
X71857190Y-49471897D01*
X71986865Y-49388454D01*
X72073859Y-49261134D01*
X72104464Y-49110000D01*
X72104464Y-47410000D01*
X75977536Y-47410000D01*
X75977536Y-49110000D01*
X76004103Y-49251190D01*
X76087546Y-49380865D01*
X76214866Y-49467859D01*
X76366000Y-49498464D01*
X78066000Y-49498464D01*
X78207190Y-49471897D01*
X78336865Y-49388454D01*
X78423859Y-49261134D01*
X78454464Y-49110000D01*
X78454464Y-48235883D01*
X78525000Y-48235883D01*
X78525000Y-48284117D01*
X78618704Y-48755200D01*
X78885552Y-49154565D01*
X79284917Y-49421413D01*
X79756000Y-49515117D01*
X80227083Y-49421413D01*
X80626448Y-49154565D01*
X80765941Y-48945800D01*
X82327536Y-48945800D01*
X82327536Y-49110000D01*
X82354103Y-49251190D01*
X82437546Y-49380865D01*
X82564866Y-49467859D01*
X82716000Y-49498464D01*
X84416000Y-49498464D01*
X84557190Y-49471897D01*
X84686865Y-49388454D01*
X84773859Y-49261134D01*
X84804464Y-49110000D01*
X84804464Y-47410000D01*
X84777897Y-47268810D01*
X84694454Y-47139135D01*
X84567134Y-47052141D01*
X84416000Y-47021536D01*
X82716000Y-47021536D01*
X82574810Y-47048103D01*
X82445135Y-47131546D01*
X82358141Y-47258866D01*
X82327536Y-47410000D01*
X82327536Y-47574200D01*
X80765941Y-47574200D01*
X80626448Y-47365435D01*
X80227083Y-47098587D01*
X79756000Y-47004883D01*
X79284917Y-47098587D01*
X78885552Y-47365435D01*
X78618704Y-47764800D01*
X78525000Y-48235883D01*
X78454464Y-48235883D01*
X78454464Y-47410000D01*
X78427897Y-47268810D01*
X78344454Y-47139135D01*
X78217134Y-47052141D01*
X78066000Y-47021536D01*
X76366000Y-47021536D01*
X76224810Y-47048103D01*
X76095135Y-47131546D01*
X76008141Y-47258866D01*
X75977536Y-47410000D01*
X72104464Y-47410000D01*
X72077897Y-47268810D01*
X71994454Y-47139135D01*
X71867134Y-47052141D01*
X71716000Y-47021536D01*
X70016000Y-47021536D01*
X69874810Y-47048103D01*
X69745135Y-47131546D01*
X69658141Y-47258866D01*
X69627536Y-47410000D01*
X64464000Y-47410000D01*
X64464000Y-44652000D01*
X115114000Y-44652000D01*
X115114000Y-91746000D01*
X115114000Y-91746000D01*
G37*
X115114000Y-91746000D02*
X64464000Y-91746000D01*
X64464000Y-88290400D01*
X66565936Y-88290400D01*
X66565936Y-90525600D01*
X66592503Y-90666790D01*
X66675946Y-90796465D01*
X66803266Y-90883459D01*
X66954400Y-90914064D01*
X69189600Y-90914064D01*
X69330790Y-90887497D01*
X69460465Y-90804054D01*
X69547459Y-90676734D01*
X69578064Y-90525600D01*
X69578064Y-88290400D01*
X69551497Y-88149210D01*
X69468054Y-88019535D01*
X69340734Y-87932541D01*
X69189600Y-87901936D01*
X68757800Y-87901936D01*
X68757800Y-86980893D01*
X69153493Y-86981239D01*
X69661251Y-86771437D01*
X70050072Y-86383295D01*
X70090555Y-86285800D01*
X72066946Y-86285800D01*
X72329391Y-86233597D01*
X72551880Y-86084934D01*
X72664301Y-85972513D01*
X88288674Y-85972513D01*
X88574436Y-86664109D01*
X89103108Y-87193704D01*
X89794204Y-87480673D01*
X90542513Y-87481326D01*
X91234109Y-87195564D01*
X91763704Y-86666892D01*
X92050673Y-85975796D01*
X92051326Y-85227487D01*
X91765564Y-84535891D01*
X91236892Y-84006296D01*
X90545796Y-83719327D01*
X89797487Y-83718674D01*
X89105891Y-84004436D01*
X88576296Y-84533108D01*
X88289327Y-85224204D01*
X88288674Y-85972513D01*
X72664301Y-85972513D01*
X76901014Y-81735800D01*
X77100000Y-81735800D01*
X77362444Y-81683597D01*
X77584934Y-81534934D01*
X77733597Y-81312444D01*
X77785800Y-81050000D01*
X77733597Y-80787556D01*
X77589910Y-80572513D01*
X88288674Y-80572513D01*
X88574436Y-81264109D01*
X89103108Y-81793704D01*
X89794204Y-82080673D01*
X90542513Y-82081326D01*
X91234109Y-81795564D01*
X91763704Y-81266892D01*
X92050673Y-80575796D01*
X92051326Y-79827487D01*
X91765564Y-79135891D01*
X91236892Y-78606296D01*
X90545796Y-78319327D01*
X89797487Y-78318674D01*
X89105891Y-78604436D01*
X88576296Y-79133108D01*
X88289327Y-79824204D01*
X88288674Y-80572513D01*
X77589910Y-80572513D01*
X77584934Y-80565066D01*
X77362444Y-80416403D01*
X77100000Y-80364200D01*
X76616946Y-80364200D01*
X76354501Y-80416403D01*
X76132012Y-80565066D01*
X71782878Y-84914200D01*
X70090877Y-84914200D01*
X70051437Y-84818749D01*
X69663295Y-84429928D01*
X69155903Y-84219241D01*
X68606507Y-84218761D01*
X68098749Y-84428563D01*
X67709928Y-84816705D01*
X67499241Y-85324097D01*
X67498761Y-85873493D01*
X67545159Y-85985784D01*
X67438403Y-86145555D01*
X67438403Y-86145556D01*
X67386200Y-86408000D01*
X67386200Y-87901936D01*
X66954400Y-87901936D01*
X66813210Y-87928503D01*
X66683535Y-88011946D01*
X66596541Y-88139266D01*
X66565936Y-88290400D01*
X64464000Y-88290400D01*
X64464000Y-76708000D01*
X64784883Y-76708000D01*
X64878587Y-77179083D01*
X65145435Y-77578448D01*
X65544800Y-77845296D01*
X66015883Y-77939000D01*
X66064117Y-77939000D01*
X66535200Y-77845296D01*
X66934565Y-77578448D01*
X67201413Y-77179083D01*
X67295117Y-76708000D01*
X67201413Y-76236917D01*
X66934565Y-75837552D01*
X66535200Y-75570704D01*
X66064117Y-75477000D01*
X66015883Y-75477000D01*
X65544800Y-75570704D01*
X65145435Y-75837552D01*
X64878587Y-76236917D01*
X64784883Y-76708000D01*
X64464000Y-76708000D01*
X64464000Y-74168000D01*
X64784883Y-74168000D01*
X64878587Y-74639083D01*
X65145435Y-75038448D01*
X65544800Y-75305296D01*
X66015883Y-75399000D01*
X66064117Y-75399000D01*
X66535200Y-75305296D01*
X66934565Y-75038448D01*
X67201413Y-74639083D01*
X67295117Y-74168000D01*
X67201413Y-73696917D01*
X66934565Y-73297552D01*
X66535200Y-73030704D01*
X66064117Y-72937000D01*
X66015883Y-72937000D01*
X65544800Y-73030704D01*
X65145435Y-73297552D01*
X64878587Y-73696917D01*
X64784883Y-74168000D01*
X64464000Y-74168000D01*
X64464000Y-70778000D01*
X64801536Y-70778000D01*
X64801536Y-72478000D01*
X64828103Y-72619190D01*
X64911546Y-72748865D01*
X65038866Y-72835859D01*
X65190000Y-72866464D01*
X66890000Y-72866464D01*
X67031190Y-72839897D01*
X67160865Y-72756454D01*
X67247859Y-72629134D01*
X67278464Y-72478000D01*
X67278464Y-72313800D01*
X68840958Y-72313800D01*
X71814200Y-75287042D01*
X71814200Y-78400000D01*
X71866403Y-78662444D01*
X72015066Y-78884934D01*
X72237556Y-79033597D01*
X72500000Y-79085800D01*
X72762444Y-79033597D01*
X72984934Y-78884934D01*
X73133597Y-78662444D01*
X73185800Y-78400000D01*
X73185800Y-75002974D01*
X73133597Y-74740530D01*
X73133597Y-74740529D01*
X72984934Y-74518040D01*
X69609960Y-71143066D01*
X69387471Y-70994403D01*
X69125026Y-70942200D01*
X67278464Y-70942200D01*
X67278464Y-70778000D01*
X67251897Y-70636810D01*
X67168454Y-70507135D01*
X67041134Y-70420141D01*
X66890000Y-70389536D01*
X65190000Y-70389536D01*
X65048810Y-70416103D01*
X64919135Y-70499546D01*
X64832141Y-70626866D01*
X64801536Y-70778000D01*
X64464000Y-70778000D01*
X64464000Y-65190000D01*
X66833536Y-65190000D01*
X66833536Y-66890000D01*
X66860103Y-67031190D01*
X66943546Y-67160865D01*
X67070866Y-67247859D01*
X67222000Y-67278464D01*
X68922000Y-67278464D01*
X69063190Y-67251897D01*
X69192865Y-67168454D01*
X69279859Y-67041134D01*
X69310464Y-66890000D01*
X69310464Y-66725800D01*
X70755932Y-66725800D01*
X76215066Y-72184934D01*
X76437555Y-72333597D01*
X76700000Y-72385800D01*
X76962445Y-72333597D01*
X77184934Y-72184934D01*
X77333597Y-71962445D01*
X77385800Y-71700000D01*
X77333597Y-71437555D01*
X77184934Y-71215066D01*
X72263868Y-66294000D01*
X89230200Y-66294000D01*
X89230200Y-67818000D01*
X89282403Y-68080444D01*
X89431066Y-68302934D01*
X89653556Y-68451597D01*
X89916000Y-68503800D01*
X90178444Y-68451597D01*
X90400934Y-68302934D01*
X90549597Y-68080444D01*
X90601800Y-67818000D01*
X90601800Y-66578068D01*
X91216068Y-65963800D01*
X109893932Y-65963800D01*
X110615066Y-66684934D01*
X110837555Y-66833597D01*
X111100000Y-66885800D01*
X111362445Y-66833597D01*
X111584934Y-66684934D01*
X111733597Y-66462445D01*
X111785800Y-66200000D01*
X111733597Y-65937555D01*
X111584934Y-65715066D01*
X110662934Y-64793066D01*
X110440445Y-64644403D01*
X110178000Y-64592200D01*
X90932000Y-64592200D01*
X90669555Y-64644403D01*
X90447066Y-64793066D01*
X89431066Y-65809066D01*
X89282403Y-66031555D01*
X89282403Y-66031556D01*
X89230200Y-66294000D01*
X72263868Y-66294000D01*
X71524934Y-65555066D01*
X71302445Y-65406403D01*
X71040000Y-65354200D01*
X69310464Y-65354200D01*
X69310464Y-65190000D01*
X69283897Y-65048810D01*
X69200454Y-64919135D01*
X69073134Y-64832141D01*
X68922000Y-64801536D01*
X67222000Y-64801536D01*
X67080810Y-64828103D01*
X66951135Y-64911546D01*
X66864141Y-65038866D01*
X66833536Y-65190000D01*
X64464000Y-65190000D01*
X64464000Y-56572513D01*
X88288674Y-56572513D01*
X88574436Y-57264109D01*
X89103108Y-57793704D01*
X89794204Y-58080673D01*
X90542513Y-58081326D01*
X91234109Y-57795564D01*
X91763704Y-57266892D01*
X92050673Y-56575796D01*
X92051326Y-55827487D01*
X91765564Y-55135891D01*
X91236892Y-54606296D01*
X90545796Y-54319327D01*
X89797487Y-54318674D01*
X89105891Y-54604436D01*
X88576296Y-55133108D01*
X88289327Y-55824204D01*
X88288674Y-56572513D01*
X64464000Y-56572513D01*
X64464000Y-51172513D01*
X88288674Y-51172513D01*
X88574436Y-51864109D01*
X89103108Y-52393704D01*
X89794204Y-52680673D01*
X90542513Y-52681326D01*
X91234109Y-52395564D01*
X91763704Y-51866892D01*
X92050673Y-51175796D01*
X92051326Y-50427487D01*
X91765564Y-49735891D01*
X91236892Y-49206296D01*
X90545796Y-48919327D01*
X89797487Y-48918674D01*
X89105891Y-49204436D01*
X88576296Y-49733108D01*
X88289327Y-50424204D01*
X88288674Y-51172513D01*
X64464000Y-51172513D01*
X64464000Y-47410000D01*
X69627536Y-47410000D01*
X69627536Y-49110000D01*
X69654103Y-49251190D01*
X69737546Y-49380865D01*
X69864866Y-49467859D01*
X70016000Y-49498464D01*
X71716000Y-49498464D01*
X71857190Y-49471897D01*
X71986865Y-49388454D01*
X72073859Y-49261134D01*
X72104464Y-49110000D01*
X72104464Y-47410000D01*
X75977536Y-47410000D01*
X75977536Y-49110000D01*
X76004103Y-49251190D01*
X76087546Y-49380865D01*
X76214866Y-49467859D01*
X76366000Y-49498464D01*
X78066000Y-49498464D01*
X78207190Y-49471897D01*
X78336865Y-49388454D01*
X78423859Y-49261134D01*
X78454464Y-49110000D01*
X78454464Y-48235883D01*
X78525000Y-48235883D01*
X78525000Y-48284117D01*
X78618704Y-48755200D01*
X78885552Y-49154565D01*
X79284917Y-49421413D01*
X79756000Y-49515117D01*
X80227083Y-49421413D01*
X80626448Y-49154565D01*
X80765941Y-48945800D01*
X82327536Y-48945800D01*
X82327536Y-49110000D01*
X82354103Y-49251190D01*
X82437546Y-49380865D01*
X82564866Y-49467859D01*
X82716000Y-49498464D01*
X84416000Y-49498464D01*
X84557190Y-49471897D01*
X84686865Y-49388454D01*
X84773859Y-49261134D01*
X84804464Y-49110000D01*
X84804464Y-47410000D01*
X84777897Y-47268810D01*
X84694454Y-47139135D01*
X84567134Y-47052141D01*
X84416000Y-47021536D01*
X82716000Y-47021536D01*
X82574810Y-47048103D01*
X82445135Y-47131546D01*
X82358141Y-47258866D01*
X82327536Y-47410000D01*
X82327536Y-47574200D01*
X80765941Y-47574200D01*
X80626448Y-47365435D01*
X80227083Y-47098587D01*
X79756000Y-47004883D01*
X79284917Y-47098587D01*
X78885552Y-47365435D01*
X78618704Y-47764800D01*
X78525000Y-48235883D01*
X78454464Y-48235883D01*
X78454464Y-47410000D01*
X78427897Y-47268810D01*
X78344454Y-47139135D01*
X78217134Y-47052141D01*
X78066000Y-47021536D01*
X76366000Y-47021536D01*
X76224810Y-47048103D01*
X76095135Y-47131546D01*
X76008141Y-47258866D01*
X75977536Y-47410000D01*
X72104464Y-47410000D01*
X72077897Y-47268810D01*
X71994454Y-47139135D01*
X71867134Y-47052141D01*
X71716000Y-47021536D01*
X70016000Y-47021536D01*
X69874810Y-47048103D01*
X69745135Y-47131546D01*
X69658141Y-47258866D01*
X69627536Y-47410000D01*
X64464000Y-47410000D01*
X64464000Y-44652000D01*
X115114000Y-44652000D01*
X115114000Y-91746000D01*
M02*
